UniversElse-Regular.sfdir

StartChar: uni0021
Encoding: 33 33 4
Width: 427
GlyphClass: 2
Flags: W
LayerCount: 2
Fore
SplineSet
232 106 m 0,0,1
 242 110 242 110 243 110 c 0,2,3
 248 110 248 110 255 107 c 2,4,5
 266 105 266 105 267 102 c 1,6,7
 268 102 268 102 277 88 c 1,8,9
 284 71 284 71 285 66 c 0,10,11
 287 59 287 59 287 56.5 c 128,-1,12
 287 54 287 54 285 48 c 0,13,14
 283 38 283 38 281 26 c 0,15,16
 280 16 280 16 279 13.5 c 128,-1,17
 278 11 278 11 272 5 c 128,-1,18
 266 -1 266 -1 261 -2 c 128,-1,19
 256 -3 256 -3 232 -3 c 0,20,21
 195 -3 195 -3 188 -2 c 0,22,23
 176 -1 176 -1 173 3 c 0,24,25
 170 8 170 8 170 24 c 0,26,27
 170 42 170 42 168 46 c 0,28,29
 164 53 164 53 164 63 c 0,30,31
 164 67 164 67 166 74 c 1,32,33
 171 84 171 84 176 88 c 2,34,35
 181 94 181 94 186 96 c 128,-1,36
 191 98 191 98 206 100 c 0,37,38
 228 104 228 104 232 106 c 0,0,1
239 731 m 2,39,40
 245 733 245 733 255 733 c 0,41,42
 267 733 267 733 272 729 c 0,43,44
 275 727 275 727 279 723 c 1,45,46
 279 722 279 722 281.5 718.5 c 128,-1,47
 284 715 284 715 285 713 c 0,48,49
 288 707 288 707 288 650 c 0,50,51
 288 597 288 597 285 576 c 0,52,53
 283 560 283 560 284 550 c 1,54,55
 287 538 287 538 287 520 c 0,56,57
 288 509 288 509 288 504 c 0,58,59
 288 496 288 496 285 488 c 0,60,61
 281 476 281 476 281 467 c 0,62,63
 281 457 281 457 283 455 c 0,64,65
 284 454 284 454 286 447 c 0,66,67
 288 441 288 441 285 434 c 1,68,69
 282 416 282 416 281 413 c 1,70,71
 280 403 280 403 280 388 c 0,72,73
 280 381 280 381 280 375 c 2,74,-1
 280 319 l 2,75,76
 280 311 280 311 279.5 289 c 128,-1,77
 279 267 279 267 279 258 c 0,78,79
 277 225 277 225 275 215 c 0,80,81
 274 208 274 208 270 196 c 0,82,83
 268 188 268 188 268 181 c 0,84,85
 268 173 268 173 263 169 c 0,86,87
 260 166 260 166 250 164 c 128,-1,88
 240 162 240 162 239 162 c 0,89,90
 236 162 236 162 221 167 c 0,91,92
 218 168 218 168 212.5 170 c 128,-1,93
 207 172 207 172 203 173.5 c 128,-1,94
 199 175 199 175 197 176 c 0,95,96
 188 180 188 180 187 185 c 1,97,98
 185 189 185 189 185 222 c 0,99,100
 184 256 184 256 182 260 c 256,101,102
 180 264 180 264 178 289 c 0,103,104
 176 312 176 312 174 315 c 0,105,106
 172 319 172 319 172 325 c 0,107,108
 172 332 172 332 175 335 c 1,109,110
 177 341 177 341 177 359 c 0,111,112
 177 380 177 380 174 384 c 1,113,114
 171 390 171 390 171 411 c 0,115,116
 171 417 171 417 171 422 c 0,117,118
 171 436 171 436 173 450 c 0,119,120
 175 462 175 462 177 499 c 0,121,122
 177 532 177 532 175 541 c 0,123,124
 172 550 172 550 172 558 c 0,125,126
 172 568 172 568 173 573 c 0,127,128
 174 580 174 580 172 590 c 1,129,130
 170 595 170 595 170 635 c 0,131,132
 168 678 168 678 167 683 c 0,133,134
 165 693 165 693 167 700 c 0,135,136
 169 708 169 708 173 713 c 0,137,138
 177 719 177 719 187 724 c 0,139,140
 200 730 200 730 216 730 c 0,141,142
 222 730 222 730 230 730.5 c 128,-1,143
 238 731 238 731 239 731 c 2,39,40
EndSplineSet
EndChar

StartChar: uni0022
Encoding: 34 34 5
Width: 638
GlyphClass: 2
Flags: W
LayerCount: 2
Fore
SplineSet
140 720 m 0,0,1
 144 722 144 722 151 722 c 0,2,3
 154 722 154 722 158 722 c 0,4,5
 183 719 183 719 187 718 c 0,6,7
 197 717 197 717 208 714 c 0,8,9
 214 713 214 713 221 703 c 0,10,11
 224 699 224 699 238 688 c 0,12,13
 248 680 248 680 249 675 c 0,14,15
 250 672 250 672 255 656 c 0,16,17
 258 646 258 646 258 608 c 0,18,19
 258 598 258 598 257.5 571.5 c 128,-1,20
 257 545 257 545 257 534 c 0,21,22
 255 494 255 494 253 486 c 0,23,24
 251 472 251 472 251 467 c 0,25,26
 251 459 251 459 247 451 c 0,27,28
 242 442 242 442 241 436 c 128,-1,29
 240 430 240 430 235 425 c 1,30,31
 231 422 231 422 224 422 c 0,32,33
 219 422 219 422 209 423 c 0,34,35
 189 425 189 425 177 431 c 0,36,37
 163 440 163 440 162 442 c 2,38,-1
 154 454 l 2,39,40
 152 457 152 457 148 462 c 2,41,-1
 145 467 l 1,42,43
 142 470 142 470 140 484 c 0,44,45
 138 500 138 500 137 502 c 0,46,47
 135 506 135 506 135 514 c 0,48,49
 135 520 135 520 137 530 c 0,50,51
 138 538 138 538 136 547 c 0,52,53
 134 557 134 557 134 574 c 0,54,55
 134 583 134 583 131 607 c 1,56,57
 128 618 128 618 128 631 c 0,58,59
 128 640 128 640 124 652 c 0,60,61
 121 661 121 661 121 664 c 256,62,63
 121 667 121 667 123 674 c 2,64,-1
 127 694 l 2,65,66
 129 704 129 704 132 710 c 1,67,68
 134 718 134 718 140 720 c 0,0,1
427 725 m 1,69,70
 432 727 432 727 449 727 c 0,71,72
 460 727 460 727 468 720 c 0,73,74
 476 712 476 712 488 705 c 0,75,76
 502 697 502 697 506 693 c 0,77,78
 512 688 512 688 514 681 c 0,79,80
 516 675 516 675 516 659 c 0,81,82
 517 650 517 650 517 646 c 0,83,84
 517 640 517 640 514 632 c 256,85,86
 511 624 511 624 511 616 c 0,87,88
 511 611 511 611 512 591 c 0,89,90
 513 566 513 566 516 545 c 0,91,92
 517 537 517 537 517 534 c 0,93,94
 517 529 517 529 515 523 c 0,95,96
 512 515 512 515 512 508 c 0,97,98
 512 500 512 500 509 494 c 1,99,100
 507 484 507 484 507 465 c 0,101,102
 507 443 507 443 504 439 c 0,103,104
 502 435 502 435 495 430 c 256,105,106
 488 425 488 425 478 425 c 2,107,108
 468 423 468 423 461 425 c 2,109,110
 452 425 452 425 436 434 c 0,111,112
 424 440 424 440 421.5 442 c 128,-1,113
 419 444 419 444 418 449 c 2,114,115
 413 463 413 463 413 464 c 1,116,117
 408 477 408 477 407 480 c 0,118,119
 404 495 404 495 404 505 c 0,120,121
 403 517 403 517 400 534 c 0,122,123
 400 535 400 535 394 563 c 0,124,125
 392 583 392 583 392 595 c 2,126,127
 391 599 391 599 390.5 611.5 c 128,-1,128
 390 624 390 624 390 629 c 0,129,130
 388 650 388 650 385 657 c 256,131,132
 382 664 382 664 382 686 c 0,133,134
 382 703 382 703 382.5 706.5 c 128,-1,135
 383 710 383 710 387 714 c 256,136,137
 391 718 391 718 405 721 c 0,138,139
 412 722 412 722 427 725 c 1,69,70
EndSplineSet
EndChar

StartChar: uni0023
Encoding: 35 35 6
Width: 550
GlyphClass: 2
Flags: W
LayerCount: 2
Fore
SplineSet
283 400 m 0,0,1
 276 403 276 403 268 405 c 1,2,3
 256 405 256 405 251 404 c 2,4,5
 244 404 244 404 238 400 c 0,6,7
 233 397 233 397 231 394 c 1,8,9
 228 393 228 393 226 386 c 0,10,11
 225 383 225 383 223 358 c 0,12,13
 223 342 223 342 220 327 c 1,14,15
 217 319 217 319 215 297 c 0,16,17
 214 285 214 285 214 280 c 128,-1,18
 214 275 214 275 215 274 c 1,19,20
 216 272 216 272 242 272 c 0,21,22
 267 272 267 272 272 275 c 0,23,24
 278 278 278 278 293 277 c 0,25,26
 309 277 309 277 312 280 c 0,27,28
 317 287 317 287 318 297 c 2,29,30
 321 308 321 308 321 324 c 0,31,32
 321 342 321 342 322 346 c 0,33,34
 325 355 325 355 328 358 c 0,35,36
 334 364 334 364 334 367 c 1,37,38
 335 370 335 370 333 379 c 0,39,40
 332 383 332 383 332 394 c 1,41,42
 333 401 333 401 329 403 c 1,43,44
 325 404 325 404 319 402 c 1,45,46
 313 398 313 398 302 398 c 0,47,48
 292 397 292 397 283 400 c 0,0,1
220 686 m 1,49,50
 226 688 226 688 243 688 c 0,51,52
 257 688 257 688 260 687 c 128,-1,53
 263 686 263 686 268 681 c 1,54,-1
 277 669 l 2,55,56
 280 664 280 664 280 651 c 0,57,58
 280 637 280 637 276 629 c 0,59,60
 272 619 272 619 272 611 c 0,61,62
 272 602 272 602 270 596 c 1,63,64
 267 591 267 591 265 579 c 0,65,66
 262 564 262 564 261 558 c 0,67,68
 258 540 258 540 258 538 c 1,69,70
 257 534 257 534 254 525 c 1,71,72
 251 519 251 519 251 508 c 2,73,74
 249 497 249 497 251 490 c 2,75,76
 251 487 251 487 254 481 c 1,77,78
 256 479 256 479 269 479 c 0,79,80
 279 479 279 479 289 481 c 0,81,82
 299 484 299 484 303 482 c 1,83,84
 311 480 311 480 323 480 c 0,85,86
 337 480 337 480 341 483 c 0,87,88
 346 486 346 486 348 492 c 2,89,90
 350 495 350 495 352 516 c 0,91,92
 353 535 353 535 358 545 c 2,93,94
 366 565 l 2,95,96
 369 572 369 572 369 580 c 0,97,98
 369 586 369 586 373 596 c 0,99,100
 376 606 376 606 378 618 c 0,101,102
 381 633 381 633 379 647 c 1,103,104
 379 665 379 665 383 672 c 0,105,106
 387 678 387 678 402 683 c 0,107,108
 414 688 414 688 419 688 c 256,109,110
 424 688 424 688 433 685 c 0,111,112
 436 684 436 684 442.5 682.5 c 128,-1,113
 449 681 449 681 451 680 c 2,114,115
 456 679 456 679 458 677 c 128,-1,116
 460 675 460 675 465 664 c 0,117,118
 472 649 472 649 472 641 c 0,119,120
 472 632 472 632 469 624 c 0,121,122
 462 611 462 611 462 610 c 256,123,124
 462 609 462 609 460.5 604.5 c 128,-1,125
 459 600 459 600 459 599 c 0,126,127
 459 594 459 594 456 589 c 1,128,129
 454 579 454 579 452 562 c 0,130,131
 452 544 452 544 448 536 c 0,132,133
 447 534 447 534 443 510 c 0,134,135
 442 489 442 489 444 485 c 1,136,137
 449 480 449 480 451 480 c 1,138,139
 454 479 454 479 463 481 c 1,140,141
 469 484 469 484 477 486 c 0,142,143
 480 487 480 487 500 487 c 128,-1,144
 520 487 520 487 522 486 c 0,145,146
 525 485 525 485 531 471 c 0,147,148
 535 460 535 460 535 439 c 128,-1,149
 535 418 535 418 532 413 c 256,150,151
 529 408 529 408 516 402 c 0,152,153
 505 398 505 398 498 398 c 0,154,155
 494 398 494 398 485 399 c 0,156,157
 469 399 469 399 457 403 c 0,158,159
 446 406 446 406 440 405 c 2,160,-1
 428 402 l 2,161,162
 425 401 425 401 422 398 c 1,163,-1
 422 384 l 2,164,165
 423 372 423 372 417 359 c 256,166,167
 411 346 411 346 411 331 c 0,168,169
 411 317 411 317 407 310 c 0,170,171
 406 308 406 308 404 302 c 128,-1,172
 402 296 402 296 401 294 c 1,173,174
 400 285 400 285 401 282 c 1,175,-1
 411 277 l 2,176,177
 419 273 419 273 425 273 c 2,178,179
 430 271 430 271 444 273 c 0,180,181
 457 275 457 275 465 273 c 2,182,183
 473 273 473 273 485 267 c 0,184,185
 496 262 496 262 498 257 c 1,186,187
 501 253 501 253 501 242 c 0,188,189
 501 234 501 234 497 224 c 0,190,191
 494 218 494 218 494 207 c 0,192,193
 494 197 494 197 491 194 c 1,194,195
 490 191 490 191 480 191 c 2,196,197
 461.5 190.5 l 130,-1,198
 443 190 443 190 430 190 c 0,199,200
 388 190 388 190 385 187 c 128,-1,201
 382 184 382 184 382 168 c 0,202,203
 380 149 380 149 379 147 c 256,204,205
 378 145 378 145 376 131 c 0,206,207
 374 118 374 118 372 114 c 0,208,209
 369 108 369 108 369 88 c 0,210,211
 369 67 369 67 367 63 c 0,212,213
 363 57 363 57 360 51 c 1,214,215
 355 45 355 45 355 34 c 0,216,217
 355 22 355 22 352 17 c 2,218,219
 351 11 351 11 344 7 c 0,220,221
 338 3 338 3 305 3 c 128,-1,222
 272 3 272 3 269 6 c 0,223,224
 265 10 265 10 265 15 c 1,225,-1
 268 27 l 1,226,227
 272 35 272 35 272 67 c 0,228,229
 273 98 273 98 276 104 c 1,230,-1
 283 114 l 1,231,232
 287 118 287 118 288 140 c 0,233,234
 290 167 290 167 292 172 c 1,235,236
 293 181 293 181 292 185 c 0,237,238
 291 190 291 190 281 193 c 0,239,240
 274 196 274 196 268 196 c 0,241,242
 261 196 261 196 256 192 c 1,243,244
 248 188 248 188 234 190 c 0,245,246
 221 192 221 192 214 190 c 2,247,248
 208 190 208 190 202 187 c 0,249,250
 198 185 198 185 196 180 c 1,251,252
 196 179 196 179 194.5 174.5 c 128,-1,253
 193 170 193 170 192 169 c 0,254,255
 187 160 187 160 186 152 c 2,256,257
 182 140 182 140 182 116 c 128,-1,258
 182 92 182 92 176 77 c 0,259,260
 169 58 169 58 169 57 c 2,261,262
 167 51 167 51 172 43 c 1,263,264
 175 35 175 35 175 29 c 0,265,266
 175 25 175 25 173 21 c 1,267,-1
 163 11 l 1,268,269
 156 6 156 6 152 5 c 128,-1,270
 148 4 148 4 129 3 c 0,271,272
 103 3 103 3 92 8 c 2,273,274
 80 11 80 11 76 17 c 128,-1,275
 72 23 72 23 72 31 c 0,276,277
 71 39 71 39 74 47 c 0,278,279
 77 53 77 53 81 63 c 0,280,281
 85 75 85 75 85 90 c 0,282,283
 86 103 86 103 89 112 c 1,284,285
 92 115 92 115 96 121 c 1,286,287
 100 125 100 125 101 154 c 0,288,289
 101 182 101 182 103 184 c 0,290,291
 104 185 104 185 102 190 c 1,292,293
 99 193 99 193 90 192 c 0,294,295
 82 192 82 192 72 188 c 0,296,297
 60 184 60 184 55 184 c 0,298,299
 49 184 49 184 41 190 c 1,300,301
 36 195 36 195 27 197 c 0,302,303
 20 198 20 198 15 206 c 1,304,305
 12 213 12 213 8 227 c 0,306,307
 5 237 5 237 5 243 c 0,308,309
 5 246 5 246 10 259 c 1,310,311
 11 264 11 264 18 271 c 0,312,313
 24 276 24 276 28 278 c 1,314,315
 32 279 32 279 49 279 c 0,316,317
 57 279 57 279 67 279 c 0,318,319
 101 277 101 277 105 273 c 128,-1,320
 109 269 109 269 111 269 c 0,321,322
 115 269 115 269 117 273 c 2,323,324
 120 276 120 276 122 288 c 0,325,326
 124 303 124 303 126 306 c 0,327,328
 129 312 129 312 129 325 c 0,329,330
 129 336 129 336 131 342 c 1,331,332
 133 345 133 345 135 356 c 2,333,-1
 139 372 l 1,334,335
 142 378 142 378 142 385 c 2,336,337
 143 388 143 388 140 396 c 0,338,339
 138 400 138 400 131 403 c 0,340,341
 128 404 128 404 120 404 c 0,342,343
 119 404 119 404 115 402.5 c 128,-1,344
 111 401 111 401 109 400 c 1,345,346
 97 397 97 397 89 397 c 0,347,348
 76 397 76 397 71 400 c 2,349,350
 64 402 64 402 60 406 c 0,351,352
 55 410 55 410 53 413 c 1,353,354
 51 419 51 419 51 421 c 128,-1,355
 51 423 51 423 47 433 c 0,356,357
 44 441 44 441 45 446 c 2,358,-1
 50 461 l 2,359,360
 54 471 54 471 61 475 c 0,361,362
 70 480 70 480 96 481 c 0,363,364
 126 483 126 483 140 483 c 0,365,366
 157 484 157 484 161 488 c 1,367,368
 163 492 163 492 163 504 c 0,369,370
 163 518 163 518 166 523 c 1,371,372
 169 535 169 535 169 541 c 1,373,374
 171 554 171 554 173 556 c 1,375,376
 174 559 174 559 176 573 c 1,377,378
 176 582 176 582 179 591 c 1,379,380
 182 596 182 596 182 609 c 0,381,382
 182 619 182 619 186 631 c 0,383,384
 189 638 189 638 189 646 c 0,385,386
 189 652 189 652 191 656 c 1,387,388
 192 660 192 660 204 672 c 0,389,390
 214 682 214 682 220 686 c 1,49,50
EndSplineSet
EndChar

StartChar: uni0024
Encoding: 36 36 7
Width: 581
GlyphClass: 2
Flags: W
LayerCount: 2
Fore
SplineSet
353 295 m 0,0,1
 337 299 337 299 336 299 c 0,2,3
 334 299 334 299 328 296 c 0,4,5
 323 294 323 294 321 290 c 0,6,7
 318 282 318 282 317 274 c 0,8,9
 316 268 316 268 316 260 c 0,10,11
 316 247 316 247 318 226 c 0,12,13
 319 211 319 211 319 196.5 c 128,-1,14
 319 182 319 182 318 176 c 0,15,16
 318 172 318 172 317.5 163.5 c 128,-1,17
 317 155 317 155 317 153 c 128,-1,18
 317 151 317 151 320 136 c 128,-1,19
 323 121 323 121 323 107 c 0,20,21
 325 88 325 88 327 83 c 1,22,23
 330 79 330 79 342 76 c 0,24,25
 350 74 350 74 353 74 c 0,26,27
 357 74 357 74 370 81 c 0,28,29
 387 89 387 89 398 99 c 0,30,31
 410 108 410 108 417 115 c 0,32,33
 423 121 423 121 428 131 c 128,-1,34
 433 141 433 141 435 149 c 2,35,-1
 438 167 l 1,36,37
 438 173 438 173 441 185 c 1,38,39
 444 191 444 191 444 197 c 128,-1,40
 444 203 444 203 439 215 c 0,41,42
 435 228 435 228 428 239 c 0,43,44
 422 248 422 248 416 256 c 0,45,46
 413 260 413 260 404 266 c 1,47,48
 400 267 400 267 391 274 c 0,49,50
 389 276 389 276 380 282 c 0,51,52
 374 285 374 285 371 288 c 1,53,54
 366 291 366 291 353 295 c 0,0,1
253 639 m 1,55,56
 252 639 252 639 248 639.5 c 128,-1,57
 244 640 244 640 242 640 c 1,58,59
 239 641 239 641 235.5 641 c 128,-1,60
 232 641 232 641 231 640 c 2,61,62
 229 640 229 640 221 634 c 1,63,64
 216 627 216 627 210 627 c 1,65,66
 205 625 205 625 193 615 c 0,67,68
 180 604 180 604 174 596 c 0,69,70
 166 586 166 586 166 583 c 1,71,72
 163 574 163 574 160 568 c 0,73,74
 156 558 156 558 156 553 c 128,-1,75
 156 548 156 548 158 534 c 0,76,77
 160 518 160 518 160 512 c 0,78,79
 160 504 160 504 168 495 c 0,80,81
 178 483 178 483 181 475 c 1,82,83
 186 466 186 466 195 460 c 0,84,85
 207 454 207 454 212 454 c 1,86,87
 220 452 220 452 226 446 c 0,88,89
 233 440 233 440 240 438 c 0,90,91
 245 436 245 436 252 438 c 0,92,93
 261 440 261 440 262 441 c 128,-1,94
 263 442 263 442 265 453 c 0,95,96
 267 465 267 465 266 476 c 0,97,98
 265 489 265 489 268 497 c 0,99,100
 271 507 271 507 271 562 c 0,101,102
 271 616 271 616 269 624 c 1,103,104
 266 630 266 630 262 633 c 0,105,106
 259 636 259 636 253 639 c 1,55,56
283 810 m 256,107,108
 287 812 287 812 293 812 c 0,109,110
 296 812 296 812 300 812 c 0,111,112
 312 812 312 812 315 808 c 0,113,114
 317 806 317 806 317 791 c 0,115,116
 315 775 315 775 315 769 c 0,117,118
 314 760 314 760 318 754 c 0,119,120
 325 745 325 745 330 741 c 0,121,122
 339 734 339 734 344 733 c 2,123,124
 349 730 349 730 359 730 c 0,125,126
 367 730 367 730 377 726 c 0,127,128
 386 723 386 723 398 723 c 0,129,130
 408 723 408 723 416 720 c 1,131,132
 422 716 422 716 437 714 c 0,133,134
 451 713 451 713 456 708 c 0,135,136
 462 702 462 702 466 700 c 1,137,138
 471 696 471 696 473 690 c 0,139,140
 474 685 474 685 479 680 c 0,141,142
 483 676 483 676 491 673 c 1,143,144
 499 668 499 668 506 660 c 1,145,146
 510 652 510 652 517 646 c 0,147,148
 523 640 523 640 528 630 c 0,149,150
 533 617 533 617 533 610 c 1,151,152
 535 599 535 599 538 592 c 0,153,154
 543 582 543 582 541 566 c 0,155,156
 541 553 541 553 538 544 c 1,157,158
 535 539 535 539 529 537 c 0,159,160
 527 536 527 536 515 533 c 1,161,162
 498 533 498 533 485 534 c 0,163,164
 461 536 461 536 450 539 c 0,165,166
 436 544 436 544 435 544 c 1,167,168
 431 546 431 546 431 553 c 1,169,170
 428 563 428 563 424 569 c 1,171,172
 424 570 424 570 421 578 c 128,-1,173
 418 586 418 586 417 589 c 0,174,175
 416 591 416 591 413 598 c 128,-1,176
 410 605 410 605 409 608 c 1,177,178
 400 620 400 620 398 622 c 0,179,180
 391 629 391 629 384 632 c 0,181,182
 374 637 374 637 362 640 c 0,183,184
 346 644 346 644 340 644 c 1,185,186
 333 646 333 646 328 642 c 1,187,188
 323 640 323 640 321 635 c 1,189,190
 319 632 319 632 321 623 c 1,191,-1
 321 609 l 1,192,193
 319 601 319 601 319 591 c 0,194,195
 319 578 319 578 323 570 c 1,196,197
 326 561 326 561 325 547 c 0,198,199
 322 529 322 529 321 527 c 0,200,201
 319 523 319 523 319 514 c 0,202,203
 319 507 319 507 320 493 c 0,204,205
 320 485 320 485 320.5 469 c 128,-1,206
 321 453 321 453 321 449 c 0,207,208
 321 432 321 432 324 427 c 256,209,210
 327 422 327 422 335 418 c 0,211,212
 341 415 341 415 350 406 c 128,-1,213
 359 397 359 397 364 397 c 0,214,215
 371 397 371 397 384 392 c 0,216,217
 390 390 390 390 405 383 c 1,218,219
 412 378 412 378 422 376 c 0,220,221
 425 375 425 375 433.5 373 c 128,-1,222
 442 371 442 371 445 370 c 0,223,224
 461 365 461 365 469 360 c 0,225,226
 482 353 482 353 488 343 c 0,227,228
 493 333 493 333 504 327 c 0,229,230
 516 320 516 320 524 309 c 0,231,232
 533 297 533 297 540 284 c 0,233,234
 545 274 545 274 548 260 c 1,235,236
 548 249 548 249 552 235 c 0,237,238
 555 221 555 221 555 201 c 0,239,240
 553 171 553 171 550 157 c 0,241,242
 546 134 546 134 543 129 c 0,243,244
 541 126 541 126 538 120 c 1,245,246
 535 117 535 117 535 108 c 0,247,248
 535 100 535 100 529 90 c 0,249,250
 522 81 522 81 518 79 c 0,251,252
 516 78 516 78 508 64 c 0,253,254
 503 52 503 52 489 39 c 0,255,256
 474 26 474 26 472 25 c 256,257,258
 470 24 470 24 463 24 c 1,259,260
 452 20 452 20 448 18 c 0,261,262
 438 12 438 12 422 11 c 0,263,264
 406 8 406 8 392 2 c 0,265,266
 379 -5 379 -5 365 -5 c 0,267,268
 354 -5 354 -5 342 -10 c 0,269,270
 332 -13 332 -13 328 -19 c 1,271,272
 323 -24 323 -24 324 -38 c 0,273,274
 324 -58 324 -58 325 -65 c 0,275,276
 326 -79 326 -79 324 -84 c 0,277,278
 323 -87 323 -87 318 -92 c 1,279,280
 312 -95 312 -95 300 -95 c 0,281,282
 287 -94 287 -94 283 -91 c 1,283,284
 277 -85 277 -85 275 -81 c 0,285,286
 272 -75 272 -75 272 -54 c 128,-1,287
 272 -33 272 -33 270 -28 c 1,288,289
 265 -20 265 -20 264 -19 c 1,290,291
 263 -19 263 -19 260.5 -17 c 128,-1,292
 258 -15 258 -15 256 -14 c 0,293,294
 252 -12 252 -12 237 -10 c 0,295,296
 229 -10 229 -10 220 -7 c 0,297,298
 218 -6 218 -6 201 -4 c 0,299,300
 187 -4 187 -4 179 0 c 0,301,302
 175 2 175 2 166 5 c 2,303,304
 162 6.5 l 130,-1,305
 158 8 158 8 152.5 10.5 c 128,-1,306
 147 13 147 13 142 16 c 0,307,308
 121 26 121 26 115 31 c 0,309,310
 107 37 107 37 104 37 c 0,311,312
 102 37 102 37 98 39 c 1,313,314
 89 48 89 48 83 56 c 0,315,316
 72 70 72 70 70 77 c 0,317,318
 67 85 67 85 59 90 c 256,319,320
 51 95 51 95 49 105 c 0,321,322
 47 116 47 116 44 120 c 1,323,324
 40 130 40 130 40 137 c 0,325,326
 40 147 40 147 36 154 c 1,327,328
 32 159 32 159 30 166 c 0,329,330
 29 168 29 168 29 171 c 0,331,332
 29 176 29 176 32 185 c 2,333,334
 32 186 32 186 34 194.5 c 128,-1,335
 36 203 36 203 37 205 c 0,336,337
 39 211 39 211 45 216 c 256,338,339
 51 221 51 221 65 224 c 256,340,341
 79 227 79 227 91 226 c 0,342,343
 107 224 107 224 115 221 c 2,344,345
 124 220 124 220 132 214 c 1,346,-1
 141 205 l 2,347,348
 145 200 145 200 146 188 c 0,349,350
 149 169 149 169 149 168 c 1,351,352
 150 166 150 166 153 159 c 128,-1,353
 156 152 156 152 158 148 c 0,354,355
 165 133 165 133 166 127 c 0,356,357
 168 119 168 119 180 110 c 0,358,359
 193 99 193 99 200 95 c 0,360,361
 211 88 211 88 216 87 c 1,362,363
 224 84 224 84 227 80 c 0,364,365
 232 74 232 74 237 73 c 2,366,367
 241 70 241 70 249 70 c 0,368,369
 254 70 254 70 260 73 c 1,370,371
 265 77 265 77 269 82 c 128,-1,372
 273 87 273 87 273 98 c 0,373,374
 273 104 273 104 272 121 c 2,375,-1
 272 169 l 1,376,-1
 272 199 l 1,377,-1
 272 231 l 2,378,379
 271 240 271 240 271 277 c 0,380,381
 271 299 271 299 270 303.5 c 128,-1,382
 269 308 269 308 262 315 c 0,383,384
 257 321 257 321 245 330 c 0,385,386
 237 335 237 335 227 338 c 0,387,388
 224 339 224 339 208 343 c 1,389,390
 199 343 199 343 194 348 c 1,391,392
 188 352 188 352 185 352 c 0,393,394
 180 352 180 352 168 357 c 0,395,396
 153 361 153 361 149 365 c 1,397,398
 143 369 143 369 138 374 c 0,399,400
 135 377 135 377 120 387 c 0,401,402
 116 390 116 390 108.5 395 c 128,-1,403
 101 400 101 400 99 401 c 0,404,405
 87 410 87 410 81 418 c 2,406,407
 71 428 71 428 65 438 c 0,408,409
 58 449 58 449 57 458 c 0,410,411
 55 467 55 467 52 474 c 2,412,413
 52 475 52 475 51 477 c 0,414,415
 47 487 47 487 46 492 c 2,416,417
 42 502 42 502 42 534 c 128,-1,418
 42 566 42 566 45 572 c 1,419,420
 47 580 47 580 49 586 c 0,421,422
 52 596 52 596 59 608 c 0,423,424
 69 628 69 628 71 631 c 0,425,426
 72 633 72 633 76 641 c 0,427,428
 77 644 77 644 78 645 c 2,429,430
 80 652 80 652 94 666 c 0,431,432
 106 678 106 678 120 686 c 0,433,434
 140 700 140 700 141 701 c 0,435,436
 153 708 153 708 156 708 c 1,437,438
 169 711 169 711 174 712 c 0,439,440
 186 716 186 716 194 716 c 0,441,442
 205 716 205 716 214 719 c 0,443,444
 235 725 235 725 238 726 c 0,445,446
 244 727 244 727 256 730 c 1,447,448
 263 733 263 733 267 740 c 0,449,450
 271 748 271 748 272 768 c 0,451,452
 274 790 274 790 277 798 c 2,453,454
 279 808 279 808 283 810 c 256,107,108
EndSplineSet
EndChar

StartChar: uni0025
Encoding: 37 37 8
Width: 860
GlyphClass: 2
Flags: W
LayerCount: 2
Fore
SplineSet
675 289 m 0,0,1
 669 295 669 295 659 295 c 0,2,3
 646 295 646 295 638 291 c 2,4,5
 627 288 627 288 621 284 c 1,6,7
 620 284 620 284 614.5 280 c 128,-1,8
 609 276 609 276 606 275 c 1,9,10
 597 268 597 268 594 263 c 1,11,12
 592 258 592 258 587 253 c 128,-1,13
 582 248 582 248 579 238 c 0,14,15
 575 226 575 226 575 191 c 0,16,17
 575 154 575 154 578 148 c 1,18,19
 580 141 580 141 582 131 c 0,20,21
 583 118 583 118 588 114 c 128,-1,22
 593 110 593 110 595 102 c 0,23,24
 598 94 598 94 606 92 c 1,25,26
 617 87 617 87 622 84 c 0,27,28
 630 78 630 78 636 78 c 1,29,-1
 648 75 l 1,30,-1
 659 75 l 1,31,32
 666 77 666 77 670 80 c 0,33,34
 677 84 677 84 678 90 c 1,35,36
 682 97 682 97 689 100 c 1,37,38
 698 107 698 107 705 115 c 0,39,40
 714 126 714 126 717 136 c 0,41,42
 720 151 720 151 720 157 c 0,43,44
 720 167 720 167 718 175 c 1,45,46
 715 182 715 182 718 188 c 128,-1,47
 721 194 721 194 721 203 c 128,-1,48
 721 212 721 212 718 218 c 1,49,50
 716 225 716 225 714 237 c 0,51,52
 713 252 713 252 708 257 c 0,53,54
 707 258 707 258 698 270 c 0,55,56
 693 278 693 278 688 279 c 1,57,58
 686 280 686 280 681 284 c 128,-1,59
 676 288 676 288 675 289 c 0,0,1
623 360 m 1,60,61
 628 362 628 362 663 362 c 2,62,-1
 696 361 l 1,63,64
 698 358 698 358 699 355 c 1,65,66
 703 350 703 350 715 346 c 0,67,68
 730 341 730 341 735 340 c 0,69,70
 744 338 744 338 747 333 c 1,71,72
 750 330 750 330 756 327 c 1,73,74
 757 327 757 327 762 320 c 0,75,76
 764 317 764 317 770 310 c 0,77,78
 773 307 773 307 774 305 c 1,79,80
 783 298 783 298 786 285 c 0,81,82
 788 273 788 273 796 265 c 0,83,84
 801 261 801 261 802 256 c 128,-1,85
 803 251 803 251 804 226 c 0,86,87
 804 193 804 193 807 188 c 0,88,89
 809 184 809 184 809 176 c 0,90,91
 809 167 809 167 805 164 c 1,92,93
 801 159 801 159 801 145 c 0,94,95
 801 128 801 128 797 117 c 0,96,97
 793 102 793 102 789 96 c 0,98,99
 784 89 784 89 782 82 c 1,100,101
 782 77 782 77 775 72 c 1,102,103
 769 66 769 66 768 58 c 0,104,105
 768 49 768 49 764 45 c 0,106,107
 758 39 758 39 755 38 c 0,108,109
 751 37 751 37 748 31 c 128,-1,110
 745 25 745 25 729 18 c 0,111,112
 718 12 718 12 710.5 11 c 128,-1,113
 703 10 703 10 671 10 c 0,114,115
 627 10 627 10 627 8 c 1,116,117
 626 7 626 7 623 6 c 128,-1,118
 620 5 620 5 618 4 c 1,119,120
 614 3 614 3 605 3 c 1,121,122
 598 6 598 6 593 10.5 c 128,-1,123
 588 15 588 15 579 17 c 0,124,125
 572 19 572 19 566 24 c 0,126,127
 560 30 560 30 548 36 c 1,128,129
 537 44 537 44 534 49 c 0,130,131
 530 56 530 56 528 56 c 0,132,133
 527 56 527 56 517 66 c 0,134,135
 508 75 508 75 507 82 c 1,136,-1
 503 94 l 1,137,138
 500 100 500 100 498 108 c 1,139,140
 498 115 498 115 492 125 c 0,141,142
 488 131 488 131 487 136.5 c 128,-1,143
 486 142 486 142 486 169 c 0,144,145
 486 180 486 180 486 188 c 0,146,147
 486 205 486 205 488 212 c 2,148,149
 488 214 488 214 491 222 c 128,-1,150
 494 230 494 230 495 234 c 0,151,152
 499 250 499 250 499 254 c 128,-1,153
 499 258 499 258 501 266 c 0,154,155
 503 271 503 271 506 276 c 1,156,157
 510 279 510 279 511 291 c 0,158,159
 511 304 511 304 512 306 c 128,-1,160
 513 308 513 308 523 316 c 1,161,162
 535 323 535 323 540 327 c 0,163,164
 548 332 548 332 549 336 c 1,165,166
 551 339 551 339 556 341 c 1,167,168
 557 341 557 341 562 341.5 c 128,-1,169
 567 342 567 342 569 342 c 0,170,171
 576 342 576 342 582 348 c 0,172,173
 587 354 587 354 601 356 c 0,174,175
 620 358 620 358 623 360 c 1,60,61
230 642 m 1,176,177
 228 642 228 642 225.5 642.5 c 130,-1,178
 223 643 l 1,179,-1
 207 641 l 2,180,181
 190 639 190 639 189 638 c 2,182,183
 185 636 185 636 171 623 c 0,184,185
 158 610 158 610 151 597 c 0,186,187
 145 585 145 585 145 556 c 0,188,189
 144 540 144 540 144 517 c 0,190,191
 144 498 144 498 145 487 c 0,192,193
 147 465 147 465 147 464 c 0,194,195
 147 459 147 459 156 452 c 0,196,197
 167 441 167 441 176 436 c 0,198,199
 188 430 188 430 206 431 c 0,200,201
 217 431 217 431 229 434 c 1,202,203
 233 436 233 436 243 439 c 1,204,205
 250 440 250 440 260 450 c 128,-1,206
 270 460 270 460 271 468 c 1,207,208
 274 476 274 476 277 479 c 0,209,210
 281 483 281 483 280 496 c 0,211,212
 279 508 279 508 281 515 c 0,213,214
 282 518 282 518 284 551 c 0,215,216
 284 565 284 565 284 570 c 0,217,218
 284 581 284 581 279 587 c 0,219,220
 273 595 273 595 271 602 c 1,221,222
 271 607 271 607 268 613 c 0,223,224
 266 617 266 617 260 619 c 128,-1,225
 254 621 254 621 244 631 c 0,226,227
 232 641 232 641 230 642 c 1,176,177
201 715 m 1,228,229
 210 715 210 715 216 716 c 0,230,231
 217 716 217 716 235 713 c 1,232,233
 240 711 240 711 255 706 c 0,234,235
 267 702 267 702 276 702 c 128,-1,236
 285 702 285 702 291 700 c 0,237,238
 298 698 298 698 304 690 c 1,239,240
 318 676 318 676 325 670 c 0,241,242
 339 656 339 656 341 653 c 0,243,244
 346 643 346 643 347 639 c 0,245,246
 349 630 349 630 354 624 c 0,247,248
 358 619 358 619 360 608 c 1,249,250
 360 601 360 601 362 597 c 2,251,252
 362 595 362 595 368 587 c 0,253,254
 373 580 373 580 373 575 c 0,255,256
 373 571 373 571 371 563 c 0,257,258
 368 555 368 555 372 547 c 1,259,260
 375 532 375 532 375 523 c 0,261,262
 375 512 375 512 371 498 c 0,263,264
 367 488 367 488 367 480 c 1,265,266
 365 469 365 469 361 465 c 1,267,268
 357 457 357 457 354 444 c 0,269,270
 350 426 350 426 348 424 c 0,271,272
 342 418 342 418 339 417 c 0,273,274
 333 414 333 414 329 410 c 1,275,276
 326 404 326 404 325 401 c 0,277,278
 324 396 324 396 314 388 c 0,279,280
 306 382 306 382 293 375 c 0,281,282
 285 372 285 372 276 365 c 128,-1,283
 267 358 267 358 265 358 c 2,284,285
 261 356 261 356 250 359 c 0,286,287
 239 363 239 363 227 359 c 0,288,289
 213 355 213 355 197 356 c 0,290,291
 177 358 177 358 172 360 c 0,292,293
 163 363 163 363 158 363 c 0,294,295
 151 363 151 363 145 365 c 128,-1,296
 139 367 139 367 136 370 c 0,297,298
 134 372 134 372 120 380 c 0,299,300
 105 389 105 389 97 398 c 0,301,302
 84 411 84 411 82 415 c 0,303,304
 78 422 78 422 77 422 c 0,305,306
 74 422 74 422 69 434 c 0,307,308
 63 448 63 448 63 450 c 0,309,310
 63 456 63 456 60 460 c 1,311,312
 57 468 57 468 57 486 c 128,-1,313
 57 504 57 504 54 513 c 1,314,315
 50 521 50 521 50 534 c 128,-1,316
 50 547 50 547 53 553 c 128,-1,317
 56 559 56 559 56 569 c 128,-1,318
 56 579 56 579 59 585 c 1,319,-1
 63 601 l 2,320,321
 64 607 64 607 69 622 c 0,322,323
 72 632 72 632 81 643 c 0,324,325
 83 645 83 645 103 668 c 0,326,327
 118 684 118 684 131 691 c 0,328,329
 145 699 145 699 146 699 c 0,330,331
 150 699 150 699 157 703 c 0,332,333
 167 708 167 708 173 708 c 1,334,335
 186 711 186 711 189 712 c 0,336,337
 199 714 199 714 201 715 c 1,228,229
606 733 m 2,338,339
 609 734 609 734 636 734 c 0,340,341
 660 734 660 734 663 731 c 0,342,343
 664 730 664 730 664 721 c 128,-1,344
 664 712 664 712 655 697 c 0,345,346
 649 685 649 685 640 674 c 0,347,348
 634 668 634 668 632 662 c 0,349,350
 631 659 631 659 631 646 c 0,351,352
 631 634 631 634 628 630 c 1,353,354
 627 625 627 625 617 620 c 128,-1,355
 607 615 607 615 605 604 c 1,356,357
 602 595 602 595 598 585 c 1,358,359
 592 575 592 575 590 572 c 1,360,361
 590 571 590 571 586 566 c 128,-1,362
 582 561 582 561 581 558 c 2,363,364
 575 549 575 549 569 535 c 0,365,366
 566 524 566 524 554 511 c 0,367,368
 543 500 543 500 535 484 c 0,369,370
 529 472 529 472 526 463 c 1,371,372
 525 456 525 456 519 452 c 0,373,374
 513 447 513 447 513 439 c 128,-1,375
 513 431 513 431 511 425 c 0,376,377
 510 420 510 420 495 405 c 0,378,379
 480 391 480 391 478 381 c 0,380,381
 476 373 476 373 468 362 c 0,382,383
 464 357 464 357 457 350 c 1,384,385
 454 349 454 349 448 334 c 0,386,387
 445 322 445 322 440 312 c 0,388,389
 434 298 434 298 432 294 c 0,390,391
 428 284 428 284 428 283 c 0,392,393
 428 280 428 280 422 275 c 1,394,395
 416 267 416 267 415 265 c 1,396,397
 415 262 415 262 408 255 c 0,398,399
 400 248 400 248 399 243 c 1,400,401
 395 235 395 235 395 230 c 0,402,403
 395 223 395 223 393 217 c 1,404,405
 392 210 392 210 385 206 c 0,406,407
 379 202 379 202 368 185 c 0,408,409
 365 181 365 181 353 161 c 0,410,411
 351 158 351 158 345.5 148 c 128,-1,412
 340 138 340 138 338 133 c 0,413,414
 331 117 331 117 322 106 c 0,415,416
 315 99 315 99 313 95 c 1,417,418
 313 92 313 92 311 84 c 0,419,420
 310 75 310 75 305 73 c 1,421,422
 300 70 300 70 296 60 c 1,423,424
 288 48 288 48 286 45 c 1,425,426
 280 40 280 40 279 35 c 0,427,428
 278 32 278 32 278 22 c 0,429,430
 278 16 278 16 275 7 c 0,431,432
 273 1 273 1 271 1 c 0,433,434
 270 1 270 1 264 -7 c 0,435,436
 257 -16 257 -16 251 -19 c 0,437,438
 245 -23 245 -23 242 -23 c 0,439,440
 240 -23 240 -23 236 -22 c 2,441,442
 233 -22 233 -22 227 -21.5 c 128,-1,443
 221 -21 221 -21 220 -21 c 0,444,445
 215 -22 215 -22 202 -20 c 0,446,447
 194 -18 194 -18 189 -16 c 1,448,449
 186 -14 186 -14 186 -9 c 2,450,451
 185 -6 185 -6 187 5 c 2,452,453
 187 15 187 15 191 21 c 2,454,455
 193 27 193 27 195 27 c 1,456,-1
 201 35 l 1,457,458
 202 38 202 38 205 42 c 2,459,-1
 208 47 l 1,460,461
 212 51 212 51 219 63 c 0,462,463
 226 76 226 76 230 85 c 0,464,465
 233 93 233 93 238 96 c 0,466,467
 240 97 240 97 242.5 99 c 128,-1,468
 245 101 245 101 246 101 c 1,469,470
 248 102 248 102 250 114 c 0,471,472
 251 125 251 125 256 133 c 0,473,474
 262 141 262 141 267 153 c 128,-1,475
 272 165 272 165 278 169 c 1,476,477
 283 174 283 174 284 180 c 1,478,479
 287 186 287 186 291 192 c 0,480,481
 298 201 298 201 299 208 c 1,482,483
 304 222 304 222 307 225 c 1,484,485
 308 227 308 227 312 233 c 128,-1,486
 316 239 316 239 317 241 c 0,487,488
 324 251 324 251 327 256 c 0,489,490
 330 260 330 260 336 269 c 1,491,492
 338 275 338 275 342 279 c 0,493,494
 345 282 345 282 349 290 c 0,495,496
 351 293 351 293 355 304 c 1,497,498
 355 307 355 307 362 321 c 0,499,500
 368 333 368 333 370 335 c 2,501,-1
 376 341 l 1,502,503
 381 343 381 343 385 349 c 0,504,505
 388 354 388 354 388 360 c 128,-1,506
 388 366 388 366 391 369 c 2,507,508
 392 373 392 373 398 375 c 1,509,-1
 406 379 l 1,510,511
 408 381 408 381 410 393 c 1,512,513
 410 404 410 404 417 410 c 0,514,515
 420 413 420 413 426 422 c 0,516,517
 429 428 429 428 431 436 c 1,518,519
 431 441 431 441 441 453 c 2,520,-1
 451 465 l 1,521,522
 451 468 451 468 456 475 c 1,523,524
 460 479 460 479 469 502 c 0,525,526
 473 518 473 518 481 528 c 0,527,528
 488 538 488 538 492 545 c 0,529,530
 495 550 495 550 500 565 c 0,531,532
 502 575 502 575 508 583 c 2,533,-1
 520 599 l 1,534,535
 525 604 525 604 527 614 c 0,536,537
 529 623 529 623 537 626 c 0,538,539
 543 629 543 629 550 644 c 2,540,-1
 556 660 l 1,541,542
 556 661 556 661 562 667 c 128,-1,543
 568 673 568 673 569 682 c 0,544,545
 569 689 569 689 572 695 c 0,546,547
 573 698 573 698 580 702 c 0,548,549
 587 705 587 705 589 715 c 0,550,551
 592 725 592 725 596 728 c 1,552,-1
 606 733 l 2,338,339
EndSplineSet
EndChar

StartChar: uni0026
Encoding: 38 38 9
Width: 758
GlyphClass: 2
Flags: W
LayerCount: 2
Fore
SplineSet
279 342 m 0,0,1
 272 347 272 347 266 347 c 0,2,3
 263 347 263 347 253 343 c 1,4,5
 243 337 243 337 241 335 c 2,6,-1
 235 326 l 1,7,8
 232 319 232 319 225 316 c 128,-1,9
 218 313 218 313 207 298 c 0,10,11
 191 280 191 280 190 279 c 0,12,13
 184 275 184 275 181 265 c 2,14,15
 176 255 176 255 176 246 c 1,16,17
 174 235 174 235 171 231 c 1,18,19
 168 224 168 224 168 218 c 0,20,21
 168 215 168 215 168 211 c 0,22,23
 168 199 168 199 172 185 c 0,24,25
 173 179 173 179 179 164 c 0,26,27
 183 153 183 153 186 148 c 0,28,29
 187 147 187 147 189 143 c 128,-1,30
 191 139 191 139 192 137 c 0,31,32
 194 131 194 131 197 128 c 2,33,34
 199 124 199 124 207 120 c 0,35,36
 213 116 213 116 215 110 c 0,37,38
 217 101 217 101 221 95 c 2,39,40
 224 87 224 87 227 84 c 0,41,42
 228 83 228 83 233 82 c 128,-1,43
 238 81 238 81 241 80 c 0,44,45
 255 78 255 78 288 78 c 0,46,47
 299 78 299 78 306 78 c 0,48,49
 324 78 324 78 336 75 c 0,50,51
 347 73 347 73 353 73 c 0,52,53
 357 73 l 0,54,55
 363 73 363 73 375 79 c 128,-1,56
 387 85 387 85 392 85 c 1,57,58
 400 88 400 88 406 92 c 0,59,60
 407 93 407 93 416 98.5 c 128,-1,61
 425 104 425 104 430 107 c 0,62,63
 446 117 446 117 452 123 c 0,64,65
 457 128 457 128 459 135 c 0,66,67
 461 144 461 144 464 148 c 0,68,69
 467 153 467 153 467 158 c 128,-1,70
 467 163 467 163 456 175 c 0,71,72
 442 189 442 189 439 190 c 0,73,74
 435 191 435 191 432 199 c 1,75,76
 431 205 431 205 420 217 c 0,77,78
 410 228 410 228 399 231 c 1,79,80
 390 235 390 235 380 243 c 0,81,82
 372 249 372 249 368 258 c 1,83,84
 364 264 364 264 361 267 c 1,85,86
 357 268 357 268 351 278 c 0,87,88
 339 293 339 293 338 294 c 0,89,90
 336 296 336 296 330 301 c 128,-1,91
 324 306 324 306 322 308 c 2,92,-1
 312 316 l 1,93,94
 309 316 309 316 299 326 c 128,-1,95
 289 336 289 336 279 342 c 0,0,1
345 669 m 0,96,97
 336 674 336 674 326 674 c 256,98,99
 316 674 316 674 310 672 c 0,100,101
 306 670 306 670 300 666 c 1,102,103
 296 662 296 662 292 662 c 0,104,105
 290 662 290 662 284 660 c 0,106,107
 279 659 279 659 267 649 c 0,108,109
 255 641 255 641 253 636 c 1,110,111
 251 633 251 633 244 623 c 0,112,113
 241 620 241 620 234 604 c 0,114,115
 229 591 229 591 232 580 c 0,116,117
 237 564 237 564 240 557 c 2,118,119
 241 552 241 552 250 535 c 0,120,121
 255 526 255 526 263 521 c 0,122,123
 272 517 272 517 272 515 c 1,124,125
 275 512 275 512 282 509 c 1,126,127
 294 501 294 501 295 501 c 2,128,129
 299 498 299 498 306 498 c 256,130,131
 313 498 313 498 321 500 c 0,132,133
 326 501 326 501 342 510 c 0,134,135
 354 519 354 519 360 528 c 0,136,137
 370 541 370 541 373 543 c 0,138,139
 380 550 380 550 383 556 c 1,140,141
 386 565 386 565 390 570 c 2,142,143
 399 585 l 2,144,145
 403 594 403 594 403 604 c 128,-1,146
 403 614 403 614 399 623 c 0,147,148
 392 635 392 635 380 647 c 0,149,150
 367 661 367 661 359 663 c 0,151,152
 348 667 348 667 345 669 c 0,96,97
287 755 m 1,153,154
 297 757 297 757 323 757 c 0,155,156
 350 757 350 757 372 755 c 0,157,158
 392 753 392 753 413 742 c 0,159,160
 436 731 436 731 445 729 c 0,161,162
 455 727 455 727 468 720 c 0,163,164
 480 712 480 712 486 702 c 0,165,166
 490 694 490 694 493 685 c 0,167,168
 495 676 495 676 500 665 c 0,169,170
 506 649 506 649 509 640 c 1,171,172
 511 628 511 628 516 619 c 1,173,174
 519 610 519 610 518 603 c 1,175,176
 515 597 515 597 513 579 c 0,177,178
 510 560 510 560 505 554 c 0,179,180
 500 546 500 546 500 542 c 0,181,182
 500 537 500 537 497 531 c 2,183,184
 496 525 496 525 484 508 c 0,185,186
 481 504 481 504 475 496 c 128,-1,187
 469 488 469 488 468 487 c 2,188,-1
 458 480 l 1,189,190
 453 478 453 478 450 471 c 1,191,192
 448 463 448 463 446 463 c 1,193,-1
 434 453 l 2,194,195
 425 444 425 444 415 439 c 1,196,197
 408 438 408 438 400 428 c 0,198,199
 393 421 393 421 391 417 c 0,200,201
 390 415 390 415 390 409 c 1,202,203
 392 404 392 404 398 399 c 0,204,205
 400 397 400 397 403.5 394 c 128,-1,206
 407 391 407 391 408 390 c 0,207,208
 413 385 413 385 414 380 c 1,209,210
 417 375 417 375 425 368 c 1,211,212
 434 363 434 363 439 354 c 0,213,214
 444 346 444 346 455 333 c 0,215,216
 465 323 465 323 465 320 c 0,217,218
 465 319 465 319 472 310 c 0,219,220
 480 302 480 302 497 293 c 2,221,-1
 517 283 l 1,222,223
 520 275 l 2,224,225
 522 269 522 269 523 268 c 256,226,227
 524 267 524 267 537 263 c 0,228,229
 549 261 549 261 552 261 c 1,230,231
 558 264 558 264 562 268 c 0,232,233
 567 273 567 273 569 280 c 0,234,235
 571 286 571 286 571 298 c 0,236,237
 571 312 571 312 574 321 c 0,238,239
 577 329 577 329 579 345 c 0,240,241
 579 348 579 348 582 369 c 1,242,243
 584 375 584 375 587 390 c 2,244,245
 590 398 590 398 590 422 c 256,246,247
 590 446 590 446 593 451 c 0,248,249
 595 454 595 454 602 468 c 0,250,251
 606 476 606 476 608 477.5 c 128,-1,252
 610 479 610 479 619 481 c 0,253,254
 629 484 629 484 637 484 c 0,255,256
 642 484 642 484 652 486 c 0,257,258
 660 488 660 488 681 484 c 0,259,260
 701 478 701 478 703 477 c 1,261,262
 707 473 707 473 707 453 c 0,263,264
 707 448 707 448 707 442 c 0,265,266
 707 431 707 431 706 421 c 1,267,268
 703 409 703 409 706 398 c 0,269,270
 708 388 708 388 704 376 c 0,271,272
 702 368 702 368 700 346 c 0,273,274
 700 328 700 328 695 318 c 0,275,276
 689 308 689 308 687 307 c 0,277,278
 684 306 684 306 682 301 c 0,279,280
 680 297 680 297 680 290 c 0,281,282
 680 281 680 281 677 275 c 1,283,284
 674 263 674 263 673 255 c 0,285,286
 672 243 672 243 666 238 c 0,287,288
 660 232 660 232 655 219 c 0,289,290
 648 205 648 205 642 197 c 0,291,292
 636 190 636 190 637 178 c 0,293,294
 639 163 639 163 641 159 c 0,295,296
 643 152 643 152 645 152 c 1,297,298
 647 148.5 l 130,-1,299
 649 145 649 145 651 143 c 0,300,301
 656 136 656 136 662 133 c 1,302,303
 668 131 668 131 674 124 c 0,304,305
 679 117 679 117 680 117 c 256,306,307
 681 117 681 117 694 104 c 0,308,309
 709 89 709 89 710 87 c 1,310,311
 715 82 715 82 718 80 c 1,312,313
 719 80 719 80 723 77.5 c 128,-1,314
 727 75 727 75 729 74 c 0,315,316
 737 69 737 69 746 58 c 0,317,318
 756 46 756 46 756 37 c 256,319,320
 756 28 756 28 754 24 c 0,321,322
 750 18 750 18 747 15 c 0,323,324
 742 10 742 10 727 9 c 0,325,326
 722 8 722 8 714 6 c 128,-1,327
 706 4 706 4 705 4 c 2,328,329
 700 2 700 2 684 2 c 0,330,331
 666 4 666 4 662 6 c 0,332,333
 651 9 651 9 642 10 c 256,334,335
 633 11 633 11 629.5 13 c 128,-1,336
 626 15 626 15 615 26 c 0,337,338
 599 42 599 42 593 45 c 1,339,340
 584 54 584 54 580 60 c 0,341,342
 572 70 572 70 565 74 c 0,343,344
 557 79 557 79 549 79 c 0,345,346
 544 79 544 79 538 76 c 1,347,348
 531 71 531 71 518 60 c 128,-1,349
 505 49 505 49 500 41 c 0,350,351
 496 35 496 35 490 33 c 2,352,353
 485 30 485 30 478 30 c 0,354,355
 470 30 470 30 455 20 c 128,-1,356
 440 10 440 10 430 6 c 0,357,358
 421 3 421 3 418 3 c 0,359,360
 417 3 417 3 407 -1 c 128,-1,361
 397 -5 397 -5 387 -5 c 1,362,363
 384 -6 384 -6 373.5 -8 c 128,-1,364
 363 -10 363 -10 359 -11 c 0,365,366
 344 -16 344 -16 337 -16 c 0,367,368
 331 -16 l 1,369,370
 327 -15 327 -15 280 -13 c 0,371,372
 245 -12 245 -12 228 -8 c 0,373,374
 219 -5 219 -5 207 -3 c 0,375,376
 204 -3 204 -3 184 2 c 0,377,378
 171 6 171 6 161 13 c 0,379,380
 152 20 152 20 150 20 c 1,381,-1
 139 29 l 1,382,-1
 127 37 l 1,383,-1
 117 43 l 1,384,385
 110 50 110 50 104 52 c 1,386,387
 96 57 96 57 92 64 c 1,388,-1
 85 72 l 1,389,390
 83 72 83 72 78 77 c 256,391,392
 73 82 73 82 70 93 c 0,393,394
 69 98 69 98 64 111 c 1,395,396
 58 118 58 118 57 131 c 0,397,398
 55 144 55 144 53 148 c 128,-1,399
 51 152 51 152 49 177 c 0,400,401
 49 185 49 185 48.5 196 c 128,-1,402
 48 206 48 206 48 207 c 0,403,404
 48 218 48 218 49 225 c 0,405,406
 51 238 51 238 54 243 c 0,407,408
 57 249 57 249 62 267 c 0,409,410
 68 287 68 287 71 293 c 0,411,412
 77 302 77 302 79 306 c 1,413,414
 85 312 85 312 85 316 c 0,415,416
 85 317 85 317 86 319 c 0,417,418
 89 326 89 326 91 329 c 0,419,420
 95 338 95 338 111 349 c 0,421,422
 130 363 130 363 131 364 c 2,423,-1
 135 370 l 2,424,425
 138 373 138 373 142 376 c 0,426,427
 143 377 143 377 149.5 381.5 c 128,-1,428
 156 386 156 386 159 388 c 2,429,-1
 176 402 l 2,430,431
 180 405 180 405 186 414 c 1,432,433
 188 422 188 422 188 427 c 0,434,435
 188 433 188 433 186 441 c 0,436,437
 184 447 184 447 178 452 c 0,438,439
 170 458 170 458 170 461 c 1,440,441
 168 465 168 465 163 470 c 128,-1,442
 158 475 158 475 150 489 c 0,443,444
 141 505 141 505 140 509 c 2,445,446
 139 511 139 511 132 531 c 0,447,448
 126 549 126 549 126 553 c 0,449,450
 126 555 126 555 123 567 c 1,451,452
 119 575 119 575 119 603 c 128,-1,453
 119 631 119 631 122 640 c 0,454,455
 123 642 123 642 125 647 c 128,-1,456
 127 652 127 652 127 653 c 1,457,458
 131 661 131 661 137 667 c 0,459,460
 145 677 145 677 147 683 c 0,461,462
 151 693 151 693 159 701 c 0,463,464
 167 711 167 711 171 715 c 0,465,466
 177 721 177 721 180 722 c 0,467,468
 185 723 185 723 194 732 c 1,469,470
 205 740 205 740 207 741 c 0,471,472
 213 744 213 744 232 744 c 0,473,474
 252 744 252 744 258 748 c 1,475,476
 268 752 268 752 272 752 c 0,477,478
 281 752 281 752 287 755 c 1,153,154
EndSplineSet
EndChar

StartChar: uni0027
Encoding: 39 39 10
Width: 741
GlyphClass: 2
Flags: W
LayerCount: 2
Fore
SplineSet
396 727 m 0,0,1
 400 729 400 729 435 730 c 0,2,3
 466 730 466 730 472 728 c 0,4,5
 477 726 477 726 480 718 c 0,6,7
 483 712 483 712 483 696 c 0,8,9
 482 681 482 681 474 668 c 0,10,11
 464 652 464 652 460 648 c 0,12,13
 450 638 450 638 446 632 c 0,14,15
 436 620 436 620 419 603 c 0,16,17
 400 583 400 583 392 573 c 0,18,19
 383 562 383 562 379 560 c 1,20,21
 376 557 376 557 373 550 c 0,22,23
 368 540 368 540 365 537 c 0,24,25
 361 534 361 534 357 526 c 1,26,27
 356 521 356 521 344 511 c 0,28,29
 330 502 330 502 322 499 c 0,30,31
 310 494 310 494 304 494 c 0,32,33
 299 494 299 494 285 500 c 0,34,35
 274 504 274 504 267 512 c 0,36,37
 261 519 261 519 261 533 c 0,38,39
 261 548 261 548 264 553 c 0,40,41
 269 564 269 564 272 567 c 1,42,43
 278 577 278 577 281 583 c 0,44,45
 282 585 282 585 286.5 591 c 128,-1,46
 291 597 291 597 292 599 c 2,47,48
 302 609 302 609 302 613 c 0,49,50
 302 615 302 615 303 618.5 c 128,-1,51
 304 622 304 622 305 624 c 0,52,53
 308 632 308 632 314 640 c 0,54,55
 316 643 316 643 320.5 650.5 c 128,-1,56
 325 658 325 658 326 659 c 0,57,58
 331 664 331 664 337 678 c 0,59,60
 341 690 341 690 346 693 c 1,61,62
 351 700 351 700 352 707 c 1,63,64
 356 716 356 716 359 718 c 0,65,66
 362 721 362 721 376 723 c 1,67,68
 388 723 388 723 396 727 c 0,0,1
EndSplineSet
EndChar

StartChar: uni0028
Encoding: 40 40 11
Width: 368
GlyphClass: 2
Flags: W
LayerCount: 2
Fore
SplineSet
218 784 m 0,0,1
 238 789 238 789 243 789 c 0,2,3
 252 789 252 789 258 787 c 0,4,5
 262 786 262 786 266 780 c 0,6,7
 268 777 268 777 268 753 c 0,8,9
 268 731 268 731 266 725 c 0,10,11
 264 717 264 717 258 711 c 0,12,13
 251 702 251 702 250 698 c 0,14,15
 248 690 248 690 248 685 c 0,16,17
 248 683 248 683 246.5 675.5 c 128,-1,18
 245 668 245 668 245 666 c 0,19,20
 243 653 243 653 238 643 c 1,21,22
 235 634 235 634 233 622 c 128,-1,23
 231 610 231 610 226 600 c 0,24,25
 220 588 220 588 220 584 c 0,26,27
 220 581 220 581 217 572 c 1,28,29
 214 566 214 566 213 535 c 0,30,31
 212 506 212 506 207 493 c 0,32,33
 204 483 204 483 199 475 c 0,34,35
 195 470 195 470 195 458 c 2,36,-1
 192 428 l 2,37,38
 189 402 189 402 189 400 c 1,39,40
 186 391 186 391 189 384 c 0,41,42
 190 381 190 381 191 367.5 c 128,-1,43
 192 354 192 354 193 346 c 0,44,45
 194 329 194 329 194 307 c 2,46,-1
 194 291 l 1,47,-1
 194 259 l 2,48,49
 196 232 196 232 197 229 c 0,50,51
 199 225 199 225 199 215 c 0,52,53
 199 208 199 208 203 194 c 1,54,55
 208 184 208 184 208 169 c 0,56,57
 208 164 208 164 208 158 c 1,58,-1
 209 152 l 1,59,60
 211 147 211 147 213 139 c 0,61,62
 215 129 215 129 217 122 c 1,63,64
 220 116 220 116 220 106 c 0,65,66
 220 97 220 97 222 91 c 0,67,68
 225 84 225 84 227 76 c 128,-1,69
 229 68 229 68 234 58 c 0,70,71
 236 53 236 53 243 32 c 0,72,73
 248 10 248 10 248 3 c 0,74,75
 249 -8 249 -8 255 -25 c 0,76,77
 261 -39 261 -39 261 -44 c 128,-1,78
 261 -49 261 -49 268 -61 c 0,79,80
 274 -72 274 -72 275 -87 c 0,81,82
 275 -103 275 -103 274 -107 c 1,83,84
 270 -115 270 -115 265 -119 c 0,85,86
 261 -123 261 -123 253 -125 c 2,87,88
 251 -126 251 -126 246.5 -126 c 128,-1,89
 242 -126 242 -126 238 -125 c 0,90,91
 230 -123 230 -123 221 -123 c 0,92,93
 210 -123 210 -123 208 -122 c 0,94,95
 203 -120 203 -120 197 -109 c 0,96,97
 190 -98 190 -98 188 -91 c 1,98,99
 185 -85 185 -85 179 -76 c 1,100,101
 173 -70 173 -70 172 -59 c 0,102,103
 170 -45 170 -45 167 -41 c 1,104,-1
 160 -27 l 1,105,106
 159 -20 159 -20 153 -7 c 2,107,-1
 144 11 l 1,108,109
 138 18 138 18 137 29 c 0,110,111
 136 39 136 39 130 52 c 1,112,113
 124 61 124 61 123 76 c 0,114,115
 123 84 123 84 120 96 c 1,116,117
 115 108 115 108 114 115 c 0,118,119
 112 123 112 123 108 132 c 0,120,121
 104 139 104 139 102 152 c 0,122,123
 100 168 100 168 99 170 c 2,124,-1
 94 185 l 1,125,126
 91 191 91 191 89 206 c 0,127,128
 86 227 86 227 83 237 c 0,129,130
 78 256 78 256 78 272 c 0,131,132
 78 293 78 293 77 298 c 0,133,134
 76 301 76 301 73 318 c 0,135,136
 72 324 72 324 72 328 c 0,137,138
 72 334 72 334 76 352 c 0,139,140
 81 372 81 372 81 380 c 0,141,142
 81 386 81 386 79 398 c 0,143,144
 76 408 76 408 79 417 c 1,145,146
 81 429 81 429 81 436 c 0,147,148
 81 444 81 444 83 452 c 0,149,150
 84 456 84 456 87 465 c 1,151,152
 87 470 87 470 95 486 c 0,153,154
 102 503 102 503 103 511 c 0,155,156
 103 517 103 517 106 529 c 1,157,158
 108 531 108 531 112 547 c 0,159,160
 114 555 114 555 117 567 c 1,161,162
 117 577 117 577 121 581 c 1,163,164
 125 588 125 588 127 597 c 0,165,166
 131 611 131 611 133 614 c 1,167,168
 136 623 136 623 138 627 c 2,169,170
 139 632 139 632 144 642 c 1,171,172
 148 646 148 646 150 660 c 0,173,174
 152 672 152 672 155 682 c 0,175,176
 155 683 155 683 156.5 690 c 128,-1,177
 158 697 158 697 159 701 c 0,178,179
 160 710 160 710 168 721 c 0,180,181
 175 732 175 732 175 733 c 0,182,183
 175 736 175 736 178 742 c 0,184,185
 179 744 179 744 193 765 c 0,186,187
 204 779 204 779 218 784 c 0,0,1
EndSplineSet
EndChar

StartChar: uni0029
Encoding: 41 41 12
Width: 347
GlyphClass: 2
Flags: W
LayerCount: 2
Fore
SplineSet
96 777 m 1,0,-1
 102 778 l 1,1,2
 108 778 108 778 113 778 c 0,3,4
 129 778 129 778 133 776 c 1,5,6
 139 775 139 775 142 768 c 1,7,8
 148 760 148 760 150 759 c 1,9,-1
 153 754 l 2,10,11
 156 750 156 750 157 747 c 2,12,13
 163 737 163 737 163 729 c 1,14,15
 165 720 165 720 170 708 c 0,16,17
 176 695 176 695 179 680 c 0,18,19
 181 673 181 673 189 651 c 0,20,21
 197 635 197 635 197 632 c 1,22,-1
 203 617 l 2,23,24
 208 607 208 607 214 597 c 0,25,26
 219 586 219 586 219 573 c 128,-1,27
 219 560 219 560 224 546 c 0,28,29
 229 536 229 536 233 522 c 1,30,31
 238 513 238 513 240 501 c 2,32,-1
 246 477 l 1,33,34
 247 466 247 466 252 450 c 2,35,36
 253 442 253 442 258 430 c 1,37,38
 260 422 260 422 260 407 c 128,-1,39
 260 392 260 392 263 386 c 1,40,41
 265 378 265 378 265 370 c 0,42,43
 265 354 265 354 264 345 c 0,44,45
 263 338 263 338 261 295 c 0,46,47
 261 267 261 267 258 249 c 0,48,49
 256 239 256 239 256 229 c 0,50,51
 257 221 257 221 254 213 c 2,52,-1
 249 203 l 2,53,54
 248 201 248 201 246 183 c 0,55,56
 246 168 246 168 242 162 c 1,57,58
 240 156 240 156 240 150 c 0,59,60
 240 146 240 146 233 129 c 0,61,62
 226 117 226 117 226 103 c 0,63,64
 226 88 226 88 223 81 c 1,65,66
 223 78 223 78 221.5 71 c 128,-1,67
 220 64 220 64 219 61 c 0,68,69
 217 49 217 49 209 34 c 0,70,71
 200 16 200 16 200 5 c 0,72,73
 200 -5 200 -5 193 -19 c 0,74,75
 187 -31 187 -31 182 -36 c 0,76,77
 180 -38 180 -38 176 -49 c 0,78,79
 171 -61 171 -61 170 -67 c 0,80,81
 168 -78 168 -78 165 -82 c 0,82,83
 159 -91 159 -91 156 -94 c 0,84,85
 150 -103 150 -103 149 -108 c 0,86,87
 146 -119 146 -119 142 -122 c 0,88,89
 137 -126 137 -126 125 -127 c 0,90,91
 110 -127 110 -127 98 -123 c 0,92,93
 87 -119 87 -119 84.5 -117.5 c 128,-1,94
 82 -116 82 -116 79 -108 c 0,95,96
 75 -98 75 -98 75 -92 c 128,-1,97
 75 -86 75 -86 79 -74 c 1,98,99
 89 -55 89 -55 90 -53 c 0,100,101
 98 -40 98 -40 99 -34 c 1,102,103
 103 -24 103 -24 105 -18 c 1,104,105
 108 -12 108 -12 108 1 c 0,106,107
 108 15 108 15 111 21 c 2,108,109
 111 22 111 22 112.5 27.5 c 128,-1,110
 114 33 114 33 115 36 c 0,111,112
 116 38 116 38 117.5 43.5 c 128,-1,113
 119 49 119 49 119 51 c 2,114,-1
 120 58 l 2,115,116
 122 65 122 65 123 68 c 0,117,118
 125 78 125 78 130 94 c 0,119,120
 136 111 136 111 138 126 c 0,121,122
 141 139 141 139 143 158 c 0,123,124
 143 171 143 171 147 179 c 1,125,126
 150 188 150 188 149 202 c 0,127,128
 149 206 149 206 148.5 215.5 c 128,-1,129
 148 225 148 225 147 228 c 1,130,131
 147 236 147 236 149 250 c 128,-1,132
 151 264 151 264 154 270 c 1,133,134
 156 278 156 278 156 289 c 128,-1,135
 156 300 156 300 154 312 c 0,136,137
 151 327 151 327 151 328 c 0,138,139
 151 336 151 336 154 342 c 0,140,141
 156 347 156 347 156 367 c 128,-1,142
 156 387 156 387 154 392 c 0,143,144
 150 400 150 400 150 420 c 0,145,146
 148 443 148 443 145 454 c 0,147,148
 143 464 143 464 139 477 c 0,149,150
 136 486 136 486 136 500 c 0,151,152
 136 511 136 511 132 527 c 0,153,154
 129 539 129 539 129 548 c 0,155,156
 129 554 129 554 123 572 c 0,157,158
 118 583 118 583 115 598 c 0,159,160
 113 609 113 609 112 610 c 1,161,-1
 111 616 l 2,162,163
 110 621 110 621 109 625 c 0,164,165
 107 632 107 632 104 647 c 2,166,-1
 97 669 l 1,167,168
 97 671 97 671 95.5 677.5 c 128,-1,169
 94 684 94 684 94 686 c 0,170,171
 94 689 94 689 90 697 c 0,172,173
 87 702 87 702 83 713 c 0,174,175
 78 728 78 728 77 734 c 2,176,177
 73 744 73 744 73 749 c 0,178,179
 73 750 73 750 76 759 c 0,180,181
 78 764 78 764 86 770 c 128,-1,182
 94 776 94 776 96 777 c 1,0,-1
EndSplineSet
EndChar

StartChar: uni002A
Encoding: 42 42 13
Width: 538
GlyphClass: 2
Flags: W
LayerCount: 2
Fore
SplineSet
328 722 m 1,0,1
 334 724 334 724 343 724 c 0,2,3
 353 724 353 724 364 719 c 0,4,5
 376 714 376 714 384 705 c 0,6,7
 392 697 392 697 394 693 c 1,8,9
 396 691 396 691 396 682 c 0,10,11
 396 674 396 674 391 661 c 128,-1,12
 386 648 386 648 371 634 c 0,13,14
 356 619 356 619 354 616 c 1,15,16
 353 611 353 611 344 600 c 0,17,18
 337 592 337 592 337 586 c 128,-1,19
 337 580 337 580 343 578 c 0,20,21
 351 575 351 575 365 576 c 0,22,23
 381 578 381 578 390 581 c 0,24,25
 403 584 403 584 421 584 c 0,26,27
 441 584 441 584 449 579 c 0,28,29
 456 574 456 574 458 569 c 1,30,31
 458 566 458 566 462 554 c 0,32,33
 465 545 465 545 465 536 c 1,34,35
 464 534 464 534 462.5 528.5 c 128,-1,36
 461 523 461 523 461 521 c 1,37,38
 460 519 460 519 458 514.5 c 128,-1,39
 456 510 456 510 455 508 c 0,40,41
 453 503 453 503 446 500 c 1,42,43
 442 497 442 497 428 497 c 0,44,45
 415 497 415 497 411 499 c 0,46,47
 405 501 405 501 398 501 c 0,48,49
 388 501 388 501 380 504 c 1,50,51
 368 506 368 506 365 506 c 0,52,53
 361 506 361 506 351 508 c 0,54,55
 342 511 342 511 338 508 c 1,56,57
 333 506 333 506 333 502 c 0,58,59
 333 497 333 497 339 487 c 0,60,61
 346 473 346 473 347 470 c 0,62,63
 348 465 348 465 356 459 c 0,64,65
 360 456 360 456 368 448 c 1,66,67
 371 444 371 444 380 437 c 0,68,69
 388 431 388 431 391 425 c 1,70,71
 391 424 391 424 392.5 419.5 c 128,-1,72
 394 415 394 415 394 414 c 0,73,74
 394 408 394 408 391 399 c 2,75,76
 390 392 390 392 386 385 c 0,77,78
 384 380 384 380 373 375 c 0,79,80
 363 370 363 370 347 370 c 0,81,82
 332 370 332 370 326 372 c 128,-1,83
 320 374 320 374 317 379 c 0,84,85
 314 385 314 385 313 389 c 0,86,87
 313 390 313 390 312.5 394 c 128,-1,88
 312 398 312 398 312 399 c 1,89,90
 309 405 309 405 305 409 c 1,91,92
 299 417 299 417 295 432 c 2,93,94
 293 436 293 436 290.5 445.5 c 128,-1,95
 288 455 288 455 287 457 c 0,96,97
 283 467 283 467 279 468 c 1,98,99
 274 468 274 468 267 463 c 0,100,101
 260 459 260 459 250 438 c 0,102,103
 242 423 242 423 237 406 c 0,104,105
 235 399 235 399 229 384 c 1,106,107
 223 374 223 374 220 371 c 1,108,109
 217 366 217 366 208 364 c 0,110,111
 204 363 204 363 192 363 c 0,112,113
 182 364 182 364 169 377 c 0,114,115
 155 391 155 391 154 393 c 0,116,117
 152 397 152 397 152 410 c 0,118,119
 152 422 152 422 155 428 c 128,-1,120
 158 434 158 434 167 445 c 0,121,122
 179 459 179 459 186 466 c 0,123,124
 194 474 194 474 197 482 c 0,125,126
 199 488 199 488 203 496 c 128,-1,127
 207 504 207 504 207 508 c 1,128,129
 206 512 206 512 200 512 c 0,130,131
 196 512 196 512 175 510 c 0,132,133
 152 508 152 508 142 505 c 0,134,135
 127 501 127 501 125 502 c 2,136,-1
 113 506 l 2,137,138
 107 508 107 508 103 508 c 0,139,140
 100 508 100 508 94 512 c 1,141,142
 89 514 89 514 87 523 c 0,143,144
 86 527 86 527 80 536 c 1,145,146
 76 540 76 540 76 550 c 0,147,148
 76 561 76 561 82 572 c 0,149,150
 87 585 87 585 92 590 c 0,151,152
 96 594 96 594 105 596 c 2,153,154
 109 598 109 598 119 598 c 1,155,156
 129 596 129 596 134 593 c 1,157,158
 144 589 144 589 153 589 c 0,159,160
 163 589 163 589 167 587 c 0,161,162
 171 584 171 584 180 584 c 128,-1,163
 189 584 189 584 192 587 c 0,164,165
 193 588 193 588 194.5 590.5 c 128,-1,166
 196 593 196 593 196 594 c 0,167,168
 196 601 196 601 195 604 c 0,169,170
 194 608 194 608 189 613 c 0,171,172
 186 615 186 615 182 625 c 1,173,174
 181 631 181 631 177 639 c 1,175,176
 171 645 171 645 168 647 c 0,177,178
 164 649 164 649 160 656 c 1,179,180
 157 665 157 665 154 668 c 0,181,182
 150 674 150 674 148 680 c 1,183,184
 147 686 147 686 149 692 c 0,185,186
 151 699 151 699 163 709 c 0,187,188
 175 720 175 720 181 721 c 0,189,190
 190 723 190 723 195 722 c 0,191,192
 204 720 204 720 211 717 c 0,193,194
 217 714 217 714 224 704 c 1,195,196
 225 700 225 700 236 684 c 0,197,198
 244 675 244 675 247 666 c 1,199,200
 252 660 252 660 254 651 c 0,201,202
 255 647 255 647 260 637 c 1,203,204
 265 630 265 630 267 630 c 1,205,206
 269 629 269 629 273 631 c 1,207,208
 274 632 274 632 277.5 634 c 128,-1,209
 281 636 281 636 283 638 c 2,210,211
 291 643 291 643 293 647 c 0,212,213
 295 653 295 653 295 657 c 128,-1,214
 295 661 295 661 301 671 c 1,215,-1
 306 686 l 1,216,217
 306 690 306 690 308 698 c 1,218,219
 312 704 312 704 313 705 c 0,220,221
 317 709 317 709 319 713 c 0,222,223
 322 719 322 719 328 722 c 1,0,1
EndSplineSet
EndChar

StartChar: uni002B
Encoding: 43 43 14
Width: 610
GlyphClass: 2
Flags: W
LayerCount: 2
Fore
SplineSet
293 580 m 0,0,1
 305 582 305 582 311 582 c 0,2,3
 318 582 318 582 322 579 c 1,4,5
 326 573 326 573 336 570 c 1,6,7
 346 564 346 564 352 553 c 0,8,9
 357 544 357 544 357 541.5 c 128,-1,10
 357 539 357 539 355 533 c 0,11,12
 351 513 351 513 351 512 c 0,13,14
 349 497 349 497 346 491 c 1,15,16
 344 483 344 483 344 477 c 128,-1,17
 344 471 344 471 346 467 c 0,18,19
 349 462 349 462 349 457 c 256,20,21
 349 452 349 452 347 442 c 0,22,23
 345 434 345 434 343 397 c 0,24,25
 343 371 343 371 344 365 c 128,-1,26
 345 359 345 359 350 349 c 1,27,28
 359 336 359 336 364 335 c 0,29,30
 368 334 368 334 413 334 c 0,31,32
 435 335 435 335 443 335 c 0,33,34
 458 335 458 335 464 332 c 1,35,36
 476 329 476 329 477 329 c 0,37,38
 484 327 484 327 495 332 c 0,39,40
 505 335 505 335 528 335 c 0,41,42
 550 334 550 334 559 329 c 0,43,44
 569 324 569 324 571 320 c 0,45,46
 572 318 572 318 572 290 c 0,47,48
 572 264 572 264 569 261 c 0,49,50
 567 258 567 258 552 252 c 0,51,52
 542 247 542 247 532 246.5 c 128,-1,53
 522 246 522 246 472 246 c 0,54,55
 405 246 405 246 399 249 c 0,56,57
 391 253 391 253 384 252 c 1,58,59
 375 252 375 252 365 247 c 1,60,61
 354 238 354 238 353 236 c 1,62,63
 350 233 350 233 350 211 c 0,64,65
 350 190 350 190 352 182 c 256,66,67
 354 174 354 174 353 162 c 0,68,69
 350 144 350 144 350 108 c 0,70,71
 349 85 349 85 349 53 c 0,72,73
 349 42 349 42 344 31 c 0,74,75
 338 20 338 20 334 17 c 0,76,77
 333 16 333 16 326.5 12.5 c 128,-1,78
 320 9 320 9 318 7 c 1,79,80
 309 3 309 3 306 3 c 0,81,82
 304 3 304 3 299 5 c 256,83,84
 294 7 294 7 284 10 c 0,85,86
 275 13 275 13 271 15 c 0,87,88
 264 19 264 19 262 22 c 0,89,90
 261 23 261 23 261 30 c 0,91,92
 261 33 261 33 257 49 c 0,93,94
 254 65 254 65 255 71 c 1,95,96
 255 81 255 81 252 88 c 0,97,98
 249 97 249 97 249 104 c 0,99,100
 249 108 249 108 251 112 c 128,-1,101
 253 116 253 116 253 132 c 0,102,103
 254 142 254 142 254 184 c 0,104,105
 254 200 l 0,106,107
 254 219 254 219 253 225 c 256,108,109
 252 231 252 231 242 241 c 0,110,111
 233 250 233 250 227 252 c 1,112,113
 222 252 l 130,-1,114
 217 252 217 252 209.5 252 c 128,-1,115
 202 252 202 252 194 252 c 0,116,117
 179 252 179 252 165 252 c 0,118,119
 112 252 112 252 100 250 c 0,120,121
 89 248 89 248 84 249 c 1,122,123
 82 250 82 250 74.5 251 c 128,-1,124
 67 252 67 252 65 252 c 0,125,126
 54 254 54 254 49 257 c 1,127,128
 47 257 47 257 41 264 c 1,129,130
 39 270 39 270 39 292 c 0,131,132
 39 299 39 299 39 304 c 0,133,134
 39 315 39 315 41 319 c 0,135,136
 43 324 43 324 50 327 c 1,137,138
 58 332 58 332 67 331 c 0,139,140
 83 331 83 331 89 333 c 1,141,142
 104 335 104 335 113 334 c 0,143,144
 123 334 123 334 145 332 c 0,145,146
 156 330 156 330 169 330 c 0,147,148
 174 330 174 330 181 333 c 1,149,150
 190 335 190 335 199 334 c 1,151,152
 207 331 207 331 228 333 c 128,-1,153
 249 335 249 335 251 337 c 0,154,155
 254 340 254 340 255 347 c 0,156,157
 255 351 255 351 258 360 c 2,158,159
 258 361 258 361 259 365.5 c 128,-1,160
 260 370 260 370 261 371 c 1,161,162
 262 374 262 374 260 387 c 0,163,164
 257 397 257 397 258 404 c 0,165,166
 260 414 260 414 260 481 c 0,167,168
 262 551 262 551 267 562 c 0,169,170
 273 573 273 573 276 575 c 1,171,172
 279 576 279 576 293 580 c 0,0,1
EndSplineSet
EndChar

StartChar: uni002C
Encoding: 44 44 15
Width: 251
GlyphClass: 2
Flags: W
LayerCount: 2
Fore
SplineSet
163 127 m 2,0,1
 168 128 168 128 177 128 c 1,2,3
 186 125 186 125 191 121 c 2,4,5
 202 115 202 115 204 111 c 0,6,7
 207 105 207 105 207 92 c 0,8,9
 207 78 207 78 203 70 c 0,10,11
 200 63 200 63 194 57 c 1,12,13
 188 53 188 53 187 46 c 0,14,15
 187 45 187 45 185.5 39 c 128,-1,16
 184 33 184 33 183 30 c 2,17,-1
 178 15 l 1,18,19
 178 11 178 11 172 3 c 1,20,21
 167 -2 167 -2 164 -15 c 0,22,23
 162 -28 162 -28 159 -31 c 128,-1,24
 156 -34 156 -34 155 -47 c 128,-1,25
 154 -60 154 -60 139 -85 c 2,26,-1
 119 -120 l 2,27,28
 111 -132 111 -132 108 -133 c 2,29,30
 105 -136 105 -136 96 -136 c 0,31,32
 89 -136 89 -136 73 -132 c 128,-1,33
 57 -128 57 -128 54 -127 c 0,34,35
 50 -126 50 -126 47 -114 c 0,36,37
 46 -110 46 -110 45 -104.5 c 128,-1,38
 44 -99 44 -99 44 -98 c 0,39,40
 44 -92 44 -92 47 -81 c 0,41,42
 49 -68 49 -68 51 -64 c 0,43,44
 54 -57 54 -57 55 -43 c 0,45,46
 57 -25 57 -25 61 -18 c 0,47,48
 65 -9 65 -9 65 3 c 0,49,50
 65 14 65 14 69 32 c 2,51,52
 70 46 70 46 74 53 c 1,53,54
 74 54 74 54 75 59 c 128,-1,55
 76 64 76 64 76 68 c 1,56,57
 78 76 78 76 80 83 c 0,58,59
 81 86 81 86 94 99 c 0,60,61
 106 110 106 110 122 116 c 0,62,63
 137 121 137 121 147 123 c 2,64,-1
 163 127 l 2,0,1
EndSplineSet
EndChar

StartChar: uni002D
Encoding: 45 45 16
Width: 283
GlyphClass: 2
Flags: W
LayerCount: 2
Fore
SplineSet
64 325 m 0,0,1
 72 327 72 327 82 327 c 0,2,3
 94 327 94 327 101 323 c 1,4,5
 110 320 110 320 119 320 c 1,6,7
 124 321 124 321 151 321 c 0,8,9
 163 321 l 0,10,11
 177 321 177 321 187 323 c 0,12,13
 202 325 202 325 207 324 c 0,14,15
 215 322 215 322 223 322 c 0,16,17
 232 322 232 322 236 319 c 1,18,19
 241 317 241 317 243 311 c 0,20,21
 245 304 245 304 247 288 c 0,22,23
 249 270 249 270 249 263 c 0,24,25
 249 254 249 254 245 249 c 0,26,27
 242 244 242 244 237 241 c 1,28,29
 228 238 228 238 222 237 c 0,30,31
 206 234 206 234 205 234 c 2,32,33
 199 232 199 232 193 232 c 128,-1,34
 187 232 187 232 181 230 c 1,35,36
 178 228 178 228 174 228 c 128,-1,37
 170 228 170 228 164 230 c 2,38,39
 162 230 162 230 152.5 231.5 c 128,-1,40
 143 233 143 233 138 234 c 0,41,42
 130 235 130 235 127 235 c 0,43,44
 119 235 119 235 104 231 c 0,45,46
 90 228 90 228 85 228 c 128,-1,47
 80 228 80 228 67 231 c 0,48,49
 49 235 49 235 45 239 c 1,50,51
 40 242 40 242 38 254 c 0,52,53
 36 265 36 265 36 274 c 0,54,55
 36 284 l 0,56,57
 38 304 38 304 40 306 c 2,58,59
 41 309 41 309 49 317 c 1,60,61
 58 323 58 323 64 325 c 0,0,1
EndSplineSet
EndChar

StartChar: uni002E
Encoding: 46 46 17
Width: 344
GlyphClass: 2
Flags: W
LayerCount: 2
Fore
SplineSet
157 141 m 0,0,1
 177 142 177 142 198 142 c 2,2,3
 199 142 l 2,4,5
 203 142 203 142 213 137 c 0,6,7
 221 133 221 133 223.5 130 c 128,-1,8
 226 127 226 127 231 113 c 0,9,10
 238 95 238 95 238 66 c 0,11,12
 238 36 238 36 232 26 c 0,13,14
 226 15 226 15 223 13 c 0,15,16
 217 10 217 10 176 10 c 0,17,18
 154 9 154 9 147 9 c 0,19,20
 132 9 132 9 123 14 c 0,21,22
 112 19 112 19 109 24 c 1,23,24
 107 30 107 30 107 50 c 128,-1,25
 107 70 107 70 104 78 c 0,26,27
 102 85 102 85 100 95 c 1,28,29
 100 106 100 106 102 114 c 0,30,31
 104 121 104 121 109 128 c 0,32,33
 114 136 114 136 118 138 c 1,34,35
 121 141 121 141 157 141 c 0,0,1
EndSplineSet
EndChar

StartChar: uni002F
Encoding: 47 47 18
Width: 322
GlyphClass: 2
Flags: W
LayerCount: 2
Fore
SplineSet
287 834 m 2,0,1
 293 836 293 836 307 836 c 0,2,3
 313 836 313 836 322 833 c 0,4,5
 329 831 329 831 333 824 c 0,6,7
 336 818 336 818 336 804 c 0,8,9
 336 791 336 791 332 783 c 0,10,11
 329 777 329 777 329 769 c 0,12,13
 329 765 329 765 325 757 c 0,14,15
 323 754 323 754 314 736 c 0,16,17
 306 721 306 721 306 706 c 0,18,19
 306 692 306 692 304 682 c 1,20,21
 301 675 301 675 299 666 c 0,22,23
 297 659 297 659 294 657 c 128,-1,24
 291 655 291 655 285 644 c 0,25,26
 280 632 280 632 280 628 c 0,27,28
 280 626 280 626 278.5 620.5 c 128,-1,29
 277 615 277 615 277 614 c 2,30,31
 273 602 273 602 273 595 c 0,32,33
 273 587 273 587 268 570 c 0,34,35
 267 568 267 568 263 558 c 128,-1,36
 259 548 259 548 258 544 c 0,37,38
 255 535 255 535 251 525 c 2,39,40
 249 516 249 516 246 509 c 0,41,42
 245 505 245 505 238 488 c 0,43,44
 233 475 233 475 231 466 c 0,45,46
 230 457 230 457 221 438 c 256,47,48
 212 419 212 419 210 410 c 1,49,50
 210 402 210 402 206 398 c 2,51,52
 205 396 205 396 199 388 c 0,53,54
 194 382 194 382 193 366 c 0,55,56
 193 354 193 354 190 342 c 0,57,58
 188 334 188 334 188 333 c 0,59,60
 188 331 188 331 183 329 c 1,61,62
 178 326 178 326 174 316 c 0,63,64
 173 313 173 313 171 304.5 c 128,-1,65
 169 296 169 296 168 293 c 0,66,67
 166 282 166 282 161 275 c 256,68,69
 156 268 156 268 155 249 c 0,70,71
 154 229 154 229 151 227 c 2,72,-1
 145 221 l 2,73,74
 142 218 142 218 142 211 c 0,75,76
 142 203 142 203 140 199 c 1,77,78
 140 194 140 194 132 189 c 256,79,80
 124 184 124 184 122 176 c 2,81,82
 121 174 121 174 119 169 c 128,-1,83
 117 164 117 164 116 162 c 1,84,-1
 113 147 l 2,85,86
 113 143 113 143 110 134 c 1,87,88
 107 129 107 129 105 118 c 2,89,90
 102 110 102 110 102 101 c 0,91,92
 102 94 102 94 97 86 c 0,93,94
 93 79 93 79 93 70 c 0,95,96
 93 60 93 60 86 47 c 0,97,98
 79 31 79 31 79 28 c 1,99,100
 77 21 77 21 72 18 c 1,101,102
 66 12 66 12 65 4 c 0,103,104
 63 -6 63 -6 63 -9 c 1,105,106
 61 -13 61 -13 55 -16 c 128,-1,107
 49 -19 49 -19 45 -25 c 0,108,109
 42 -29 42 -29 36 -31 c 1,110,111
 35 -31 35 -31 33 -31 c 0,112,113
 30 -31 30 -31 26 -29 c 0,114,115
 17 -26 17 -26 11 -26 c 0,116,117
 3 -25 3 -25 -2 -20 c 256,118,119
 -7 -15 -7 -15 -9 -8 c 0,120,121
 -10 -3 -10 -3 -10 -1 c 0,122,123
 -10 2 -10 2 -7 9 c 0,124,125
 -4 19 -4 19 -4 25 c 0,126,127
 -4 27 -4 27 -5 31.5 c 128,-1,128
 -6 36 -6 36 -7 37 c 1,129,130
 -7 44 -7 44 -2 50 c 1,131,132
 1 55 1 55 5 67 c 1,133,134
 5 69 5 69 11 87 c 1,135,136
 17 97 17 97 17 106 c 1,137,138
 19 116 19 116 22 122 c 0,139,140
 26 128 26 128 26 140 c 0,141,142
 27 152 27 152 34 159 c 128,-1,143
 41 166 41 166 41 168 c 128,-1,144
 41 170 41 170 46 177 c 0,145,146
 52 185 52 185 52 193 c 1,147,148
 54 203 54 203 55 204 c 1,149,150
 57 209 57 209 59 220 c 1,151,152
 59 232 59 232 63 238 c 1,153,154
 67 242 67 242 69 246 c 2,155,156
 71 248 71 248 73 259 c 1,157,158
 73 268 73 268 77 272 c 1,159,160
 80 280 80 280 81 290 c 0,161,162
 83 302 83 302 90 307 c 128,-1,163
 97 312 97 312 98 314 c 1,164,165
 98 315 98 315 100 333 c 0,166,167
 102 353 102 353 104 356 c 0,168,169
 107 360 107 360 107 366 c 0,170,171
 107 370 107 370 109 376 c 0,172,173
 110 379 110 379 115 384 c 1,174,175
 120 387 120 387 121 406 c 0,176,177
 122 426 122 426 131 444 c 0,178,179
 141 465 141 465 144 474 c 0,180,181
 149 492 149 492 149 495 c 0,182,183
 150 503 150 503 156 510 c 0,184,185
 163 517 163 517 165 523 c 1,186,187
 169 531 169 531 169 547 c 0,188,189
 171 566 171 566 173 569 c 0,190,191
 178 578 178 578 179 580 c 0,192,193
 183 588 183 588 183 592 c 0,194,195
 183 594 183 594 183.5 598 c 128,-1,196
 184 602 184 602 184 603 c 1,197,198
 187 611 187 611 190 613 c 1,199,200
 196 621 196 621 197 628 c 0,201,202
 199 638 199 638 202 641 c 0,203,204
 206 647 206 647 206 650 c 1,205,206
 208 654 208 654 213 660 c 0,207,208
 218 665 218 665 218 670 c 128,-1,209
 218 675 218 675 220 683 c 0,210,211
 222 692 222 692 225 695 c 0,212,213
 229 698 229 698 233 710 c 128,-1,214
 237 722 237 722 236 729 c 0,215,216
 235 734 235 734 235 742 c 0,217,218
 235 746 235 746 240 751 c 128,-1,219
 245 756 245 756 247 760 c 0,220,221
 249 767 249 767 248 775 c 0,222,223
 247 788 247 788 250 791 c 1,224,225
 252 795 252 795 252 802 c 128,-1,226
 252 809 252 809 254 813 c 1,227,228
 255 817 255 817 261 821 c 2,229,-1
 272 828 l 1,230,231
 275 832 275 832 287 834 c 2,0,1
EndSplineSet
EndChar

StartChar: uni0030
Encoding: 48 48 19
Width: 625
GlyphClass: 2
Flags: W
LayerCount: 2
Fore
SplineSet
322 663 m 0,0,1
 312 667 312 667 301 667 c 2,2,3
 294 668 294 668 283 668 c 1,4,5
 281 667 281 667 273 665.5 c 128,-1,6
 265 664 265 664 262 663 c 0,7,8
 243 656 243 656 239 653 c 0,9,10
 227 643 227 643 226 642 c 0,11,12
 223 638 223 638 216 633 c 0,13,14
 207 626 207 626 202 616 c 0,15,16
 194 604 194 604 187 590 c 256,17,18
 180 576 180 576 179 561 c 0,19,20
 177 549 177 549 175 542 c 0,21,22
 172 534 172 534 172 514 c 0,23,24
 172 491 172 491 166 474 c 0,25,26
 160 460 160 460 160 448 c 2,27,-1
 160 391 l 1,28,-1
 160 334 l 1,29,-1
 160 306 l 2,30,31
 162 281 162 281 163 279 c 0,32,33
 165 274 165 274 168 265 c 0,34,35
 169 263 169 263 174 255 c 0,36,37
 176 252 176 252 177 250 c 0,38,39
 183 239 183 239 182 231 c 2,40,-1
 182 215 l 2,41,42
 182 206 182 206 185 195 c 0,43,44
 186 191 186 191 189 180 c 128,-1,45
 192 169 192 169 192 168 c 1,46,47
 197 156 197 156 203 148 c 0,48,49
 210 138 210 138 211 135 c 0,50,51
 212 131 212 131 228 115 c 0,52,53
 242 100 242 100 250 99 c 0,54,55
 262 96 262 96 266 94 c 0,56,57
 274 91 274 91 290 91 c 1,58,59
 304 93 304 93 315 91 c 0,60,61
 320 90 320 90 322 90 c 0,62,63
 327 90 327 90 332 94 c 1,64,65
 341 97 341 97 360 100 c 0,66,67
 380 104 380 104 383 105 c 1,68,69
 386 108 386 108 387 115 c 0,70,71
 388 120 388 120 394 126 c 1,72,73
 403 132 403 132 406 136 c 2,74,75
 415 145 415 145 420 154 c 0,76,77
 429 170 429 170 430 173 c 0,78,79
 434 182 434 182 436 192 c 0,80,81
 441 209 441 209 444 214 c 0,82,83
 449 224 449 224 449 244 c 128,-1,84
 449 264 449 264 453 273 c 0,85,86
 456 281 456 281 454 292 c 0,87,88
 453 302 453 302 454 311 c 0,89,90
 456 321 456 321 456 365 c 0,91,92
 456 410 456 410 454 418 c 128,-1,93
 452 426 452 426 452 450 c 0,94,95
 452 475 452 475 449 482 c 0,96,97
 446 488 446 488 446 498 c 0,98,99
 446 506 446 506 442 522 c 0,100,101
 439 534 439 534 439 547 c 0,102,103
 439 559 439 559 435 568 c 0,104,105
 432 574 432 574 429 584 c 128,-1,106
 426 594 426 594 425 595 c 2,107,108
 423 599 423 599 419 603 c 0,109,110
 417 606 417 606 402 621 c 0,111,112
 390 634 390 634 388 639 c 0,113,114
 387 641 387 641 383 645 c 1,115,116
 378 647 378 647 365 649 c 0,117,118
 349 650 349 650 340 655 c 0,119,120
 330 661 330 661 322 663 c 0,0,1
252 754 m 0,121,122
 259 757 259 757 274 757 c 0,123,124
 288 757 288 757 295 754 c 0,125,126
 304 751 304 751 339 751 c 0,127,128
 367 750 367 750 373 749 c 128,-1,129
 379 748 379 748 388 743 c 0,130,131
 398 737 398 737 407 737 c 0,132,133
 409 737 409 737 415.5 735.5 c 128,-1,134
 422 734 422 734 424 734 c 1,135,136
 440 730 440 730 442 728 c 0,137,138
 448 724 448 724 458 719 c 1,139,140
 469 710 469 710 471 707 c 256,141,142
 473 704 473 704 485 694 c 1,143,144
 495 688 495 688 499 680 c 1,145,146
 500 675 500 675 510 663 c 0,147,148
 512 660 512 660 515 655.5 c 128,-1,149
 518 651 518 651 519 650 c 1,150,151
 521 649 521 649 523 640 c 0,152,153
 525 630 525 630 525 624 c 0,154,155
 525 616 525 616 528 612 c 0,156,157
 530 608 530 608 534 604 c 1,158,159
 538 602 538 602 538 595 c 1,160,161
 540 589 540 589 546 583 c 0,162,163
 550 578 550 578 551 573.5 c 128,-1,164
 552 569 552 569 553 546 c 0,165,166
 553 514 553 514 555 512 c 0,167,168
 556 511 556 511 562 495 c 0,169,170
 566 484 566 484 566.5 476 c 128,-1,171
 567 468 567 468 567 428 c 0,172,173
 570 348 570 348 570 344 c 0,174,175
 571 320 571 320 571 309 c 0,176,177
 571 303 571 303 571 300 c 0,178,179
 571 290 571 290 569 268 c 0,180,181
 567 249 567 249 563 241 c 1,182,183
 560 232 560 232 560 221 c 0,184,185
 560 207 560 207 557 201 c 1,186,187
 557 199 557 199 555 189.5 c 128,-1,188
 553 180 553 180 552 174 c 0,189,190
 549 155 549 155 545 147 c 1,191,192
 539 139 539 139 539 136 c 256,193,194
 539 133 539 133 534 125 c 0,195,196
 531 121 531 121 523 113 c 0,197,198
 518 109 518 109 512 96 c 0,199,200
 508 86 508 86 500 76 c 0,201,202
 486 62 486 62 479 56 c 0,203,204
 477 54 477 54 472 50 c 128,-1,205
 467 46 467 46 463.5 43 c 128,-1,206
 460 40 460 40 458 38 c 0,207,208
 450 30 450 30 449 30 c 0,209,210
 447 30 447 30 439 25 c 1,211,212
 436 22 436 22 422 17 c 1,213,214
 413 16 413 16 400 8 c 1,215,216
 387 3 387 3 377 3 c 0,217,218
 374 3 374 3 356 0 c 0,219,220
 343 -2 343 -2 327 -4 c 0,221,222
 321 -4 321 -4 317 -4 c 0,223,224
 308 -4 308 -4 298 -1 c 0,225,226
 286 3 286 3 267 3 c 0,227,228
 245 3 245 3 236 7 c 0,229,230
 224 11 224 11 220 11 c 128,-1,231
 216 11 216 11 208 13 c 0,232,233
 202 15 202 15 195 22 c 0,234,235
 190 28 190 28 175 34 c 0,236,237
 158 41 158 41 153 44 c 0,238,239
 145 48 145 48 141 52 c 128,-1,240
 137 56 137 56 134 62 c 1,241,242
 130 67 130 67 125 71 c 0,243,244
 119 75 119 75 114 86 c 0,245,246
 108 98 108 98 103 101 c 256,247,248
 98 104 98 104 92 120 c 0,249,250
 85 134 85 134 81 144 c 0,251,252
 77 153 77 153 75 164 c 0,253,254
 73 173 73 173 71 183 c 1,255,256
 68 191 68 191 68 197 c 0,257,258
 68 205 68 205 65 215 c 0,259,260
 61 226 61 226 61 247 c 0,261,262
 61 266 61 266 59 276 c 0,263,264
 59 279 59 279 57.5 289.5 c 128,-1,265
 56 300 56 300 56 303 c 0,266,267
 54 321 54 321 54 339 c 0,268,269
 55 355 55 355 52 365 c 0,270,271
 50 370 50 370 50 392 c 0,272,273
 51 403 51 403 51 419 c 0,274,275
 51 430 51 430 50 436 c 0,276,277
 49 441 49 441 49 443 c 0,278,279
 49 448 49 448 52 453 c 1,280,281
 55 461 55 461 54 482 c 0,282,283
 52 508 52 508 52 512 c 0,284,285
 52 517 52 517 54 531 c 0,286,287
 55 542 55 542 62 557 c 0,288,289
 68 571 68 571 68 575 c 0,290,291
 68 578 68 578 74 598 c 0,292,293
 81 618 81 618 82 620 c 256,294,295
 83 622 83 622 86 627 c 128,-1,296
 89 632 89 632 90 634 c 0,297,298
 95 645 95 645 97 651 c 1,299,300
 97 658 97 658 106 665 c 1,301,302
 114 675 114 675 117 681 c 0,303,304
 122 691 122 691 124 693 c 0,305,306
 128 698 128 698 137 701 c 1,307,308
 148 703 148 703 152 710 c 0,309,310
 157 717 157 717 165 722 c 2,311,-1
 177 731 l 2,312,313
 180 734 180 734 194 738 c 0,314,315
 201 740 201 740 217 743 c 1,316,317
 228 743 228 743 236 747 c 0,318,319
 242 750 242 750 252 754 c 0,121,122
EndSplineSet
EndChar

StartChar: uni0031
Encoding: 49 49 20
Width: 567
GlyphClass: 2
Flags: W
LayerCount: 2
Fore
SplineSet
307 730 m 0,0,1
 321 737 321 737 326 737 c 0,2,3
 328 737 328 737 337 734 c 1,4,5
 342 731 342 731 342 730 c 0,6,7
 342 728 342 728 351 717 c 0,8,9
 360 707 360 707 360 697 c 0,10,11
 360 694 360 694 360 686 c 2,12,-1
 360 659 l 1,13,-1
 360 634 l 2,14,15
 361 622 361 622 364 608 c 1,16,17
 366 604 366 604 368 579 c 0,18,19
 368 566 368 566 371 548 c 1,20,21
 374 540 374 540 371 530 c 0,22,23
 368 521 368 521 368 443 c 0,24,25
 367 364 367 364 364 357 c 0,26,27
 361 346 361 346 362 326 c 0,28,29
 362 307 362 307 365 295 c 0,30,31
 366 288 366 288 368 222 c 0,32,33
 370 157 370 157 372 150 c 0,34,35
 374 145 374 145 374 142 c 128,-1,36
 374 139 374 139 372 132 c 1,37,38
 368 124 368 124 368 109 c 0,39,40
 368 102 368 102 369 82 c 0,41,42
 369 43 369 43 372 34 c 1,43,44
 375 29 375 29 375 25 c 0,45,46
 375 23 375 23 374 21 c 0,47,48
 372 15 372 15 365 10 c 2,49,50
 358 3 358 3 350 0 c 1,51,52
 343 -4 343 -4 324 -4 c 0,53,54
 308 -4 308 -4 299 -1 c 1,55,56
 291 3 291 3 286 3 c 0,57,58
 280 3 280 3 270 7 c 0,59,60
 260 12 260 12 259 16 c 1,61,62
 257 20 257 20 257 32 c 128,-1,63
 257 44 257 44 254 53 c 0,64,65
 251 63 251 63 251 78 c 0,66,67
 251 97 251 97 252 101 c 0,68,69
 254 109 254 109 252 124 c 0,70,71
 251 132 251 132 248 147 c 128,-1,72
 245 162 245 162 245 166 c 128,-1,73
 245 170 245 170 248 182 c 0,74,75
 251 190 251 190 251 262 c 0,76,77
 251 335 251 335 248 344 c 0,78,79
 246 352 246 352 246 355 c 1,80,81
 248 359 248 359 252 363 c 0,82,83
 256 368 256 368 255 376 c 0,84,85
 254 381 254 381 254 393 c 2,86,-1
 254 410 l 1,87,88
 255 417 255 417 250 423 c 0,89,90
 245 430 245 430 245 435 c 1,91,-1
 248 447 l 2,92,93
 250 456 250 456 252 476 c 0,94,95
 252 480 252 480 252 490 c 128,-1,96
 252 500 252 500 252 505 c 0,97,98
 252 513 252 513 252 518 c 0,99,100
 252 535 252 535 250 547 c 1,101,102
 247 554 247 554 247 561 c 0,103,104
 247 567 247 567 250 570 c 1,105,106
 252 576 252 576 252 579 c 0,107,108
 252 584 252 584 250 586 c 128,-1,109
 248 588 248 588 246 588 c 128,-1,110
 244 588 244 588 238 584 c 128,-1,111
 232 580 232 580 225 578 c 1,112,113
 220 578 220 578 209 569 c 0,114,115
 200 560 200 560 191 557 c 0,116,117
 181 555 181 555 180 555 c 0,118,119
 178 555 178 555 174 548 c 0,120,121
 168 540 168 540 164 539 c 2,122,123
 161 536 161 536 148 534 c 0,124,125
 135 533 135 533 127 534 c 0,126,127
 116 536 116 536 115 540 c 1,128,129
 112 544 112 544 112 578 c 0,130,131
 113 612 113 612 117 616 c 128,-1,132
 121 620 121 620 133 628 c 0,133,134
 146 639 146 639 148 642 c 0,135,136
 151 647 151 647 167 656 c 0,137,138
 172 658 172 658 178 662 c 2,139,-1
 185 666 l 1,140,141
 187 669 187 669 202 677 c 0,142,143
 219 686 219 686 222 692 c 0,144,145
 226 699 226 699 241 706 c 0,146,147
 251 712 251 712 262 716 c 0,148,149
 274 719 274 719 276 720 c 1,150,-1
 288 723 l 1,151,152
 295 723 295 723 307 730 c 0,0,1
EndSplineSet
EndChar

StartChar: uni0032
Encoding: 50 50 21
Width: 616
GlyphClass: 2
Flags: W
LayerCount: 2
Fore
SplineSet
316 753 m 1,0,1
 319 756 319 756 324 756 c 256,2,3
 329 756 329 756 345 749 c 0,4,5
 357 744 357 744 360.5 744 c 128,-1,6
 364 744 364 744 372 747 c 0,7,8
 384 751 384 751 392 750 c 0,9,10
 400 748 400 748 407 745 c 1,11,12
 412 740 412 740 428 734 c 0,13,14
 443 729 443 729 455 721 c 1,15,16
 470 714 470 714 479 711 c 0,17,18
 488 707 488 707 489.5 705 c 128,-1,19
 491 703 491 703 493 696 c 0,20,21
 498 681 498 681 502 676 c 2,22,23
 507 666 507 666 509 666 c 1,24,-1
 513 658 l 1,25,26
 514 652 514 652 521 647 c 128,-1,27
 528 642 528 642 529 636 c 0,28,29
 531 626 531 626 534 621 c 1,30,31
 536 615 536 615 536 604 c 1,32,33
 538 590 538 590 539 588 c 0,34,35
 540 585 540 585 544 581 c 1,36,37
 547 580 547 580 547 574 c 128,-1,38
 547 568 547 568 544 561 c 0,39,40
 542 554 542 554 543 539 c 0,41,42
 544 527 544 527 540 516 c 0,43,44
 536 507 536 507 538 499 c 128,-1,45
 540 491 540 491 537 485 c 1,46,47
 534 475 534 475 530 466 c 0,48,49
 526 452 526 452 519 440 c 0,50,51
 513 428 513 428 501 414 c 0,52,53
 491 403 491 403 490 393 c 0,54,55
 489 384 489 384 483 377 c 1,56,57
 475 370 475 370 474 362 c 1,58,59
 471 354 471 354 463 347 c 1,60,61
 455 342 455 342 448 332 c 0,62,63
 441 323 441 323 438 321 c 0,64,65
 434 318 434 318 431 310 c 0,66,67
 429 302 429 302 426 299 c 0,68,69
 422 295 422 295 418 287 c 0,70,71
 413 278 413 278 404 273 c 0,72,73
 392 267 392 267 388 267 c 1,74,75
 386 266 386 266 382 264 c 1,76,77
 381 263 381 263 380 263 c 1,78,79
 377 258 377 258 376 252 c 1,80,81
 373 245 373 245 365 240 c 256,82,83
 357 235 357 235 357 233 c 0,84,85
 357 232 357 232 347 222 c 0,86,87
 336 211 336 211 333 210 c 1,88,89
 327 206 327 206 325 204 c 0,90,91
 322 201 322 201 316 198 c 256,92,93
 310 195 310 195 304 183 c 0,94,95
 299 174 299 174 294 169 c 1,96,97
 289 167 289 167 287 162 c 0,98,99
 285 158 285 158 276 152 c 0,100,101
 267 147 267 147 262 145 c 1,102,-1
 256 141 l 1,103,104
 256 140 256 140 246 135 c 128,-1,105
 236 130 236 130 232 120 c 0,106,107
 229 113 229 113 227 111.5 c 128,-1,108
 225 110 225 110 220 108 c 1,109,110
 214 107 214 107 213 105.5 c 128,-1,111
 212 104 212 104 212 100 c 0,112,113
 212 93 212 93 219 91 c 0,114,115
 228 89 228 89 236 91 c 0,116,117
 248 93 248 93 258 93 c 0,118,119
 270 93 270 93 275 97 c 0,120,121
 280 102 280 102 287 101 c 1,122,-1
 315 101 l 1,123,-1
 346 101 l 1,124,-1
 402 101 l 1,125,-1
 456 101 l 1,126,127
 463 102 463 102 483 100 c 0,128,129
 495 99 495 99 504 96 c 1,130,131
 509 93 509 93 509 91 c 256,132,133
 509 89 509 89 518 87 c 1,134,135
 528 83 528 83 529 80 c 1,136,137
 529 74 l 130,-1,138
 529 68 529 68 529.5 59 c 128,-1,139
 530 50 530 50 530 42 c 0,140,141
 531 23 531 23 531 18 c 0,142,143
 531 8 531 8 527 5 c 1,144,145
 521 2 521 2 505 3 c 0,146,147
 488 4 488 4 483 1 c 0,148,149
 475 -3 475 -3 471 -3 c 0,150,151
 470 -3 470 -3 458 0 c 1,152,153
 454 2 454 2 416 3 c 0,154,155
 383 3 383 3 377 0 c 0,156,157
 373 -2 373 -2 367 -2 c 128,-1,158
 361 -2 361 -2 357 0 c 0,159,160
 352 3 352 3 335 3 c 0,161,162
 319 3 319 3 310 0 c 1,163,164
 304 -3 304 -3 294 -3 c 0,165,166
 285 -3 285 -3 281 0 c 1,167,168
 273 3 273 3 231.5 3 c 128,-1,169
 190 3 190 3 177 -1 c 0,170,171
 168 -4 168 -4 165 -4 c 256,172,173
 162 -4 162 -4 155 -2 c 0,174,175
 147 1 147 1 133 3 c 0,176,177
 121 4 121 4 111 10 c 128,-1,178
 101 16 101 16 91 21 c 0,179,180
 80 27 80 27 78 30 c 0,181,182
 74 34 74 34 74 41 c 0,183,184
 74 46 74 46 76 52 c 0,185,186
 78 60 78 60 75 66 c 1,187,188
 73 76 73 76 73 86 c 0,189,190
 73 99 73 99 78 110 c 0,191,192
 83 123 83 123 92 128 c 0,193,194
 102 134 102 134 110 145 c 1,195,196
 123 158 123 158 127 160 c 128,-1,197
 131 162 131 162 156 185 c 0,198,199
 178 207 178 207 184 210 c 128,-1,200
 190 213 190 213 200 223 c 0,201,202
 206 229 206 229 212 238 c 1,203,204
 214 244 214 244 218 244 c 1,205,206
 224 247 224 247 235 258 c 2,207,208
 239 261 239 261 246 266.5 c 128,-1,209
 253 272 253 272 254 273 c 2,210,211
 259 275 259 275 260 282 c 1,212,213
 262 288 262 288 272 296 c 0,214,215
 283 305 283 305 286 311 c 0,216,217
 291 320 291 320 294 320 c 1,218,219
 303 324 303 324 305 326 c 0,220,221
 314 332 314 332 315 338 c 1,222,223
 318 345 318 345 322 348 c 1,224,225
 327 350 327 350 329 354 c 0,226,227
 330 357 330 357 336 367 c 1,228,229
 343 375 343 375 348 378 c 0,230,231
 354 381 354 381 360 389 c 1,232,233
 366 395 366 395 368 405 c 128,-1,234
 370 415 370 415 373 415 c 1,235,236
 375 416 375 416 381 422 c 0,237,238
 382 423 382 423 386 427.5 c 128,-1,239
 390 432 390 432 392 434 c 1,240,241
 398 444 398 444 398 453 c 0,242,243
 398 456 398 456 398.5 462.5 c 128,-1,244
 399 469 399 469 399 470 c 0,245,246
 400 477 400 477 406 480 c 128,-1,247
 412 483 412 483 413 493 c 0,248,249
 413 499 413 499 416 508 c 1,250,251
 419 512 419 512 419 528 c 0,252,253
 419 531 419 531 418.5 545 c 128,-1,254
 418 559 418 559 418 566 c 0,255,256
 417 584 417 584 415.5 589 c 128,-1,257
 414 594 414 594 403 604 c 0,258,259
 390 618 390 618 385 628 c 0,260,261
 381 636 381 636 374 642 c 0,262,263
 365 648 365 648 364 649 c 0,264,265
 360 653 360 653 352 655 c 1,266,267
 347 655 347 655 338 658 c 0,268,269
 334 660 334 660 298 660 c 0,270,271
 263 660 263 660 259 655 c 0,272,273
 256 650 256 650 242 648 c 0,274,275
 229 646 229 646 223 640 c 0,276,277
 216 633 216 633 213 631 c 0,278,279
 207 626 207 626 203 619 c 1,280,281
 200 611 200 611 192 596 c 0,282,283
 184 580 184 580 183 567 c 0,284,285
 181 553 181 553 178 546 c 128,-1,286
 175 539 175 539 170 537 c 1,287,-1
 164 536 l 1,288,289
 157 536 157 536 153 536 c 0,290,291
 140 536 140 536 131 531 c 0,292,293
 123 527 123 527 111 529 c 0,294,295
 96 532 96 532 85 537 c 0,296,297
 71 543 71 543 68 543 c 128,-1,298
 65 543 65 543 62 546 c 0,299,300
 59 550 59 550 59 559 c 0,301,302
 59 570 59 570 62 578 c 0,303,304
 66 586 66 586 66 600 c 0,305,306
 66 613 66 613 68 619 c 0,307,308
 70 626 70 626 76 631 c 0,309,310
 83 637 83 637 86 651 c 128,-1,311
 89 665 89 665 97 672 c 0,312,313
 104 678 104 678 114 691 c 0,314,315
 124 703 124 703 138 709 c 0,316,317
 151 714 151 714 157 720 c 1,318,319
 173 731 173 731 179 734 c 0,320,321
 196 742 196 742 217 743 c 0,322,323
 240 745 240 745 242 747 c 1,324,325
 247 750 247 750 279 750 c 0,326,327
 313 752 313 752 316 753 c 1,0,1
EndSplineSet
EndChar

StartChar: uni0033
Encoding: 51 51 22
Width: 610
GlyphClass: 2
Flags: W
LayerCount: 2
Fore
SplineSet
263 767 m 2,0,1
 267 769 267 769 274 769 c 0,2,3
 277 769 277 769 286 766 c 2,4,5
 287 766 287 766 293 764 c 128,-1,6
 299 762 299 762 302 761 c 0,7,8
 316 757 316 757 322 757 c 0,9,10
 327 757 327 757 336 760 c 0,11,12
 348 763 348 763 349 763 c 0,13,14
 355 763 355 763 364 757 c 0,15,16
 372 751 372 751 387 750 c 0,17,18
 392 750 392 750 398.5 749 c 128,-1,19
 404 748 404 748 405 748 c 1,20,21
 407.5 746 l 130,-1,22
 410 744 410 744 411 743 c 0,23,24
 414 740 414 740 424 736 c 1,25,26
 434 734 434 734 440 728 c 1,27,28
 447 723 447 723 456 721 c 0,29,30
 459 720 459 720 462.5 719 c 128,-1,31
 465 718 465 718 466 718 c 1,32,33
 475 713 l 1,34,35
 483 712 483 712 486 708 c 0,36,37
 488 706 488 706 494 694 c 0,38,39
 500 683 500 683 505 680 c 1,40,41
 508 679 508 679 513 668 c 0,42,43
 516 659 516 659 518 647 c 0,44,45
 519 636 519 636 525 630 c 1,46,47
 530 622 530 622 532 614 c 1,48,49
 532 608 532 608 536 594 c 0,50,51
 540 582 540 582 539 571 c 0,52,53
 537 556 537 556 535 553 c 1,54,55
 532 545 532 545 533 535 c 0,56,57
 533 529 533 529 536 517 c 0,58,59
 538 510 538 510 535 505 c 1,60,61
 531 501 531 501 527 493 c 0,62,63
 526 491 526 491 523 484.5 c 128,-1,64
 520 478 520 478 519 475 c 0,65,66
 512 458 512 458 512 457 c 1,67,68
 510 451 510 451 508 449 c 128,-1,69
 506 447 506 447 500 446 c 1,70,71
 498 445 498 445 493.5 443 c 128,-1,72
 489 441 489 441 488 441 c 1,73,74
 485 438 485 438 477 432 c 0,75,76
 473 429 473 429 464 420 c 0,77,78
 458 414 458 414 452 412 c 128,-1,79
 446 410 446 410 444 408 c 0,80,81
 439 403 439 403 438 400 c 0,82,83
 436 396 436 396 436 392 c 128,-1,84
 436 388 436 388 438 386 c 0,85,86
 441 384 441 384 445 382 c 1,87,88
 449 382 449 382 457 376 c 1,89,90
 463 370 463 370 471 369 c 0,91,92
 481 368 481 368 492 359 c 0,93,94
 504 349 504 349 504 348 c 1,95,96
 506 344 506 344 510 343 c 1,97,98
 516 339 516 339 522 333 c 2,99,100
 529 328 529 328 531 322 c 0,101,102
 533 318 533 318 533 314 c 0,103,104
 533 309 533 309 539 298 c 0,105,106
 544 285 544 285 546 276 c 0,107,108
 548 263 548 263 551 257 c 1,109,110
 553 249 553 249 553 239 c 0,111,112
 553 233 553 233 556 224 c 0,113,114
 558 220 558 220 558 214 c 0,115,116
 558 207 558 207 556 204 c 0,117,118
 555 202 555 202 553 184 c 0,119,120
 553 168 553 168 546 155 c 128,-1,121
 539 142 539 142 539 135 c 0,122,123
 539 124 539 124 538 121 c 0,124,125
 535 112 535 112 533 107 c 0,126,127
 529 97 529 97 524 92 c 2,128,-1
 501 69 l 1,129,-1
 483 51 l 1,130,131
 481 51 481 51 472 44 c 0,132,133
 461 35 461 35 454 31 c 0,134,135
 447 28 447 28 442 23 c 1,136,137
 430 17 430 17 427 16 c 0,138,139
 419 12 419 12 404 7 c 0,140,141
 397 5 397 5 382 -1 c 0,142,143
 373 -4 373 -4 363 -4 c 0,144,145
 352 -4 352 -4 340 -7 c 0,146,147
 331 -9 331 -9 322 -9 c 0,148,149
 317 -9 317 -9 305 -8 c 0,150,151
 280 -6 280 -6 277 -5 c 0,152,153
 270 -4 270 -4 262 -7 c 2,154,-1
 253 -9 l 2,155,156
 252 -9 252 -9 250 -9 c 0,157,158
 245 -9 245 -9 237 -5 c 1,159,-1
 221 -1 l 2,160,161
 211 2 211 2 202 3 c 0,162,163
 187 5 187 5 184 7 c 1,164,165
 172 10 172 10 166 10 c 0,166,167
 156 11 156 11 152 16 c 0,168,169
 146 22 146 22 133 30 c 0,170,171
 114 42 114 42 112 44 c 2,172,173
 107 47 107 47 104 52 c 1,174,175
 99 58 99 58 97 58 c 1,176,177
 93 61 93 61 84 77 c 0,178,179
 74 95 74 95 69 99 c 0,180,181
 63 103 63 103 62 113 c 0,182,183
 61 119 61 119 56.5 128 c 128,-1,184
 52 137 52 137 47 143 c 1,185,186
 42 154 42 154 42 159 c 0,187,188
 42 163 42 163 44 171 c 2,189,-1
 50 189 l 1,190,191
 51 197 51 197 63 205 c 0,192,193
 72 213 72 213 81 215 c 0,194,195
 84 216 84 216 101 214 c 1,196,197
 104 213 104 213 114 211.5 c 128,-1,198
 124 210 124 210 127 210 c 0,199,200
 137 210 137 210 143 207 c 0,201,202
 147 205 147 205 150 195 c 0,203,204
 153 187 153 187 158 179 c 1,205,206
 163 174 163 174 168 162 c 0,207,208
 177 146 177 146 179 145 c 1,209,210
 183 139 183 139 186 133 c 0,211,212
 191 124 191 124 200 119 c 1,213,-1
 217 106 l 2,214,215
 223 101 223 101 233 99 c 0,216,217
 245 97 245 97 253 93 c 0,218,219
 263 89 263 89 275 91 c 128,-1,220
 287 93 287 93 300 93 c 0,221,222
 312 93 312 93 318 95 c 1,223,224
 321 98 321 98 333 98 c 0,225,226
 343 98 343 98 346 101 c 0,227,228
 348 103 348 103 356 107 c 0,229,230
 365 112 365 112 372 113 c 1,231,232
 379 113 379 113 389 119 c 0,233,234
 399 124 399 124 406 134 c 0,235,236
 415 147 415 147 418 155 c 2,237,-1
 420 164 l 2,238,239
 422 174 422 174 423 179 c 0,240,241
 425 194 425 194 428 197 c 0,242,243
 432 201 432 201 434 205 c 128,-1,244
 436 209 436 209 436 214 c 0,245,246
 436 217 436 217 430 231 c 1,247,248
 423 242 423 242 423 252 c 1,249,250
 421 264 421 264 417 268 c 1,251,-1
 411 280 l 2,252,253
 405 289 405 289 400 293 c 0,254,255
 390 303 390 303 387 307 c 0,256,257
 383 313 383 313 369 321 c 0,258,259
 354 328 354 328 343 328 c 0,260,261
 330 329 330 329 325 333 c 128,-1,262
 320 337 320 337 311 336 c 0,263,264
 304 335 304 335 296 337 c 128,-1,265
 288 339 288 339 285 342 c 0,266,267
 284 343 284 343 280.5 345.5 c 128,-1,268
 277 348 277 348 275 350 c 0,269,270
 271 354 271 354 263 360 c 0,271,272
 254 366 254 366 249 377 c 0,273,274
 243 390 243 390 243 400 c 128,-1,275
 243 410 243 410 249 420 c 0,276,277
 256 431 256 431 257 436 c 1,278,279
 260 443 260 443 266 444 c 1,280,281
 272 446 272 446 286 446 c 0,282,283
 299 446 299 446 305 449 c 0,284,285
 313 452 313 452 327 453 c 0,286,287
 343 453 343 453 351 457 c 1,288,-1
 363 460 l 2,289,290
 369 462 369 462 377 470 c 0,291,292
 388 479 388 479 392 480 c 1,293,294
 396 480 396 480 399 483 c 128,-1,295
 402 486 402 486 402 495 c 1,296,297
 404 506 404 506 407 509 c 0,298,299
 412 514 412 514 413 517 c 1,300,301
 416 522 416 522 416 547 c 0,302,303
 417 560 417 560 417 565 c 0,304,305
 417 575 417 575 413 583 c 0,306,307
 410 590 410 590 410 596 c 0,308,309
 410 598 410 598 408 606 c 1,310,311
 404 614 404 614 397 618 c 0,312,313
 389 624 389 624 388 630 c 0,314,315
 386 638 386 638 385 638 c 1,316,317
 383 641 383 641 370 647 c 0,318,319
 354 654 354 654 350 654 c 1,320,321
 341 656 341 656 335 660 c 0,322,323
 327 664 327 664 310 664 c 0,324,325
 290 664 290 664 286 663 c 0,326,327
 281 662 281 662 270 665 c 0,328,329
 265 667 265 667 257 667 c 1,330,331
 248 662 248 662 246 661 c 0,332,333
 233 654 233 654 231 654 c 0,334,335
 223 653 223 653 213 643 c 0,336,337
 202 632 202 632 199 624 c 2,338,339
 193 614 193 614 193 605 c 1,340,341
 191 597 191 597 189 592 c 1,342,343
 188 591 188 591 185 586.5 c 128,-1,344
 182 582 182 582 180 580 c 2,345,346
 176 573 176 573 170 567 c 1,347,348
 166 566 166 566 159 559 c 0,349,350
 155 554 155 554 149 551 c 0,351,352
 146 550 146 550 133 550 c 0,353,354
 122 550 122 550 117 547 c 128,-1,355
 112 544 112 544 104 544 c 256,356,357
 96 544 96 544 92 547 c 0,358,359
 89 549 89 549 79 555 c 0,360,361
 71 560 71 560 63 573 c 0,362,363
 56 586 56 586 56 594 c 0,364,365
 56 603 56 603 59 606 c 0,366,367
 61 609 61 609 63 623 c 1,368,369
 63 635 63 635 67 640 c 1,370,371
 69 646 69 646 75 654 c 0,372,373
 81 664 81 664 85 666 c 128,-1,374
 89 668 89 668 91 673 c 0,375,376
 94 679 94 679 100 688 c 0,377,378
 105 698 105 698 113 703 c 2,379,-1
 131 715 l 2,380,381
 143 725 143 725 145 728 c 0,382,383
 148 732 148 732 159 735 c 0,384,385
 169 737 169 737 174 742 c 2,386,387
 176 743 176 743 179 745.5 c 128,-1,388
 182 748 182 748 183 748 c 2,389,390
 184 749 184 749 202 751 c 0,391,392
 217 751 217 751 227 755 c 2,393,394
 232 756 232 756 247 761 c 0,395,396
 250 762 250 762 256 764.5 c 128,-1,397
 262 767 262 767 263 767 c 2,0,1
EndSplineSet
EndChar

StartChar: uni0034
Encoding: 52 52 23
Width: 577
GlyphClass: 2
Flags: W
LayerCount: 2
Fore
SplineSet
348 562 m 0,0,1
 345 565 345 565 340 565 c 128,-1,2
 335 565 335 565 331 563 c 1,3,4
 327 559 327 559 327 557 c 0,5,6
 327 554 327 554 321 548 c 1,7,8
 317 542 317 542 314 537 c 1,9,10
 314 535 314 535 300 515 c 0,11,12
 288 496 288 496 286 490 c 1,13,14
 286 487 286 487 281 477 c 0,15,16
 278 470 278 470 271 466 c 0,17,18
 265 462 265 462 259 452 c 0,19,20
 254 442 254 442 252 436 c 1,21,22
 252 431 252 431 235 412 c 0,23,24
 218 392 218 392 210 375 c 0,25,26
 202 360 202 360 197 353 c 1,27,28
 193 349 193 349 183 329 c 0,29,30
 173 310 173 310 168 307 c 0,31,32
 164 304 164 304 162 298 c 1,33,34
 162 297 162 297 161 293.5 c 128,-1,35
 160 290 160 290 159 288 c 0,36,37
 156 282 156 282 147 276 c 0,38,39
 137 270 137 270 135 263 c 0,40,41
 134 261 134 261 134 257.5 c 128,-1,42
 134 254 134 254 135 253 c 1,43,44
 137 248 137 248 149 249 c 0,45,46
 163 250 163 250 168 248 c 1,47,48
 174 244 174 244 183 244 c 0,49,50
 193 244 193 244 197 247 c 1,51,52
 201 248 201 248 211 248 c 1,53,54
 219 246 219 246 237 246 c 0,55,56
 255 245 255 245 260 248 c 1,57,58
 269 251 269 251 285 251 c 0,59,60
 290 251 290 251 302 251.5 c 128,-1,61
 314 252 314 252 318 253 c 2,62,63
 321 253 321 253 327 253.5 c 128,-1,64
 333 254 333 254 334 254 c 1,65,66
 338 256 338 256 341 264 c 0,67,68
 345 273 345 273 343 283 c 1,69,70
 341 288 341 288 341 302 c 2,71,-1
 341 323 l 1,72,-1
 341 343 l 2,73,74
 341 348 341 348 343 385 c 0,75,76
 345 415 345 415 347 429 c 1,77,78
 350 438 350 438 350 453 c 128,-1,79
 350 468 350 468 347 474 c 0,80,81
 344 481 344 481 344 498 c 128,-1,82
 344 515 344 515 347 521 c 0,83,84
 351 527 351 527 351 542 c 0,85,86
 351 547 351 547 351 550 c 0,87,88
 351 558 351 558 348 562 c 0,0,1
382 717 m 1,89,-1
 386 718 l 1,90,91
 392 718 l 0,92,93
 401 718 401 718 413 713 c 0,94,95
 421 710 421 710 433 708 c 0,96,97
 437 708 437 708 443 705 c 1,98,99
 445 703 445 703 447 694 c 1,100,101
 447 685 447 685 451 679 c 1,102,103
 453 674 453 674 453 653 c 0,104,105
 454 639 454 639 452 622 c 0,106,107
 450 610 450 610 454 601 c 0,108,109
 457 596 457 596 460 587 c 1,110,111
 460 578 460 578 457 563 c 0,112,113
 454 545 454 545 454 521 c 0,114,115
 453 496 453 496 449 486 c 0,116,117
 444 476 444 476 444 461 c 0,118,119
 444 449 444 449 446 431 c 0,120,121
 446 417 446 417 449 411 c 0,122,123
 453 405 453 405 453 396 c 1,124,125
 455 385 455 385 458 378 c 0,126,127
 460 373 460 373 460 361 c 1,128,129
 458 350 458 350 456 347 c 256,130,131
 454 344 454 344 454 328 c 0,132,133
 454 316 454 316 456 308 c 1,134,135
 459 304 459 304 459 297 c 128,-1,136
 459 290 459 290 456 286 c 256,137,138
 453 282 453 282 458 266 c 0,139,140
 464 251 464 251 467 250 c 0,141,142
 472 248 472 248 488 250 c 0,143,144
 508 252 508 252 515 251 c 2,145,146
 527 251 527 251 535 246 c 2,147,148
 543 243 543 243 546 240 c 1,149,150
 549 235 549 235 553 223 c 256,151,152
 557 211 557 211 557 199 c 0,153,154
 557 186 557 186 556 183 c 2,155,156
 556 178 556 178 551 173 c 0,157,158
 547 169 547 169 541 165 c 0,159,160
 537 162 537 162 527 162 c 0,161,162
 519 162 519 162 513 164 c 1,163,164
 509 167 509 167 502 167 c 0,165,166
 499 167 499 167 493 163 c 1,167,168
 490 158 490 158 477 157 c 0,169,170
 467 156 467 156 462 153 c 1,171,172
 460 149 460 149 460 139 c 0,173,174
 460 116 460 116 461 100 c 0,175,176
 461 77 461 77 464 68 c 0,177,178
 466 62 466 62 466 56 c 0,179,180
 466 47 466 47 463 44 c 1,181,182
 463 43 463 43 461.5 39 c 128,-1,183
 460 35 460 35 459 33 c 1,184,185
 459 16 459 16 459 15 c 0,186,187
 459 3 459 3 455 -6 c 0,188,189
 452 -15 452 -15 445 -18 c 0,190,191
 440 -21 440 -21 425 -27 c 0,192,193
 412 -31 412 -31 408 -31 c 0,194,195
 406 -31 l 1,196,197
 400 -28 400 -28 398 -25 c 0,198,199
 396 -21 396 -21 391 -19 c 1,200,201
 390 -19 390 -19 384.5 -17.5 c 128,-1,202
 379 -16 379 -16 376 -15 c 0,203,204
 369 -13 369 -13 357 -10 c 0,205,206
 352 -9 352 -9 344 -1 c 0,207,208
 337 6 337 6 337 16 c 0,209,210
 337 27 337 27 340 31 c 1,211,212
 343 38 343 38 343 83 c 0,213,214
 343 118 343 118 342.5 124.5 c 128,-1,215
 342 131 342 131 338 138 c 0,216,217
 332 149 332 149 329 151 c 0,218,219
 324 154 324 154 311 156 c 0,220,221
 301 157 301 157 287 157 c 0,222,223
 280 157 280 157 274 157 c 0,224,225
 266 157 266 157 252.5 156.5 c 128,-1,226
 239 156 239 156 236 156 c 0,227,228
 220 156 220 156 214 157 c 1,229,230
 196 157 196 157 187 156 c 0,231,232
 165 154 165 154 161 152 c 0,233,234
 152 149 152 149 144 152 c 0,235,236
 135 155 135 155 119 155 c 0,237,238
 102 155 102 155 91 151 c 0,239,240
 79 148 79 148 72 149 c 1,241,242
 62 149 62 149 55 154 c 1,243,244
 49 157 49 157 45 161 c 0,245,246
 44 162 44 162 37 176 c 0,247,248
 32 189 32 189 31 207 c 0,249,250
 29 229 29 229 29 235 c 128,-1,251
 29 241 29 241 31 255 c 0,252,253
 32 266 32 266 37 275 c 1,254,255
 45 285 45 285 46 286 c 1,256,257
 51 288 51 288 56 299 c 2,258,-1
 61 314 l 1,259,260
 61 318 61 318 66 323 c 1,261,262
 71 326 71 326 73 333 c 0,263,264
 74 337 74 337 74 345 c 0,265,266
 74 349 74 349 78 355 c 0,267,268
 81 360 81 360 88 362 c 0,269,270
 94 364 94 364 96 368 c 1,271,272
 96 369 96 369 98 373.5 c 128,-1,273
 100 378 100 378 101 380 c 1,274,275
 102 385 102 385 107 390 c 0,276,277
 115 398 115 398 119 403 c 0,278,279
 121 406 121 406 124.5 412.5 c 128,-1,280
 128 419 128 419 129 420 c 1,281,282
 130 427 130 427 137 431 c 0,283,284
 144 436 144 436 144 439 c 1,285,286
 146 443 146 443 146 448 c 1,287,288
 148 455 148 455 162 468 c 0,289,290
 176 483 176 483 177 490 c 0,291,292
 179 498 179 498 183 501 c 1,293,294
 187 505 187 505 187 508 c 128,-1,295
 187 511 187 511 191 515 c 0,296,297
 198 522 198 522 203 526 c 0,298,299
 211 534 211 534 216 544 c 0,300,301
 218 548 218 548 222 554 c 2,302,-1
 225 560 l 1,303,304
 228 563 228 563 230 571 c 0,305,306
 231 574 231 574 238 588 c 0,307,308
 248 603 248 603 253 607 c 1,309,310
 264 620 264 620 265 623 c 2,311,312
 271 630 271 630 274 639 c 0,313,314
 277 646 277 646 283 652 c 1,315,316
 288 655 288 655 290 661 c 2,317,318
 293 665 293 665 295 674 c 1,319,320
 299 684 299 684 301 685 c 1,321,322
 302 685 302 685 309 695 c 1,323,324
 313 704 313 704 320 707 c 2,325,326
 324 712 324 712 332 714 c 128,-1,327
 340 716 340 716 360 716 c 0,328,329
 382 716 382 716 382 717 c 1,89,-1
EndSplineSet
EndChar

StartChar: uni0035
Encoding: 53 53 24
Width: 613
GlyphClass: 2
Flags: W
LayerCount: 2
Fore
SplineSet
264 743 m 1,0,1
 270 747 270 747 275 747 c 128,-1,2
 280 747 280 747 286 745 c 128,-1,3
 292 743 292 743 316 743 c 256,4,5
 340 743 340 743 347 740 c 0,6,7
 352 737 352 737 361 737 c 256,8,9
 370 737 370 737 377 740 c 0,10,11
 385 744 385 744 394 743 c 0,12,13
 403 743 403 743 409 739 c 1,14,15
 415 737 415 737 424 737 c 128,-1,16
 433 737 433 737 437 739 c 0,17,18
 442 742 442 742 447 742 c 1,19,-1
 459 739 l 2,20,21
 467 736 467 736 479 740 c 0,22,23
 492 744 492 744 502 743 c 0,24,25
 513 743 513 743 516 739 c 1,26,27
 520 736 520 736 520 714 c 0,28,29
 520 690 520 690 518 684 c 0,30,31
 515 677 515 677 515 671 c 0,32,33
 515 668 515 668 513 662 c 1,34,35
 507 656 507 656 503 653 c 0,36,37
 497 649 497 649 485 647 c 0,38,39
 475 645 475 645 470 643 c 0,40,41
 466 641 466 641 461 641 c 256,42,43
 456 641 456 641 451 644 c 0,44,45
 447 646 447 646 436 648 c 0,46,47
 434 648 434 648 427 649 c 128,-1,48
 420 650 420 650 418 651 c 1,49,50
 412 651 412 651 402 653 c 1,51,52
 393 653 393 653 389 651 c 0,53,54
 386 649 386 649 364 649 c 0,55,56
 360 649 360 649 349.5 649.5 c 128,-1,57
 339 650 339 650 337 651 c 1,58,59
 332 652 332 652 322 649 c 0,60,61
 312 647 312 647 297 647 c 0,62,63
 289 647 289 647 278 647 c 0,64,65
 245 648 245 648 238 651 c 1,66,-1
 226 654 l 1,67,68
 222 654 222 654 216 651 c 0,69,70
 210 647 210 647 206 643 c 1,71,72
 199 630 199 630 198 625 c 0,73,74
 195 614 195 614 196 604 c 0,75,76
 196 593 196 593 194 590 c 0,77,78
 192 586 192 586 192 552 c 0,79,80
 192 542 192 542 192 535 c 0,81,82
 192 520 192 520 190 513 c 0,83,84
 187 504 187 504 187 490 c 0,85,86
 186 473 186 473 190 464 c 0,87,88
 194 454 194 454 198 453 c 1,89,90
 202 450 202 450 216 457 c 0,91,92
 231 464 231 464 237 469 c 0,93,94
 243 473 243 473 262 476 c 0,95,96
 267 477 267 477 287 482 c 1,97,98
 293 485 293 485 305 485 c 0,99,100
 310 485 310 485 319 485 c 0,101,102
 344 484 344 484 348 488 c 1,103,104
 353 491 353 491 357 491 c 256,105,106
 361 491 361 491 379 487 c 0,107,108
 395 482 395 482 412 480 c 0,109,110
 416 479 416 479 424.5 477.5 c 128,-1,111
 433 476 433 476 435 475 c 0,112,113
 440 472 440 472 444 472 c 256,114,115
 448 472 448 472 450 467 c 1,116,117
 455 460 455 460 458 459 c 1,118,119
 467 453 467 453 472 448 c 0,120,121
 474 446 474 446 486 438 c 128,-1,122
 497 431 497 431 498 430 c 0,123,124
 503 425 503 425 510 423 c 0,125,126
 517 420 517 420 519 411 c 0,127,128
 521 403 521 403 525 392 c 0,129,130
 527 388 527 388 534 377 c 1,131,132
 540 372 540 372 541 359 c 0,133,134
 542 345 542 345 548 337 c 256,135,136
 554 329 554 329 555 313 c 0,137,138
 557 292 557 292 559 289 c 1,139,140
 562 277 562 277 562 273 c 0,141,142
 562 268 562 268 559 256 c 1,143,144
 556 250 556 250 556 242 c 0,145,146
 556 239 556 239 556.5 232.5 c 128,-1,147
 557 226 557 226 557 224 c 2,148,149
 559 216 559 216 554 204 c 0,150,151
 549 195 549 195 548 176 c 0,152,153
 547 158 547 158 541 152 c 0,154,155
 537 148 537 148 535 142 c 1,156,157
 535 141 535 141 534.5 136.5 c 128,-1,158
 534 132 534 132 534 129 c 0,159,160
 533 118 533 118 527 110 c 0,161,162
 522 104 522 104 519 95 c 1,163,164
 519 88 519 88 513 87 c 1,165,166
 507 81 507 81 504 77 c 2,167,168
 495 62 l 2,169,170
 489 53 489 53 482 50 c 0,171,172
 475 48 475 48 475 45 c 1,173,174
 472 42 472 42 460 35 c 1,175,176
 450 31 450 31 437 21 c 1,177,178
 429 12 429 12 424 11 c 2,179,180
 422 10 422 10 416 10 c 0,181,182
 412 10 412 10 406 6 c 0,183,184
 400 3 400 3 393 3 c 0,185,186
 387 3 387 3 379 -1 c 128,-1,187
 371 -5 371 -5 352 -4 c 0,188,189
 332 -4 332 -4 326 -9 c 0,190,191
 320 -13 320 -13 316 -13 c 128,-1,192
 312 -13 312 -13 304 -9 c 1,193,194
 303 -9 303 -9 298.5 -7.5 c 128,-1,195
 294 -6 294 -6 293 -6 c 0,196,197
 287 -6 287 -6 281 -9 c 1,198,199
 271 -11 271 -11 260 -11 c 0,200,201
 257 -11 257 -11 251.5 -10.5 c 128,-1,202
 246 -10 246 -10 245 -10 c 0,203,204
 241 -9 241 -9 235 -3 c 256,205,206
 229 3 229 3 224 3 c 128,-1,207
 219 3 219 3 211 5 c 1,208,209
 207 7 207 7 191 11 c 0,210,211
 177 13 177 13 176 13 c 0,212,213
 173 13 173 13 168 20 c 1,214,215
 155 30 155 30 153 31 c 256,216,217
 151 32 151 32 145 36 c 128,-1,218
 139 40 139 40 137 42 c 2,219,220
 130 46 130 46 125 51 c 2,221,222
 121 53 121 53 117 59 c 1,223,224
 109 67 109 67 104 71 c 0,225,226
 98 75 98 75 97 77.5 c 128,-1,227
 96 80 96 80 96 87 c 0,228,229
 96 96 96 96 91 100 c 0,230,231
 86 105 86 105 85 111 c 1,232,233
 83 116 83 116 80 126 c 0,234,235
 78 131 78 131 75 140 c 0,236,237
 74 142 74 142 71 150 c 1,238,239
 71 153 71 153 65 163 c 1,240,241
 61 173 61 173 62 177 c 1,242,243
 65 182 65 182 69 185 c 0,244,245
 74 189 74 189 92 190 c 0,246,247
 95 190 95 190 105.5 190 c 128,-1,248
 116 190 116 190 122 190 c 0,249,250
 131 190 131 190 138 190 c 0,251,252
 164 190 164 190 170 188 c 128,-1,253
 176 186 176 186 178 182 c 0,254,255
 179 180 179 180 186 173 c 0,256,257
 190 169 190 169 194 159 c 1,258,259
 195 152 195 152 200 143 c 0,260,261
 203 136 203 136 219 118 c 0,262,263
 230 106 230 106 233.5 104 c 128,-1,264
 237 102 237 102 245 101 c 0,265,266
 257 99 257 99 269 93 c 0,267,268
 276 89 276 89 288 85 c 0,269,270
 294 83 294 83 303 85 c 0,271,272
 312 86 312 86 319 95 c 1,273,274
 331 105 331 105 332 105 c 1,275,276
 338 107 338 107 355 107 c 0,277,278
 368 107 368 107 372 109 c 128,-1,279
 376 111 376 111 387 122 c 0,280,281
 401 136 401 136 405 142 c 1,282,283
 406 146 406 146 413 151 c 0,284,285
 422 157 422 157 423 158 c 0,286,287
 429 162 429 162 432 172 c 0,288,289
 436 182 436 182 438 199 c 0,290,291
 439 213 439 213 439 225 c 0,292,293
 439 235 l 0,294,295
 439 254 439 254 441 258 c 0,296,297
 444 264 444 264 444 274 c 0,298,299
 444 288 444 288 440 297 c 0,300,301
 434 314 434 314 434 315 c 0,302,303
 433 322 433 322 425 328 c 0,304,305
 418 334 418 334 418 340 c 0,306,307
 418 345 418 345 416 351 c 1,308,-1
 409 362 l 1,309,310
 398 370 398 370 392 372 c 2,311,312
 383 378 383 378 377 378 c 0,313,314
 373 378 373 378 369 382 c 0,315,316
 367 384 367 384 364 386 c 128,-1,317
 361 388 361 388 360 389 c 1,318,319
 354 391 354 391 339 391 c 0,320,321
 336 391 336 391 328 390.5 c 128,-1,322
 320 390 320 390 318 389 c 1,323,324
 310 387 310 387 309 387 c 0,325,326
 307 387 307 387 301 391 c 1,327,328
 296 396 296 396 292 396 c 0,329,330
 291 396 291 396 286 394.5 c 128,-1,331
 281 393 281 393 279 393 c 1,332,333
 271 390 271 390 262 388 c 1,334,335
 261 387 261 387 247 384 c 1,336,337
 241 384 241 384 238 381 c 1,338,339
 238 380 238 380 236.5 377 c 128,-1,340
 235 374 235 374 235 373 c 1,341,342
 231 364 231 364 227 362 c 0,343,344
 220 357 220 357 219 355 c 0,345,346
 215 347 215 347 209 340 c 0,347,348
 205 334 205 334 196 319 c 0,349,350
 194 316 194 316 190.5 311 c 128,-1,351
 188 307 188 307 187 306 c 0,352,353
 182 301 182 301 170 298 c 2,354,355
 158 293 158 293 139 293 c 0,356,357
 121 293 121 293 108 299 c 0,358,359
 97 303 97 303 90 313 c 0,360,361
 83 324 83 324 82 328 c 0,362,363
 80 333 80 333 82 338 c 1,364,365
 82 339 82 339 82.5 365.5 c 128,-1,366
 83 392 83 392 84 415 c 0,367,368
 86 496 86 496 86 499 c 0,369,370
 86 509 86 509 88 515 c 1,371,372
 91 521 91 521 91 530 c 1,373,374
 90 536 90 536 87 548 c 1,375,376
 84 554 84 554 84 575 c 0,377,378
 85 594 85 594 88 599 c 0,379,380
 91 603 91 603 91 610 c 0,381,382
 91 614 91 614 88 619 c 0,383,384
 86 623 86 623 86 629 c 256,385,386
 86 635 86 635 89 640 c 1,387,388
 91 646 91 646 91 661 c 0,389,390
 91 668 91 668 91 679 c 0,391,392
 91 711 91 711 95 716 c 1,393,394
 97 720 l 130,-1,395
 98 722 l 1,396,397
 98 724 98 724 108 732 c 0,398,399
 122 741 122 741 125 742 c 0,400,401
 132 743 132 743 157 743 c 0,402,403
 170 743 170 743 184 743 c 0,404,405
 236 743 236 743 244 739 c 0,406,407
 248 737 248 737 254 737 c 1,408,409
 260 739 260 739 264 743 c 1,0,1
EndSplineSet
EndChar

StartChar: uni0036
Encoding: 54 54 25
Width: 598
GlyphClass: 2
Flags: W
LayerCount: 2
Fore
SplineSet
332 398 m 0,0,1
 310 398 310 398 304 400 c 1,2,3
 300 400 l 0,4,5
 297 400 297 400 291 397 c 0,6,7
 285 393 285 393 278 391 c 1,8,9
 272 391 272 391 264 385 c 0,10,11
 256 380 256 380 250 380 c 0,12,13
 247 380 247 380 241 378 c 0,14,15
 237 376 237 376 232 369 c 0,16,17
 228 362 228 362 221 358 c 0,18,19
 215 354 215 354 208 342 c 0,20,21
 205 335 205 335 198 328 c 1,22,23
 193 326 193 326 193 323 c 1,24,25
 192 321 192 321 191.5 316 c 128,-1,26
 191 311 191 311 191 309 c 0,27,28
 191 302 191 302 186 292 c 1,29,30
 184 286 184 286 184 282 c 0,31,32
 184 279 184 279 185 270 c 0,33,34
 186 257 186 257 189 247 c 0,35,36
 192 238 192 238 191 231 c 128,-1,37
 190 224 190 224 193 212 c 0,38,39
 198 197 198 197 198 187 c 0,40,41
 199 175 199 175 205 169 c 0,42,43
 211 162 211 162 212 154 c 0,44,45
 212 150 212 150 217 137 c 0,46,47
 220 129 220 129 226 123 c 0,48,49
 233 116 233 116 235 115 c 1,50,-1
 240 114 l 2,51,52
 244 113 244 113 247 113 c 0,53,54
 259 111 259 111 260 110 c 0,55,56
 263 107 263 107 266 101 c 1,57,58
 271 94 271 94 272 94 c 2,59,60
 274 92 274 92 289 92 c 0,61,62
 305 90 305 90 310 88 c 0,63,64
 316 85 316 85 329 85 c 0,65,66
 341 85 341 85 353 91 c 0,67,68
 365 98 365 98 368 98 c 0,69,70
 372 98 372 98 376 101 c 1,71,72
 382 102 382 102 382 105 c 0,73,74
 382 107 382 107 391 111 c 1,75,76
 398 116 398 116 401 123 c 0,77,78
 404 131 404 131 410 133 c 2,79,-1
 418 136 l 2,80,81
 420 137 420 137 424 145 c 0,82,83
 428 151 428 151 428 160 c 1,84,-1
 432 176 l 2,85,86
 434 182 434 182 434 187 c 0,87,88
 434 190 434 190 438 202 c 0,89,90
 441 209 441 209 441 222 c 0,91,92
 441 234 441 234 444 241 c 1,93,94
 446 249 446 249 446 254 c 0,95,96
 446 258 446 258 444 264 c 2,97,98
 444 265 444 265 441.5 273 c 128,-1,99
 439 281 439 281 438 286 c 0,100,101
 434 304 434 304 434 306 c 128,-1,102
 434 308 434 308 432 314 c 0,103,104
 430 319 430 319 428 325 c 1,105,106
 428 328 428 328 423 336 c 2,107,-1
 416 347 l 1,108,109
 415 350 415 350 406 357 c 1,110,111
 400 360 400 360 391 369 c 0,112,113
 386 374 386 374 377 380 c 0,114,115
 369 386 369 386 367 388 c 0,116,117
 366 389 366 389 362.5 391.5 c 128,-1,118
 359 394 359 394 358 395 c 1,119,120
 352 398 352 398 332 398 c 0,0,1
310 763 m 2,121,122
 313 764 313 764 337 764 c 0,123,124
 359 763 359 763 364 760 c 1,125,126
 373 757 373 757 385 757 c 0,127,128
 401 756 401 756 414 748 c 0,129,130
 432 739 432 739 436 738 c 0,131,132
 446 736 446 736 452 731 c 2,133,134
 457 728 457 728 466 722 c 1,135,136
 470 718 470 718 478 714 c 0,137,138
 484 711 484 711 489 703 c 0,139,140
 491 699 491 699 496 694 c 1,141,142
 498 694 498 694 506 688 c 1,143,144
 513 685 513 685 516 678 c 1,145,146
 516 676 516 676 517 672 c 128,-1,147
 518 668 518 668 518 667 c 1,148,149
 520 661 520 661 524 660 c 1,150,151
 529 656 529 656 530 649 c 0,152,153
 532 639 532 639 532 638 c 128,-1,154
 532 637 532 637 534 631.5 c 128,-1,155
 536 626 536 626 537 623 c 0,156,157
 541 614 541 614 544 604 c 0,158,159
 546 596 546 596 544 589 c 0,160,161
 543 582 543 582 535 571 c 1,162,163
 527 563 527 563 523 557 c 0,164,165
 520 553 520 553 511 554 c 0,166,167
 505 554 505 554 475 556 c 0,168,169
 454 557 454 557 449.5 557.5 c 128,-1,170
 445 558 445 558 441 563 c 1,171,-1
 429 571 l 1,172,173
 424 573 424 573 417 584 c 0,174,175
 415 588 415 588 411.5 595.5 c 128,-1,176
 408 603 408 603 407 605 c 0,177,178
 401 615 401 615 401 621 c 1,179,180
 399 630 399 630 395 636 c 1,181,182
 392 643 392 643 382 650 c 0,183,184
 376 655 376 655 367 658 c 0,185,186
 355 661 355 661 351 661 c 0,187,188
 346 662 346 662 337 665 c 0,189,190
 333 667 333 667 329 667 c 2,191,192
 326 668 326 668 308 668 c 0,193,194
 292 667 292 667 286 661 c 1,195,196
 277 655 277 655 268 654 c 0,197,198
 257 653 257 653 252 648 c 1,199,200
 248 645 248 645 232 629 c 0,201,202
 220 617 220 617 210 601 c 0,203,204
 199 583 199 583 198 582 c 0,205,206
 194 578 194 578 192 570 c 0,207,208
 190 561 190 561 187 557 c 1,209,210
 185 550 185 550 183 537 c 0,211,212
 182 524 182 524 177 516 c 0,213,214
 172 510 172 510 171 488 c 0,215,216
 170 467 170 467 167 461 c 0,217,218
 163 453 163 453 163 442 c 0,219,220
 162 432 162 432 164 425 c 0,221,222
 166 421 166 421 172 419 c 1,223,224
 177 416 177 416 182 418 c 0,225,226
 188 421 188 421 191 424 c 0,227,228
 203 432 203 432 207 434 c 0,229,230
 218 441 218 441 224 452 c 0,231,232
 228 459 228 459 230.5 461 c 128,-1,233
 233 463 233 463 243 468 c 0,234,235
 256 473 256 473 260 473 c 128,-1,236
 264 473 264 473 269 480 c 1,237,238
 275 486 275 486 281 485 c 1,239,240
 287 483 287 483 293 483 c 2,241,242
 299 482 299 482 310 485 c 0,243,244
 322 489 322 489 328 492 c 1,245,246
 335 494 335 494 347 493 c 0,247,248
 351 492 351 492 356.5 491 c 128,-1,249
 361 490 361 490 362 490 c 1,250,251
 364 488 364 488 383 488 c 0,252,253
 401 488 401 488 418 482 c 0,254,255
 433 476 433 476 438 473 c 1,256,257
 444 467 444 467 453 464 c 0,258,259
 458 462 458 462 467 459 c 1,260,261
 473 459 473 459 476 458 c 0,262,263
 480 456 480 456 483 448 c 0,264,265
 485 441 485 441 498 427 c 0,266,267
 508 418 508 418 515 407 c 0,268,269
 519 400 519 400 524 396 c 1,270,271
 529 395 529 395 531 387 c 0,272,273
 531 386 531 386 538 367 c 1,274,275
 545 355 545 355 545 348 c 0,276,277
 545 340 545 340 548 336 c 0,278,279
 551 331 551 331 552 312 c 0,280,281
 552 298 552 298 556 284 c 0,282,283
 559 272 559 272 559 241 c 128,-1,284
 559 210 559 210 556 198 c 1,285,286
 553 191 553 191 551 174 c 0,287,288
 551 158 551 158 545 150 c 1,289,290
 539 139 539 139 537 128 c 0,291,292
 536 121 536 121 530 106 c 1,293,294
 528 103 528 103 524 94 c 0,295,296
 523 91 523 91 522 90 c 2,297,298
 521 84 521 84 516 79 c 1,299,300
 511 78 511 78 502 68 c 0,301,302
 499 65 499 65 492 58.5 c 128,-1,303
 485 52 485 52 483 50 c 0,304,305
 472 36 472 36 470 33 c 0,306,307
 464 25 464 25 462 24 c 1,308,309
 459 24 459 24 454 19 c 0,310,311
 453 18 453 18 450 16.5 c 128,-1,312
 447 15 447 15 446 14 c 1,313,314
 443 14 443 14 427 10 c 2,315,316
 412 9 412 9 406 4 c 1,317,318
 404 1 404 1 395 -2 c 0,319,320
 387 -4 387 -4 375 -4 c 0,321,322
 362 -4 362 -4 358 -7 c 0,323,324
 354 -9 354 -9 349 -9 c 0,325,326
 341 -9 341 -9 336 -7 c 0,327,328
 330 -5 330 -5 321 -9 c 1,329,330
 315 -13 315 -13 308 -13 c 0,331,332
 305 -13 305 -13 297 -12 c 0,333,334
 284 -12 284 -12 275 -9 c 0,335,336
 266 -7 266 -7 261 -3 c 2,337,338
 259 -2 259 -2 254 1 c 128,-1,339
 249 4 249 4 247 5 c 1,340,341
 241 10 241 10 234 8 c 1,342,343
 232 8 232 8 228 7.5 c 128,-1,344
 224 7 224 7 223 7 c 1,345,346
 217 9 217 9 212 14 c 0,347,348
 206 20 206 20 188 27 c 0,349,350
 173 32 173 32 162 38 c 0,351,352
 160 39 160 39 155 43.5 c 128,-1,353
 150 48 150 48 148 50 c 0,354,355
 138 58 138 58 136 59 c 0,356,357
 132 61 132 61 131 68 c 1,358,359
 127 78 127 78 121 85 c 0,360,361
 110 99 110 99 109 100 c 0,362,363
 106 104 106 104 104 113 c 0,364,365
 100 125 100 125 97 132 c 0,366,367
 93 144 93 144 88 148 c 0,368,369
 86 150 86 150 80 158 c 1,370,371
 77 169 77 169 76 178 c 0,372,373
 75 192 75 192 69 200 c 0,374,375
 64 208 64 208 65 216 c 0,376,377
 65 219 65 219 67 257 c 0,378,379
 67 292 67 292 65 300 c 1,380,381
 64 302 64 302 62 309 c 128,-1,382
 60 316 60 316 59 319 c 0,383,384
 55 327 55 327 55 334 c 0,385,386
 55 342 55 342 58 350 c 0,387,388
 60 358 60 358 60 370 c 0,389,390
 60 381 60 381 62 391 c 256,391,392
 64 401 64 401 61 415 c 0,393,394
 59 428 59 428 57 432 c 256,395,396
 55 436 55 436 55 442 c 0,397,398
 55 449 55 449 57 453 c 0,399,400
 59 458 59 458 61 469 c 0,401,402
 63 476 63 476 63 491 c 0,403,404
 62 503 62 503 67 512 c 0,405,406
 73 524 73 524 76 527 c 0,407,408
 80 532 80 532 81 552 c 256,409,410
 82 572 82 572 87 581 c 0,411,412
 92 594 92 594 95 604 c 0,413,414
 98 617 98 617 103 622 c 1,415,416
 107 629 107 629 110 635 c 0,417,418
 111 638 111 638 116 651 c 0,419,420
 120 660 120 660 123 661 c 1,421,422
 124 661 124 661 131 671 c 1,423,424
 135 679 135 679 140 680 c 0,425,426
 147 682 147 682 151 685 c 1,427,428
 156 690 156 690 157 693 c 0,429,430
 161 700 161 700 164 701 c 1,431,432
 170 705 170 705 171 708 c 0,433,434
 172 710 172 710 177 723 c 0,435,436
 181 734 181 734 185 735 c 1,437,438
 187 736 187 736 202 736 c 0,439,440
 218 738 218 738 226 740 c 0,441,442
 238 744 238 744 247 744 c 0,443,444
 258 744 258 744 264 749 c 0,445,446
 269 754 269 754 275 756 c 0,447,448
 278 757 278 757 289 757 c 0,449,450
 296 757 296 757 302 759 c 1,451,-1
 310 763 l 2,121,122
EndSplineSet
EndChar

StartChar: uni0037
Encoding: 55 55 26
Width: 537
GlyphClass: 2
Flags: W
LayerCount: 2
Fore
SplineSet
71 744 m 0,0,1
 73 744 73 744 79 744 c 128,-1,2
 85 744 85 744 87 744 c 0,3,4
 92 744 92 744 94 744 c 0,5,6
 105 744 105 744 111 741 c 0,7,8
 118 737 118 737 174 737 c 0,9,10
 232 737 232 737 238 734 c 128,-1,11
 244 731 244 731 270 731 c 0,12,13
 308 731 308 731 324 732 c 0,14,15
 362 732 362 732 374 731 c 0,16,17
 393 729 393 729 405 727 c 1,18,19
 409 725 409 725 428 723 c 0,20,21
 439 722 439 722 454 714 c 0,22,23
 468 706 468 706 469 702 c 1,24,25
 471 698 471 698 471 690 c 0,26,27
 471 680 471 680 474 669 c 0,28,29
 476 661 476 661 476 654 c 0,30,31
 476 649 476 649 475 637 c 0,32,33
 470 608 470 608 468 604 c 0,34,35
 462 582 462 582 462 579 c 0,36,37
 462 568 462 568 456 558 c 1,38,39
 451 546 451 546 450 541 c 0,40,41
 447 529 447 529 443 517 c 0,42,43
 437 500 437 500 434 495 c 0,44,45
 431 489 431 489 421 471 c 0,46,47
 412 453 412 453 410 447 c 0,48,49
 408 439 408 439 408 433 c 1,50,51
 407 427 407 427 399 421 c 0,52,53
 391 414 391 414 389 403 c 0,54,55
 387 390 387 390 382 382 c 0,56,57
 379 377 379 377 374 362 c 1,58,59
 373 354 373 354 369 347 c 1,60,61
 367 345 367 345 355 321 c 0,62,63
 342 289 342 289 338 278 c 0,64,65
 336 272 336 272 332.5 260.5 c 128,-1,66
 329 249 329 249 329 247 c 1,67,68
 325 237 325 237 325 234 c 128,-1,69
 325 231 325 231 317 213 c 0,70,71
 315 209 315 209 310 200.5 c 128,-1,72
 305 192 305 192 304 190 c 1,73,74
 300 186 300 186 296 174 c 0,75,76
 292 163 292 163 287 157 c 1,77,78
 282 148 282 148 278 132 c 0,79,80
 275 116 275 116 271 112 c 1,81,-1
 269 108 l 2,82,83
 267 105 267 105 266 103 c 0,84,85
 263 97 263 97 263 86 c 0,86,87
 263 78 263 78 261 70 c 0,88,89
 259 65 259 65 256 60 c 1,90,91
 252 56 252 56 251 43 c 2,92,-1
 249 29 l 1,93,94
 245 24 245 24 240 19 c 0,95,96
 233 12 233 12 227 11 c 128,-1,97
 221 10 221 10 193 9 c 0,98,99
 155 9 155 9 149 10 c 1,100,101
 147 11 147 11 141.5 13 c 128,-1,102
 136 15 136 15 134 16 c 0,103,104
 126 20 126 20 125 26 c 1,105,-1
 125 53 l 2,106,107
 125 74 125 74 131 79 c 0,108,109
 135 82 135 82 139 93 c 0,110,111
 145 108 145 108 146 110 c 0,112,113
 151 120 151 120 151 122 c 1,114,115
 152 126 152 126 157 133 c 1,116,117
 161 137 161 137 165 149 c 0,118,119
 170 163 170 163 175 175 c 0,120,121
 176 178 176 178 180 188 c 128,-1,122
 184 198 184 198 185 201 c 0,123,124
 188 213 188 213 192 220 c 1,125,126
 192 221 192 221 195.5 226.5 c 128,-1,127
 199 232 199 232 200 235 c 2,128,-1
 209 256 l 2,129,130
 214 269 214 269 216 280 c 0,131,132
 217 283 217 283 218 288 c 2,133,-1
 219 292 l 1,134,135
 221 294 221 294 225 300 c 128,-1,136
 229 306 229 306 235 319 c 1,137,138
 237 327 237 327 241 339 c 0,139,140
 243 343 243 343 255 369 c 2,141,-1
 267 393 l 1,142,143
 267 398 267 398 271 406 c 0,144,145
 272 408 272 408 274.5 415 c 128,-1,146
 277 422 277 422 278 425 c 0,147,148
 280 433 280 433 288 450 c 0,149,150
 297 470 297 470 297 477 c 1,151,152
 299 485 299 485 303 494 c 1,153,154
 304 499 304 499 311 513 c 2,155,-1
 320 531 l 1,156,157
 325 538 325 538 326 538 c 1,158,159
 329 541 329 541 332 548 c 1,160,161
 334 556 334 556 340 571 c 2,162,-1
 351 592 l 1,163,164
 356 597 356 597 358 603 c 1,165,166
 361 608 361 608 359 613 c 2,167,168
 359 616 359 616 354 624 c 0,169,170
 350 629 350 629 344 629 c 128,-1,171
 338 629 338 629 332 627 c 1,172,173
 324 626 324 626 313 629 c 0,174,175
 301 633 301 633 293 633 c 0,176,177
 284 633 284 633 276 636 c 0,178,179
 266 639 266 639 202 639 c 0,180,181
 165 640 165 640 114 640 c 0,182,183
 91 640 91 640 88 642 c 0,184,185
 84 644 84 644 81 647 c 1,186,187
 73 651 73 651 68 652 c 0,188,189
 56 654 56 654 54 654 c 1,190,191
 48 657 48 657 45 660 c 0,192,193
 39 664 39 664 37 670 c 1,194,195
 34 674 34 674 34 701 c 0,196,197
 34 726 34 726 36 730 c 0,198,199
 37 733 37 733 48 738 c 0,200,201
 63 743 63 743 71 744 c 0,0,1
EndSplineSet
EndChar

StartChar: uni0038
Encoding: 56 56 27
Width: 584
GlyphClass: 2
Flags: W
LayerCount: 2
Fore
SplineSet
296 343 m 0,0,1
 291 345 291 345 266 347 c 0,2,3
 257 348 257 348 249.5 348 c 128,-1,4
 242 348 242 348 240 347 c 2,5,6
 235 347 235 347 231 343 c 1,7,8
 228 339 228 339 218 337 c 0,9,10
 210 335 210 335 201 331 c 0,11,12
 193 327 193 327 183 317 c 0,13,14
 171 305 171 305 165 292 c 0,15,16
 159 281 159 281 157 267 c 0,17,18
 156 259 156 259 148 243 c 0,19,20
 141 230 141 230 141 222 c 0,21,22
 141 215 141 215 144 209 c 1,23,24
 147 198 147 198 148 189 c 0,25,26
 148 185 148 185 149 181 c 128,-1,27
 150 177 150 177 151 172 c 128,-1,28
 152 167 152 167 152 165 c 1,29,30
 155 158 155 158 155 149 c 0,31,32
 155 142 155 142 162 134 c 0,33,34
 169 127 169 127 175 119 c 0,35,36
 177 117 177 117 192 104 c 1,37,38
 205 97 205 97 216 93 c 0,39,40
 231 89 231 89 238 83 c 2,41,42
 250 76 250 76 252 74 c 1,43,44
 255 73 255 73 258 73 c 256,45,46
 261 73 261 73 272 75 c 0,47,48
 286 79 286 79 301 77 c 0,49,50
 315 75 315 75 326 77 c 0,51,52
 339 79 339 79 347 82 c 128,-1,53
 355 85 355 85 363 90 c 0,54,55
 372 96 372 96 376 98 c 0,56,57
 385 104 385 104 386 105 c 0,58,59
 390 109 390 109 395 117 c 0,60,61
 401 128 401 128 404 129 c 1,62,63
 407 131 407 131 415 148 c 0,64,65
 417 152 417 152 428 177 c 1,66,67
 432 192 432 192 432 212 c 0,68,69
 432 235 432 235 428 248 c 0,70,71
 428 249 428 249 425 259 c 128,-1,72
 422 269 422 269 421 273 c 0,73,74
 418 285 418 285 413 288 c 1,75,76
 408 290 408 290 405 299 c 0,77,78
 402 307 402 307 392 309 c 0,79,80
 383 311 383 311 373 319 c 0,81,82
 363 326 363 326 356 328 c 0,83,84
 346 331 346 331 333 332 c 0,85,86
 318 334 318 334 310 337 c 0,87,88
 300 342 300 342 296 343 c 0,0,1
288 678 m 1,89,90
 282 681 282 681 270 681 c 0,91,92
 259 681 259 681 253 679 c 256,93,94
 247 677 247 677 240 673 c 0,95,96
 235 670 235 670 225 668 c 0,97,98
 213 666 213 666 206 662 c 0,99,100
 195 655 195 655 191 650 c 2,101,102
 187 647 187 647 182 637 c 1,103,104
 180 630 180 630 172 622 c 0,105,106
 166 616 166 616 160 606 c 0,107,108
 156 597 156 597 154 579 c 0,109,110
 150 558 150 558 152 549 c 0,111,112
 154 535 154 535 158 529 c 2,113,114
 162 519 162 519 167 514 c 0,115,116
 171 510 171 510 173 504 c 256,117,118
 175 498 175 498 187 481 c 0,119,120
 201 463 201 463 215 455 c 0,121,122
 230 448 230 448 236 446 c 1,123,124
 238 446 238 446 245 444 c 128,-1,125
 252 442 252 442 255 441 c 0,126,127
 262 439 262 439 274 435 c 0,128,129
 279 433 279 433 291 435 c 256,130,131
 303 437 303 437 311 436 c 0,132,133
 319 434 319 434 329 437 c 0,134,135
 332 438 332 438 346 445 c 1,136,137
 353 450 353 450 360 459 c 0,138,139
 369 470 369 470 370 476 c 1,140,141
 374 484 374 484 380 486 c 1,142,143
 386 489 386 489 389 492 c 0,144,145
 391 494 391 494 397 506 c 0,146,147
 402 516 402 516 404 518 c 1,148,149
 406 518 406 518 409 525 c 0,150,151
 412 533 412 533 412 560 c 0,152,153
 412 582 412 582 411 587.5 c 128,-1,154
 410 593 410 593 405 604 c 0,155,156
 397 622 397 622 396 624 c 1,157,158
 396 626 396 626 388 636 c 0,159,160
 382 644 382 644 378 650 c 0,161,162
 375 656 375 656 367 662 c 0,163,164
 357 668 357 668 354 668 c 1,165,166
 345 671 345 671 341 673 c 0,167,168
 332 676 332 676 315 676 c 0,169,170
 294 676 294 676 288 678 c 1,89,90
301 761 m 0,171,172
 309 764 309 764 313 764 c 0,173,174
 316 764 316 764 326 762 c 1,175,176
 332 759 332 759 354 757 c 0,177,178
 374 756 374 756 395 748 c 0,179,180
 422 737 422 737 423 736 c 1,181,182
 425 735 425 735 439 729 c 0,183,184
 449 726 449 726 453 720 c 0,185,186
 459 711 459 711 463 709 c 0,187,188
 469 706 469 706 472 703 c 1,189,190
 475 702 475 702 488 691 c 0,191,192
 499 680 499 680 500 673 c 1,193,194
 503 665 503 665 507 648 c 0,195,196
 514 627 514 627 520 616 c 256,197,198
 526 605 526 605 527 600.5 c 128,-1,199
 528 596 528 596 528 579 c 0,200,201
 528 573 528 573 528 568 c 0,202,203
 528 556 528 556 525 547 c 0,204,205
 524 544 524 544 521.5 534.5 c 128,-1,206
 519 525 519 525 518 521 c 256,207,208
 517 517 517 517 513.5 508 c 128,-1,209
 510 499 510 499 509 496 c 0,210,211
 502 481 502 481 495 472 c 0,212,213
 482 454 482 454 478 447 c 0,214,215
 473 439 473 439 470.5 436.5 c 128,-1,216
 468 434 468 434 461 433 c 1,217,218
 451 430 451 430 441 421 c 0,219,220
 429 411 429 411 428 407 c 1,221,222
 425 402 425 402 427 395 c 256,223,224
 429 388 429 388 436 383 c 2,225,226
 441 376 441 376 448 374 c 0,227,228
 453 373 453 373 460 366 c 0,229,230
 466 359 466 359 475 357 c 1,231,232
 485 353 485 353 490 348 c 2,233,234
 492 347 492 347 494.5 344.5 c 128,-1,235
 497 342 497 342 500 338.5 c 128,-1,236
 503 335 503 335 505 333 c 0,237,238
 513 323 513 323 514 315 c 0,239,240
 515 310 515 310 521 298 c 1,241,242
 522 297 522 297 532 280 c 1,243,244
 536 269 536 269 536 245 c 0,245,246
 536 238 536 238 537.5 220.5 c 128,-1,247
 539 203 539 203 539 197 c 0,248,249
 541 171 541 171 541 165 c 0,250,251
 541 157 541 157 535 145 c 0,252,253
 533 142 533 142 530 134.5 c 128,-1,254
 527 127 527 127 526 125 c 0,255,256
 525 122 525 122 523 115.5 c 128,-1,257
 521 109 521 109 521 108 c 0,258,259
 520 103 520 103 514 94 c 1,260,261
 507 87 507 87 499 74 c 2,262,-1
 489 60 l 1,263,264
 487 60 487 60 480 53 c 1,265,266
 473 48 473 48 468 45 c 0,267,268
 460 41 460 41 450 31 c 0,269,270
 437 19 437 19 430 17 c 1,271,272
 427 17 427 17 412 12 c 0,273,274
 399 8 399 8 394 5 c 0,275,276
 392 4 392 4 388 2.5 c 128,-1,277
 384 1 384 1 383 1 c 2,278,279
 378 -1 378 -1 367 1 c 0,280,281
 355 2 355 2 343 0 c 0,282,283
 332 -3 332 -3 313 -5 c 0,284,285
 295 -7 295 -7 281 -7 c 0,286,287
 266 -7 266 -7 260 -9 c 1,288,289
 250 -9 250 -9 243 -7 c 0,290,291
 228 -4 228 -4 225 -4 c 0,292,293
 215 -4 215 -4 206 -1 c 0,294,295
 192 4 192 4 183 5 c 2,296,297
 177 7 177 7 162 10 c 0,298,299
 152 12 152 12 145 17 c 0,300,301
 132 25 132 25 131 25 c 0,302,303
 124 27 124 27 119 30 c 0,304,305
 116 32 116 32 107 43 c 0,306,307
 102 51 102 51 98 55 c 2,308,-1
 89 64 l 2,309,310
 82 71 82 71 73 87 c 0,311,312
 64 100 64 100 59 111 c 0,313,314
 56 118 56 118 52 122 c 0,315,316
 50 124 50 124 46 130 c 1,317,318
 44 136 44 136 44 146 c 0,319,320
 44 157 44 157 41 163 c 0,321,322
 39 168 39 168 39 183 c 1,323,324
 42 202 42 202 43 205 c 1,325,326
 44 214 44 214 42 221 c 1,327,328
 39 227 39 227 39 234 c 0,329,330
 39 240 39 240 41 246 c 1,331,332
 44 249 44 249 46 261 c 0,333,334
 48 271 48 271 50 278 c 0,335,336
 52 284 52 284 56 288 c 1,337,338
 61 296 61 296 67 309 c 2,339,-1
 75 327 l 1,340,341
 79 337 l 2,342,343
 83 346 83 346 90 348 c 1,344,345
 98 352 98 352 104 358 c 0,346,347
 113 367 113 367 117 369 c 0,348,349
 119 370 119 370 134 382 c 0,350,351
 144 392 144 392 144 398 c 128,-1,352
 144 404 144 404 142 406 c 0,353,354
 141 407 141 407 138.5 410.5 c 128,-1,355
 136 414 136 414 135 415 c 0,356,357
 129 423 129 423 121 426 c 0,358,359
 111 431 111 431 97 445 c 0,360,361
 81 463 81 463 73 474 c 0,362,363
 62 491 62 491 61 496 c 2,364,-1
 57 512 l 2,365,366
 54 527 54 527 53 534 c 0,367,368
 50 545 50 545 52 564 c 0,369,370
 52 577 52 577 55 589 c 1,371,372
 58 595 58 595 58 612 c 128,-1,373
 58 629 58 629 66 648 c 0,374,375
 72 666 72 666 78 674 c 0,376,377
 80 678 80 678 85 683 c 0,378,379
 88 686 88 686 91 692 c 1,380,381
 97 700 97 700 99 702 c 0,382,383
 108 708 108 708 113 712 c 1,384,-1
 139 725 l 2,385,386
 157 735 157 735 159 736 c 1,387,388
 164 741 164 741 168 742 c 2,389,390
 173 745 173 745 192 751 c 0,391,392
 206 756 206 756 213.5 756.5 c 128,-1,393
 221 757 221 757 252 757 c 0,394,395
 290 757 290 757 301 761 c 0,171,172
EndSplineSet
EndChar

StartChar: uni0039
Encoding: 57 57 28
Width: 600
GlyphClass: 2
Flags: W
LayerCount: 2
Fore
SplineSet
310 658 m 0,0,1
 295 661 295 661 281 661 c 2,2,-1
 259 661 l 1,3,-1
 254 659 l 2,4,5
 250 657 250 657 247 655 c 0,6,7
 236 649 236 649 229 648 c 1,8,-1
 217 644 l 1,9,10
 216 643 216 643 211.5 639.5 c 128,-1,11
 207 636 207 636 204 633 c 0,12,13
 197 626 197 626 187 612 c 0,14,15
 184 608 184 608 180 602 c 2,16,-1
 177 596 l 2,17,18
 176 594 176 594 174 578 c 0,19,20
 172 563 172 563 168 555 c 0,21,22
 163 545 163 545 162 507 c 0,23,24
 161 490 161 490 161 478 c 128,-1,25
 161 466 161 466 162 463 c 0,26,27
 164 457 164 457 168 453 c 128,-1,28
 172 449 172 449 175 435 c 0,29,30
 177 421 177 421 181 417 c 0,31,32
 182 416 182 416 185 411.5 c 128,-1,33
 188 407 188 407 189 406 c 0,34,35
 191 404 191 404 196 398 c 128,-1,36
 201 392 201 392 202 390 c 1,37,38
 210 383 210 383 216 374 c 0,39,40
 221 365 221 365 234 359 c 0,41,42
 247 352 247 352 264 350 c 0,43,44
 280 350 280 350 290 346 c 0,45,46
 299 342 299 342 314 342 c 0,47,48
 327 342 327 342 336 346 c 0,49,50
 344 349 344 349 354 359 c 0,51,52
 366 369 366 369 370 370 c 0,53,54
 376 371 376 371 380 377 c 0,55,56
 386 385 386 385 393 394 c 0,57,58
 403 405 403 405 407 419 c 0,59,60
 410 427 410 427 414 439 c 1,61,62
 414 440 414 440 416.5 446.5 c 128,-1,63
 419 453 419 453 420 456 c 0,64,65
 422 463 422 463 422 466.5 c 128,-1,66
 422 470 422 470 420 475 c 1,67,68
 419 484 419 484 421 493 c 0,69,70
 422 500 422 500 422 503 c 128,-1,71
 422 506 422 506 421 512 c 1,72,73
 419 517 419 517 417 538 c 0,74,75
 416 551 416 551 409 568 c 0,76,77
 403 584 403 584 403 586 c 0,78,79
 403 590 403 590 399 598 c 128,-1,80
 395 606 395 606 388 613 c 0,81,82
 378 623 378 623 375 627 c 0,83,84
 370 633 370 633 363 638 c 0,85,86
 362 639 362 639 347 648 c 0,87,88
 335 654 335 654 328 654 c 1,89,90
 316 657 316 657 310 658 c 0,0,1
219 755 m 128,-1,92
 223 757 223 757 238 757 c 1,93,94
 252 755 252 755 300 755 c 0,95,96
 336 754 336 754 343.5 753.5 c 128,-1,97
 351 753 351 753 359 749 c 2,98,99
 374 739 l 2,100,101
 376 737 376 737 379.5 734.5 c 128,-1,102
 383 732 383 732 384 731 c 256,103,104
 385 730 385 730 395 727 c 0,105,106
 407 724 407 724 413 723 c 0,107,108
 424 720 424 720 428 716 c 1,109,110
 430 712 430 712 438 710 c 1,111,112
 445 706 445 706 457 698 c 0,113,114
 468 689 468 689 471 683 c 0,115,116
 475 676 475 676 485 667 c 0,117,118
 496 658 496 658 498 654 c 256,119,120
 500 650 500 650 500 645 c 0,121,122
 500 638 500 638 510 620 c 0,123,124
 518 605 518 605 519.5 600 c 128,-1,125
 521 595 521 595 521 581 c 0,126,127
 521 566 521 566 521.5 563 c 128,-1,128
 522 560 522 560 526 556 c 0,129,130
 531 552 531 552 534 541 c 0,131,132
 536 532 536 532 538 522 c 1,133,134
 541 516 541 516 545 494 c 0,135,136
 548 474 548 474 549 434 c 0,137,138
 550 411 550 411 550 380 c 0,139,140
 550 370 550 370 548 340 c 0,141,142
 547 314 547 314 544 307 c 1,143,144
 541 303 541 303 541 293 c 0,145,146
 541 290 541 290 542 273 c 0,147,148
 543 257 543 257 543 252 c 0,149,150
 543 243 543 243 539 234 c 0,151,152
 534 224 534 224 533 205 c 128,-1,153
 532 186 532 186 526 174 c 0,154,155
 523 167 523 167 514 152 c 0,156,157
 508 144 508 144 507 132 c 1,158,159
 504 120 504 120 499 114 c 2,160,-1
 489 100 l 1,161,162
 486 92 486 92 476 82 c 1,163,164
 472 79 472 79 454 58 c 0,165,166
 442 44 442 44 441 43 c 1,167,168
 441 42 441 42 427 34 c 0,169,170
 417 28 417 28 403 19 c 1,171,172
 394 11 394 11 383 8 c 0,173,174
 374 6 374 6 365 2 c 1,175,-1
 345 -2 l 2,176,177
 334 -4 334 -4 323 -8 c 1,178,179
 308 -11 308 -11 304 -11 c 0,180,181
 292 -11 292 -11 280 -8 c 2,182,183
 270 -7 270 -7 251 -2 c 0,184,185
 237 0 237 0 233 0 c 1,186,187
 230 -1 230 -1 217 1 c 0,188,189
 214 2 214 2 200 5 c 1,190,191
 192 8 192 8 190 10 c 0,192,193
 187 13 187 13 173 17 c 0,194,195
 164 21 164 21 146 23 c 0,196,197
 135 24 135 24 127 27 c 0,198,199
 123 28 123 28 116 37 c 128,-1,200
 109 46 109 46 108 50 c 1,201,202
 104 55 104 55 99 68 c 2,203,-1
 91 84 l 1,204,205
 88 85 88 85 79 104 c 0,206,207
 71 122 71 122 71 124 c 0,208,209
 71 127 71 127 67 135 c 0,210,211
 63 145 63 145 64 160 c 0,212,213
 64 176 64 176 68 183 c 0,214,215
 69 186 69 186 80 199 c 0,216,217
 87 207 87 207 90.5 208 c 128,-1,218
 94 209 94 209 108 209 c 0,219,220
 128 209 128 209 134 206 c 1,221,222
 139 202 139 202 152 198 c 0,223,224
 163 194 163 194 168 191 c 0,225,226
 172 189 172 189 175 180 c 0,227,228
 177 171 177 171 181 167 c 1,229,230
 184 162 184 162 188 153 c 128,-1,231
 192 144 192 144 197 135 c 0,232,233
 204 125 204 125 207 120 c 0,234,235
 213 112 213 112 219 106 c 0,236,237
 226 98 226 98 234 96 c 0,238,239
 243 93 243 93 259 93 c 0,240,241
 271 93 271 93 291 89 c 0,242,243
 303 86 303 86 311 86 c 0,244,245
 318 86 318 86 327 89 c 128,-1,246
 336 92 336 92 340 98 c 0,247,248
 344 105 344 105 355 107 c 128,-1,249
 366 109 366 109 370 112 c 0,250,251
 375 116 375 116 381 127 c 0,252,253
 384 133 384 133 393 145 c 0,254,255
 400 154 400 154 403 161 c 0,256,257
 406 167 406 167 406 171 c 0,258,259
 406 174 406 174 413 184 c 0,260,261
 415 187 415 187 418.5 193 c 128,-1,262
 422 199 422 199 422 200 c 2,263,264
 424 206 424 206 424 211 c 0,265,266
 424 218 424 218 427 225 c 0,267,268
 428 228 428 228 430 236.5 c 128,-1,269
 432 245 432 245 433 247 c 1,270,-1
 437 275 l 1,271,272
 437 293 437 293 435 300 c 0,273,274
 433 309 433 309 429 311 c 1,275,276
 426 314 426 314 422 314 c 1,277,-1
 418 311 l 2,278,279
 414 308 414 308 412 306 c 0,280,281
 408 302 408 302 399 296 c 2,282,-1
 385 286 l 1,283,284
 380 279 380 279 373 279 c 1,285,286
 367 277 367 277 359 273 c 0,287,288
 351 268 351 268 340 266 c 0,289,290
 326 264 326 264 325 263 c 1,291,292
 316 260 316 260 306 260 c 1,293,294
 287 257 287 257 278 255 c 0,295,296
 262 252 262 252 254 255 c 1,297,298
 244 257 244 257 230 259 c 0,299,300
 214 260 214 260 201 266 c 0,301,302
 190 273 190 273 181 273 c 1,303,304
 174 274 174 274 168 280 c 128,-1,305
 162 286 162 286 148 293 c 0,306,307
 131 300 131 300 125 302 c 0,308,309
 121 304 121 304 116 308 c 1,310,311
 114 313 114 313 112 319 c 1,312,313
 111 325 111 325 101 336 c 2,314,-1
 91 347 l 1,315,-1
 83 363 l 2,316,317
 72 382 72 382 70 388 c 2,318,-1
 63 409 l 2,319,320
 62 413 62 413 59 421 c 128,-1,321
 56 429 56 429 55 431 c 0,322,323
 51 439 51 439 49 455 c 0,324,325
 47 472 47 472 48 476 c 1,326,327
 48 502 48 502 49 524 c 0,328,329
 49 566 49 566 51 572 c 2,330,331
 51 579 51 579 57 591 c 0,332,333
 62 601 62 601 64 613 c 0,334,335
 69 629 69 629 74 637 c 0,336,337
 80 649 80 649 84 661 c 0,338,339
 87 671 87 671 102 686 c 0,340,341
 116 702 116 702 128 709 c 0,342,343
 140 715 140 715 145 720 c 0,344,345
 151 726 151 726 163 733 c 0,346,347
 176 741 176 741 187 742 c 0,348,349
 201 744 201 744 203 744 c 1,350,351
 207 746 207 746 211 749 c 1,352,91
 215 753 215 753 219 755 c 128,-1,92
EndSplineSet
EndChar

StartChar: uni003A
Encoding: 58 58 29
Width: 326
GlyphClass: 2
Flags: W
LayerCount: 2
Fore
SplineSet
133 141 m 0,0,1
 147 146 147 146 159 146 c 128,-1,2
 171 146 171 146 179 144 c 1,3,4
 185 141 185 141 190 141 c 0,5,6
 193 141 193 141 205 136 c 0,7,8
 216 130 216 130 219 125 c 1,9,10
 221 119 221 119 221 115 c 0,11,12
 221 108 221 108 224 101 c 0,13,14
 228 89 228 89 228 85 c 2,15,-1
 225 70 l 1,16,17
 221 60 221 60 221 51 c 1,18,19
 219 41 219 41 217 39 c 1,20,21
 214 33 214 33 212 31 c 0,22,23
 209 28 209 28 201 24 c 0,24,25
 196 22 196 22 160 22 c 128,-1,26
 124 22 124 22 121 24 c 2,27,28
 120 24 120 24 111 33 c 0,29,30
 109 36 109 36 101 49 c 0,31,32
 97 57 97 57 97 64 c 0,33,34
 97 65 97 65 100 80 c 1,35,36
 103 88 103 88 102 100 c 1,37,38
 99 110 99 110 101 114 c 2,39,40
 101 115 101 115 111 127 c 0,41,42
 120 136 120 136 133 141 c 0,0,1
129 519 m 0,43,44
 136 521 136 521 142 521 c 0,45,46
 148 521 l 0,47,48
 154 520 154 520 166 520 c 0,49,50
 177 520 177 520 183 521 c 1,51,52
 192 521 192 521 204 515 c 0,53,54
 215 510 215 510 218 505 c 0,55,56
 221 499 221 499 221 459 c 0,57,58
 221 420 221 420 219 414 c 1,59,60
 216 409 216 409 210 406 c 0,61,62
 204 402 204 402 170 401 c 0,63,64
 148 400 148 400 143 400 c 0,65,66
 135 400 135 400 127 403 c 256,67,68
 119 406 119 406 114 411 c 1,69,70
 110 418 110 418 107 424 c 1,71,72
 104 439 104 439 103 448 c 0,73,74
 100 468 100 468 100 470 c 1,75,76
 97 477 97 477 101 489 c 0,77,78
 106 500 106 500 114 508 c 0,79,80
 121 517 121 517 129 519 c 0,43,44
EndSplineSet
EndChar

StartChar: uni003B
Encoding: 59 59 30
Width: 276
GlyphClass: 2
Flags: W
LayerCount: 2
Fore
SplineSet
133 130 m 0,0,1
 145 134 145 134 150 134 c 0,2,3
 157 134 157 134 165 132 c 0,4,5
 174 129 174 129 184 132 c 0,6,7
 193 135 193 135 200 133 c 1,8,9
 204 133 204 133 215 124 c 0,10,11
 223 116 223 116 223 109 c 0,12,13
 223 101 223 101 219 94 c 0,14,15
 215 86 215 86 215 77 c 0,16,17
 215 71 215 71 212 62 c 1,18,-1
 202 47 l 2,19,20
 196 37 196 37 194 37 c 0,21,22
 193 37 193 37 189 33 c 1,23,24
 187 29 187 29 185 11 c 0,25,26
 184 1 184 1 183.5 -2 c 128,-1,27
 183 -5 183 -5 182 -7 c 128,-1,28
 181 -9 181 -9 177 -11 c 0,29,30
 170 -14 170 -14 168 -19 c 2,31,32
 167 -20 167 -20 166 -24 c 128,-1,33
 165 -28 165 -28 165 -29 c 0,34,35
 163 -38 163 -38 158 -49 c 2,36,37
 154 -63 154 -63 147 -77 c 128,-1,38
 140 -91 140 -91 138 -99 c 1,39,40
 134 -108 134 -108 132 -109 c 0,41,42
 119 -115 119 -115 115 -117 c 0,43,44
 102 -122 102 -122 94 -122 c 0,45,46
 84 -122 84 -122 71 -117 c 0,47,48
 56 -112 56 -112 53 -108 c 0,49,50
 49 -101 49 -101 49 -90 c 0,51,52
 49 -84 49 -84 52 -76 c 0,53,54
 55 -67 55 -67 55 -62 c 0,55,56
 55 -59 55 -59 59 -53 c 1,57,58
 63 -49 63 -49 63 -42 c 0,59,60
 63 -41 63 -41 65 -34.5 c 128,-1,61
 67 -28 67 -28 68 -25 c 1,62,63
 68 -22 68 -22 71.5 -8.5 c 128,-1,64
 75 5 75 5 77 13 c 0,65,66
 85 43 85 43 87 47 c 0,67,68
 90 55 90 55 90 61 c 0,69,70
 90 68 90 68 92 74 c 0,71,72
 94 82 94 82 98 86 c 0,73,74
 103 91 103 91 103 102 c 1,75,76
 105 115 105 115 107 117 c 2,77,78
 109 122 109 122 116 124 c 0,79,80
 125 128 125 128 133 130 c 0,0,1
189 533 m 1,81,82
 198 536 198 536 201 536 c 0,83,84
 208 536 208 536 212 534 c 0,85,86
 218 531 218 531 219 527 c 2,87,88
 223 523 223 523 223 495 c 0,89,90
 223 468 223 468 225 452 c 0,91,92
 226 440 226 440 227 433.5 c 128,-1,93
 228 427 228 427 228 426 c 0,94,95
 228 422 228 422 227 418 c 0,96,97
 225 413 225 413 223 413 c 0,98,99
 220 413 220 413 212 403 c 0,100,101
 203 394 203 394 193 391 c 0,102,103
 185 389 185 389 178 389 c 0,104,105
 173 389 173 389 161 391 c 0,106,107
 151 393 151 393 143 392 c 0,108,109
 136 391 136 391 130 392 c 0,110,111
 123 394 123 394 118 397 c 0,112,113
 113 401 113 401 109 406 c 0,114,115
 105 412 105 412 105 418 c 1,116,-1
 104 424 l 1,117,118
 102 429 102 429 101 431 c 0,119,120
 99 437 99 437 99 446 c 0,121,122
 99 454 99 454 101 458 c 128,-1,123
 103 462 103 462 105 472 c 2,124,125
 109 483 109 483 107 493 c 1,126,127
 107 502 107 502 112 507 c 128,-1,128
 117 512 117 512 119 512 c 0,129,130
 122 512 122 512 122 514 c 1,131,132
 123 517 123 517 128 519 c 0,133,134
 134 522 134 522 153 522 c 0,135,136
 174 522 174 522 178 525 c 1,137,138
 184 527 184 527 184 529 c 0,139,140
 184 530 184 530 189 533 c 1,81,82
EndSplineSet
EndChar

StartChar: uni003C
Encoding: 60 60 31
Width: 683
GlyphClass: 2
Flags: W
LayerCount: 2
Fore
SplineSet
570 652 m 0,0,1
 573 653 573 653 589 653 c 128,-1,2
 605 653 605 653 609 651 c 0,3,4
 615 649 615 649 617 645 c 0,5,6
 620 641 620 641 620 630 c 0,7,8
 620 618 620 618 614 613 c 0,9,10
 608 607 608 607 606 600 c 0,11,12
 605 598 605 598 603 591.5 c 128,-1,13
 601 585 601 585 600 583 c 0,14,15
 598 576 598 576 596 574 c 128,-1,16
 594 572 594 572 584 568 c 0,17,18
 570 564 570 564 564 564 c 0,19,20
 557 564 557 564 553 560 c 128,-1,21
 549 556 549 556 549 555 c 0,22,23
 549 553 549 553 539 548 c 0,24,25
 528 541 528 541 523 539 c 2,26,27
 519 536 519 536 514 536 c 0,28,29
 511 536 511 536 503 530 c 0,30,31
 497 525 497 525 485 522 c 0,32,33
 477 521 477 521 469 515 c 1,34,35
 463 509 463 509 452 508 c 0,36,37
 445 507 445 507 442 505.5 c 128,-1,38
 439 504 439 504 431 496 c 0,39,40
 429 494 429 494 423.5 489.5 c 128,-1,41
 418 485 418 485 417 484 c 256,42,43
 416 483 416 483 404 481 c 0,44,45
 395 480 395 480 386 472 c 0,46,47
 381 467 381 467 368 459 c 0,48,49
 358 454 358 454 350 454 c 0,50,51
 340 454 340 454 334 448 c 0,52,53
 327 441 327 441 318 440 c 0,54,55
 308 438 308 438 307 438 c 1,56,57
 302 436 302 436 301 432 c 1,58,59
 298 427 298 427 296 427 c 0,60,61
 295 427 295 427 279 417 c 0,62,63
 262 407 262 407 257 407 c 0,64,65
 256 407 256 407 251 406 c 128,-1,66
 246 405 246 405 244 404 c 256,67,68
 242 403 242 403 234 398 c 1,69,70
 229 393 229 393 221 390 c 0,71,72
 209 384 209 384 204 383 c 1,73,74
 196 380 196 380 190 374 c 0,75,76
 186 370 186 370 186.5 367.5 c 128,-1,77
 187 365 187 365 197 355 c 0,78,79
 210 342 210 342 216 339 c 128,-1,80
 222 336 222 336 230 334 c 1,81,82
 237 334 237 334 241 332 c 2,83,84
 246 332 246 332 249 327 c 1,85,86
 255 323 255 323 269 316 c 0,87,88
 285 308 285 308 289 304 c 128,-1,89
 293 300 293 300 298 300 c 0,90,91
 305 300 305 300 308 299 c 0,92,93
 315 297 315 297 327 285 c 256,94,95
 339 273 339 273 348 272 c 0,96,97
 358 271 358 271 370 262 c 0,98,99
 384 252 384 252 388 251 c 1,100,101
 392 251 392 251 422 236 c 0,102,103
 453 220 453 220 460 215 c 0,104,105
 468 209 468 209 470 209 c 256,106,107
 472 209 472 209 492 196 c 0,108,109
 518 183 518 183 519 183 c 256,110,111
 520 183 520 183 523 182 c 0,112,113
 530 179 530 179 533 178 c 0,114,115
 546 173 546 173 549 172 c 0,116,117
 555 170 555 170 566 164 c 0,118,119
 577 157 577 157 586 153 c 0,120,121
 596 150 596 150 596 148 c 256,122,123
 596 146 596 146 602 144 c 0,124,125
 606 142 606 142 615 131 c 2,126,127
 620 123.5 l 130,-1,128
 625 116 625 116 626 113 c 1,129,130
 632 105 632 105 635 102 c 0,131,132
 640 97 640 97 640 92 c 2,133,134
 641 90 641 90 641 87 c 0,135,136
 641 81 641 81 639 78 c 2,137,138
 638 70 638 70 629 62 c 0,139,140
 618 53 618 53 614 52 c 0,141,142
 602 49 602 49 598 49 c 0,143,144
 591 49 591 49 581 53 c 1,145,146
 576 56 576 56 567 59 c 0,147,148
 562 60 562 60 558 67 c 256,149,150
 554 74 554 74 539 81 c 0,151,152
 525 87 525 87 519 93 c 0,153,154
 512 100 512 100 507 100 c 0,155,156
 499 100 499 100 496 101 c 0,157,158
 491 103 491 103 484 108 c 256,159,160
 477 113 477 113 472 113 c 256,161,162
 467 113 467 113 461 115 c 0,163,164
 454 118 454 118 449 125 c 0,165,166
 443 133 443 133 437 134 c 0,167,168
 433 135 433 135 426 140 c 1,169,170
 422 144 422 144 416 148 c 0,171,172
 411 152 411 152 401 152 c 0,173,174
 392 152 392 152 391 153 c 0,175,176
 388 156 388 156 385 162 c 0,177,178
 381 171 381 171 372 176 c 256,179,180
 363 181 363 181 356 183 c 0,181,182
 344 187 344 187 336 190 c 1,183,184
 324 197 324 197 317 197 c 1,185,186
 308 200 308 200 304 201 c 2,187,188
 288 205 l 2,189,190
 280 208 280 208 278 214 c 1,191,192
 274 220 274 220 269 225 c 1,193,194
 263 229 263 229 261 229 c 0,195,196
 258 229 258 229 246 236 c 0,197,198
 236 241 236 241 229 247 c 0,199,200
 224 252 224 252 213 254 c 0,201,202
 201 255 201 255 196 260 c 0,203,204
 193 262 193 262 187 265 c 1,205,206
 185 265 185 265 175 267 c 0,207,208
 166 268 166 268 164 273 c 0,209,210
 162 277 162 277 156 281 c 1,211,212
 151 287 151 287 146 294 c 0,213,214
 139 303 139 303 137 304 c 2,215,216
 135 306 135 306 131 306 c 0,217,218
 126 306 126 306 115 312 c 0,219,220
 101 318 101 318 98 321 c 0,221,222
 93 325 93 325 84 328 c 0,223,224
 74 332 74 332 65 340 c 0,225,226
 56 349 56 349 53 349 c 0,227,228
 51 349 51 349 49 352 c 0,229,230
 47 354 47 354 45 369 c 0,231,232
 43 377 43 377 43 383 c 0,233,234
 43 386 43 386 44 388 c 0,235,236
 46 392 46 392 52 395 c 1,237,238
 58 397 58 397 64 397 c 0,239,240
 66 397 66 397 71 397.5 c 128,-1,241
 76 398 76 398 77 398 c 1,242,243
 83 400 83 400 91 410 c 0,244,245
 98 420 98 420 111 426 c 0,246,247
 124 433 124 433 131 434 c 128,-1,248
 138 435 138 435 147 440 c 0,249,250
 151 442 151 442 160 445 c 0,251,252
 172 449 172 449 176 451 c 2,253,-1
 195 462 l 2,254,255
 205 468 205 468 215 473 c 0,256,257
 218 474 218 474 223 477 c 2,258,-1
 228 480 l 1,259,260
 232 484 232 484 236 485 c 1,261,262
 238 485 238 485 247 492 c 0,263,264
 248 493 248 493 253 496 c 128,-1,265
 258 499 258 499 260 500 c 1,266,267
 261 500 261 500 264 500.5 c 128,-1,268
 267 501 267 501 269 501 c 0,269,270
 273 501 273 501 283 505 c 1,271,-1
 295 514 l 1,272,273
 296 518 296 518 310 524 c 0,274,275
 322 531 322 531 334 533 c 0,276,277
 344 536 344 536 354 542 c 0,278,279
 361 547 361 547 372 549 c 1,280,281
 384 553 384 553 387 555 c 0,282,283
 388 556 388 556 397 562 c 1,284,285
 404 565 404 565 407 572 c 1,286,287
 412 579 412 579 419 583 c 0,288,289
 426 588 426 588 436 590 c 2,290,291
 443 593 443 593 452 595 c 1,292,293
 456 598 456 598 464 598 c 0,294,295
 470 598 470 598 484 605 c 0,296,297
 500 611 500 611 507 621 c 0,298,299
 516 632 516 632 524 634 c 1,300,301
 536 639 536 639 544 639 c 0,302,303
 554 640 554 640 560 645 c 0,304,305
 568 651 568 651 570 652 c 0,0,1
EndSplineSet
EndChar

StartChar: uni003D
Encoding: 61 61 32
Width: 713
GlyphClass: 2
Flags: W
LayerCount: 2
Fore
SplineSet
392 306 m 1,0,1
 393 306 393 306 395.5 306 c 128,-1,2
 398 306 398 306 399 306 c 0,3,4
 402 306 402 306 403 306 c 256,5,6
 404 306 404 306 413 303 c 1,7,8
 416 300 416 300 422 300 c 0,9,10
 423 300 423 300 435 303 c 0,11,12
 444 306 444 306 452 303 c 0,13,14
 459 300 459 300 513 299 c 2,15,-1
 574 299 l 1,16,-1
 595 299 l 2,17,18
 607 300 607 300 622 299 c 1,19,20
 638 295 638 295 645 291 c 0,21,22
 655 287 655 287 658 287 c 128,-1,23
 661 287 661 287 665 283 c 0,24,25
 668 280 668 280 668 270 c 0,26,27
 668 259 668 259 667 257 c 2,28,-1
 661 248 l 2,29,30
 659 246 659 246 654 236 c 1,31,32
 652 229 652 229 645 220 c 0,33,34
 635 210 635 210 630 208 c 0,35,36
 620 204 620 204 605 204 c 0,37,38
 586 202 586 202 584 200 c 1,39,40
 580 198 580 198 575 198 c 0,41,42
 568 198 568 198 565 201 c 1,43,44
 559 203 559 203 554 203 c 0,45,46
 548 203 548 203 544 201 c 0,47,48
 540 198 540 198 532 198 c 0,49,50
 525 198 525 198 517 203 c 0,51,52
 509 207 509 207 492 204 c 0,53,54
 479 203 479 203 469 200 c 1,55,56
 465 197 465 197 449 199 c 0,57,58
 435 199 435 199 429 202 c 0,59,60
 426 203 426 203 395 203 c 0,61,62
 368 203 368 203 346 200 c 0,63,64
 330 198 330 198 322 198 c 0,65,66
 316 198 l 0,67,68
 312 198 312 198 307 199 c 2,69,-1
 302 200 l 1,70,71
 294 204 294 204 287 205 c 0,72,73
 275 208 275 208 265 206 c 0,74,75
 256 203 256 203 233 203 c 0,76,77
 208 203 208 203 204 201 c 0,78,79
 198 198 198 198 174 198 c 0,80,81
 161 197 161 197 157 197 c 0,82,83
 149 197 149 197 144 202 c 256,84,85
 139 207 139 207 130 205 c 0,86,87
 120 203 120 203 97 203 c 0,88,89
 71 204 71 204 67 207 c 1,90,91
 59 211 59 211 54 211 c 1,92,93
 49 212 49 212 47 217 c 0,94,95
 45 221 45 221 45 242 c 0,96,97
 45 262 45 262 50 278 c 0,98,99
 52 282 52 282 58 295 c 1,100,101
 60 297 60 297 67 299 c 0,102,103
 71 300 71 300 82 300 c 0,104,105
 92 300 92 300 99 297 c 0,106,107
 109 293 109 293 117 293 c 0,108,109
 122 293 122 293 131 296 c 1,110,111
 137 299 137 299 151 301 c 0,112,113
 155 301 155 301 162 302 c 128,-1,114
 169 303 169 303 170 303 c 0,115,116
 175 304 175 304 182 302 c 0,117,118
 186 300 186 300 198 298 c 0,119,120
 201 298 201 298 208.5 297.5 c 128,-1,121
 216 297 216 297 218 296 c 1,122,123
 225 296 225 296 233 298 c 0,124,125
 238 300 238 300 297 300 c 0,126,127
 358 300 358 300 362 298 c 1,128,129
 370 297 370 297 378 300 c 0,130,131
 380 301 380 301 385 303 c 128,-1,132
 390 305 390 305 392 306 c 1,0,1
95 518 m 0,133,134
 103 521 103 521 108 521 c 0,135,136
 109 521 109 521 111 521 c 1,137,138
 121 518 121 518 122 517 c 1,139,140
 128 515 128 515 149 515 c 128,-1,141
 170 515 170 515 176 517 c 0,142,143
 183 520 183 520 203 519 c 0,144,145
 209 519 209 519 214.5 518.5 c 128,-1,146
 220 518 220 518 223.5 518 c 128,-1,147
 226 518 226 518 227 518 c 1,148,149
 227 517 227 517 235 519 c 0,150,151
 239 520 239 520 251 518 c 1,152,153
 257 515 257 515 268 515 c 0,154,155
 278 515 278 515 283 518 c 1,156,157
 291 520 291 520 305 520 c 128,-1,158
 319 520 319 520 327 518 c 0,159,160
 336 515 336 515 362 515 c 256,161,162
 388 515 388 515 396 518 c 0,163,164
 402 520 402 520 407 520 c 128,-1,165
 412 520 412 520 420 518 c 0,166,167
 426 516 426 516 440 519 c 0,168,169
 450 521 450 521 452.5 521 c 128,-1,170
 455 521 455 521 462 519 c 0,171,172
 471 516 471 516 497 516 c 0,173,174
 526 516 526 516 530 518 c 0,175,176
 536 520 536 520 541 520 c 0,177,178
 545 520 545 520 551 518 c 1,179,180
 554 515 554 515 568 515 c 128,-1,181
 582 515 582 515 585 518 c 1,182,183
 591 520 591 520 595 520 c 0,184,185
 600 520 600 520 606 518 c 1,186,187
 612 515 612 515 623 515 c 0,188,189
 638 513 638 513 644 510 c 1,190,191
 653 503 653 503 655 498 c 1,192,193
 660 491 660 491 661 491 c 0,194,195
 663 491 663 491 665 486 c 0,196,197
 667 482 667 482 667 476 c 0,198,199
 667 473 667 473 656 449 c 0,200,201
 646 429 646 429 639 426 c 0,202,203
 631 423 631 423 623 422 c 1,204,205
 616 419 616 419 593 419 c 0,206,207
 574 419 574 419 566 421 c 1,208,209
 560 424 560 424 543 421 c 0,210,211
 525 419 525 419 516 422 c 0,212,213
 508 425 508 425 499 423 c 0,214,215
 490 422 490 422 484 423 c 0,216,217
 476 425 476 425 442 425 c 0,218,219
 406 425 406 425 396 421 c 0,220,221
 387 418 387 418 384 418 c 128,-1,222
 381 418 381 418 372 421 c 256,223,224
 363 424 363 424 358 424 c 256,225,226
 353 424 353 424 332 422 c 0,227,228
 312 420 312 420 306.5 420 c 128,-1,229
 301 420 301 420 296 422 c 0,230,231
 290 425 290 425 278 425 c 0,232,233
 272 425 272 425 255 424 c 0,234,235
 245 424 245 424 225.5 423.5 c 128,-1,236
 206 423 206 423 201 423 c 0,237,238
 175 423 175 423 171 424 c 0,239,240
 161 425 161 425 156 423 c 1,241,242
 150 419 150 419 142 419 c 2,243,244
 136 418 136 418 124 421 c 0,245,246
 112 425 112 425 87 425 c 0,247,248
 61 425 61 425 57 427 c 0,249,250
 54 429 54 429 51 446 c 2,251,-1
 47 474 l 2,252,253
 45 485 45 485 48 493 c 0,254,255
 50 498 50 498 53 507 c 0,256,257
 54 511 54 511 58 513 c 0,258,259
 64 515 64 515 74 515 c 0,260,261
 88 515 88 515 95 518 c 0,133,134
EndSplineSet
EndChar

StartChar: uni003E
Encoding: 62 62 33
Width: 669
GlyphClass: 2
Flags: W
LayerCount: 2
Fore
SplineSet
67 645 m 0,0,1
 72 650 72 650 77 650 c 0,2,3
 80 650 80 650 92 648 c 0,4,5
 103 646 103 646 120 641 c 0,6,7
 138 635 138 635 150 626 c 0,8,9
 159 619 159 619 174 612 c 2,10,11
 180 608 180 608 190 605 c 0,12,13
 198 602 198 602 206 594 c 0,14,15
 216 585 216 585 230 584 c 128,-1,16
 244 583 244 583 249 579 c 0,17,18
 252 576 252 576 264 570 c 2,19,20
 274 563 274 563 279 563 c 1,21,22
 283 561 283 561 288 556 c 1,23,24
 291 551 291 551 298 549 c 0,25,26
 304 547 304 547 309 542 c 1,27,28
 314 535 314 535 323 535 c 1,29,30
 327 534 327 534 342 529 c 1,31,32
 355 522 355 522 361 518 c 0,33,34
 364 516 364 516 370 512.5 c 128,-1,35
 376 509 376 509 378 507 c 2,36,37
 386 502 386 502 395 495 c 0,38,39
 402 488 402 488 410 486 c 1,40,41
 416 486 416 486 420 482 c 128,-1,42
 424 478 424 478 434 473 c 0,43,44
 448 466 448 466 451 466 c 1,45,46
 463 462 463 462 467 460 c 0,47,48
 475 457 475 457 482 450 c 128,-1,49
 489 443 489 443 498 440 c 1,50,-1
 516 431 l 1,51,52
 520 428 520 428 533 424 c 0,53,54
 544 422 544 422 555 415 c 0,55,56
 566 410 566 410 571 405 c 0,57,58
 573 403 573 403 583 398 c 1,59,60
 590 396 590 396 596 390 c 1,61,62
 598 389 598 389 601.5 386.5 c 128,-1,63
 605 384 605 384 606 384 c 128,-1,64
 607 384 607 384 610.5 383.5 c 128,-1,65
 614 383 614 383 616 383 c 1,66,67
 623 381 623 381 624 379 c 1,68,69
 625 378 625 378 627 359 c 0,70,71
 627 341 627 341 621 337 c 1,72,73
 616 332 616 332 608 326 c 1,74,75
 604 320 604 320 593 315 c 0,76,77
 581 308 581 308 576 304 c 0,78,79
 572 300 572 300 559 292 c 1,80,81
 553 290 553 290 543 282 c 0,82,83
 537 276 537 276 531 274 c 0,84,85
 528 273 528 273 520 273 c 0,86,87
 516 273 516 273 511 268 c 0,88,89
 508 265 508 265 498 260 c 128,-1,90
 488 255 488 255 486 253 c 0,91,92
 483 249 483 249 475 247 c 0,93,94
 468 245 468 245 450 238 c 0,95,96
 431 231 431 231 424 225 c 0,97,98
 418 221 418 221 410 218 c 0,99,100
 404 216 404 216 395 209 c 0,101,102
 387 201 387 201 377 198 c 0,103,104
 372 197 372 197 363 194 c 1,105,-1
 358 189 l 2,106,107
 354 185 354 185 348 184 c 1,108,109
 339 180 339 180 334 177 c 1,110,111
 330 173 330 173 324 171 c 0,112,113
 320 169 320 169 315 169 c 0,114,115
 308 169 308 169 305 166 c 2,116,117
 301 165 301 165 295 155 c 0,118,119
 291 147 291 147 283 142 c 1,120,121
 273 138 273 138 267 135 c 1,122,123
 259 133 259 133 244 126 c 0,124,125
 232 121 232 121 209 109 c 0,126,127
 185 97 185 97 176 94 c 128,-1,128
 167 91 167 91 157 87 c 0,129,130
 155 86 155 86 138 77 c 0,131,132
 126 72 126 72 126 70 c 0,133,134
 126 69 126 69 119 62 c 128,-1,135
 112 55 112 55 100 53 c 128,-1,136
 88 51 88 51 76 51 c 0,137,138
 65 51 65 51 57 55 c 0,139,140
 50 59 50 59 46 64 c 0,141,142
 42 68 42 68 42 74 c 0,143,144
 42 79 42 79 44 87 c 1,145,146
 47 94 47 94 47 103 c 0,147,148
 48 111 48 111 58 121 c 0,149,150
 67 130 67 130 77 133 c 0,151,152
 84 136 84 136 91 142 c 1,153,154
 95 148 95 148 107 151 c 0,155,156
 118 155 118 155 127 160 c 0,157,158
 134 165 134 165 136 165 c 0,159,160
 137 165 137 165 141 169 c 128,-1,161
 145 173 145 173 158 176 c 0,162,163
 168 177 168 177 177 182 c 2,164,165
 183 184 183 184 188 189 c 1,166,167
 192 192 192 192 199 195 c 1,168,169
 207 197 207 197 212 202 c 0,170,171
 217 208 217 208 224 210 c 0,172,173
 234 212 234 212 239 215 c 0,174,175
 241 216 241 216 258 221 c 2,176,-1
 273 227 l 1,177,178
 276 229 276 229 292 239 c 0,179,180
 301 246 301 246 312 251 c 1,181,182
 320 253 320 253 325 258 c 0,183,184
 332 264 332 264 340 265 c 0,185,186
 342 265 342 265 346.5 265.5 c 128,-1,187
 351 266 351 266 352 267 c 2,188,189
 354 267 354 267 358 275 c 0,190,191
 362 282 362 282 368 285 c 1,192,193
 375 287 375 287 380 293 c 0,194,195
 386 299 386 299 393 300 c 1,196,197
 399 300 399 300 411 306 c 0,198,199
 416 309 416 309 433 314 c 0,200,201
 445 317 445 317 448 321 c 1,202,203
 453 326 453 326 459 329 c 0,204,205
 463 331 463 331 472 334 c 0,206,207
 481 336 481 336 486 340 c 2,208,209
 493 344 493 344 495 347 c 1,210,211
 496 351 496 351 495 355 c 0,212,213
 493 360 493 360 487 362 c 128,-1,214
 481 364 481 364 475 364 c 128,-1,215
 469 364 469 364 457 373 c 0,216,217
 450 377 450 377 436 384 c 0,218,219
 426 389 426 389 422 392 c 0,220,221
 419 395 419 395 410 398 c 0,222,223
 402 401 402 401 394 406 c 2,224,-1
 379 418 l 2,225,226
 372 424 372 424 363 427 c 0,227,228
 352 432 352 432 346 434 c 1,229,230
 344 434 344 434 333 440 c 1,231,232
 329 444 329 444 321 447 c 1,233,234
 320 447 320 447 303 452 c 0,235,236
 289 457 289 457 278 468 c 0,237,238
 266 479 266 479 255 483 c 0,239,240
 243 487 243 487 237 490 c 0,241,242
 235 491 235 491 223 495 c 0,243,244
 216 497 216 497 209 504 c 0,245,246
 200 513 200 513 191 516 c 2,247,248
 183 520 183 520 174 523 c 1,249,250
 167 524 167 524 158 533 c 0,251,252
 148 543 148 543 142 544 c 0,253,254
 138 544 138 544 124 548 c 0,255,256
 113 552 113 552 106 557 c 0,257,258
 100 562 100 562 85 569 c 0,259,260
 74 574 74 574 68 581 c 2,261,-1
 64 587 l 2,262,263
 61 593 61 593 59 595 c 1,264,265
 53 605 53 605 53 615 c 0,266,267
 53 626 53 626 58 634 c 0,268,269
 64 643 64 643 67 645 c 0,0,1
EndSplineSet
EndChar

StartChar: uni003F
Encoding: 63 63 34
Width: 488
GlyphClass: 2
Flags: W
LayerCount: 2
Fore
SplineSet
180 131 m 0,0,1
 188 133 188 133 195 133 c 0,2,3
 199 133 l 0,4,5
 208 133 208 133 216 129 c 0,6,7
 222 126 222 126 234 122 c 0,8,9
 245 119 245 119 249 113 c 1,10,11
 254 108 254 108 256 101 c 0,12,13
 257 98 257 98 257 90 c 0,14,15
 257 83 257 83 256 70 c 0,16,17
 255 47 255 47 251 35 c 0,18,19
 247 25 247 25 242 18 c 1,20,21
 237 13 237 13 222 12 c 0,22,23
 217 12 217 12 206 11.5 c 128,-1,24
 195 11 195 11 191 11 c 0,25,26
 186 11 186 11 182 11 c 0,27,28
 174 11 174 11 160 14 c 1,29,30
 144 20 144 20 142 22 c 0,31,32
 138 25 138 25 132 38 c 2,33,34
 126 47 126 47 126 55 c 0,35,36
 126 60 126 60 128 64 c 0,37,38
 129 66 129 66 131 84 c 0,39,40
 132 101 132 101 137 110 c 0,41,42
 142 120 142 120 150 124 c 0,43,44
 158 127 158 127 164 127 c 0,45,46
 168 127 168 127 180 131 c 0,0,1
153 761 m 1,47,48
 160 764 160 764 205 764 c 0,49,50
 250 763 250 763 255 760 c 0,51,52
 262 757 262 757 277 757 c 0,53,54
 290 757 290 757 300 755 c 1,55,56
 304 752 304 752 316 750 c 1,57,58
 325 747 325 747 335 743 c 0,59,60
 347 737 347 737 352 734 c 0,61,62
 362 729 362 729 365 729 c 1,63,64
 370 727 370 727 391 707 c 0,65,66
 413 685 413 685 414 680 c 0,67,68
 415 677 415 677 419 663 c 0,69,70
 422 651 422 651 428 638 c 0,71,72
 434 627 434 627 436 602 c 2,73,-1
 438 576 l 1,74,75
 437 568 437 568 436 559 c 0,76,77
 436 550 436 550 431 528 c 0,78,79
 426 513 426 513 420 499 c 0,80,81
 413 485 413 485 411 477 c 0,82,83
 409 470 409 470 403 464 c 1,84,85
 399 461 399 461 376 438 c 0,86,87
 354 416 354 416 352 410 c 1,88,89
 351 404 351 404 345 398 c 1,90,91
 339 394 339 394 331 386 c 0,92,93
 320 375 320 375 318 372 c 0,94,95
 315 366 315 366 304 361 c 0,96,97
 292 355 292 355 273 336 c 0,98,99
 266 329 266 329 258 320 c 2,100,-1
 250 311 l 1,101,102
 247 306 247 306 247 295 c 0,103,104
 247 283 247 283 244 280 c 1,105,106
 242 274 242 274 242 270 c 0,107,108
 242 263 242 263 245 257 c 0,109,110
 249 249 249 249 249 242 c 1,111,-1
 246 227 l 1,112,113
 242 217 242 217 242 206 c 1,114,115
 239 193 239 193 237 191 c 1,116,117
 230 187 230 187 219 186 c 0,118,119
 203 184 203 184 181 184 c 0,120,121
 164 184 164 184 160 185 c 128,-1,122
 156 186 156 186 151 192 c 0,123,124
 143 202 143 202 143 204 c 2,125,126
 141 207 141 207 145 222 c 1,127,128
 147 240 147 240 147 252 c 0,129,130
 147 274 147 274 146 282 c 0,131,132
 146 305 146 305 147 314 c 0,133,134
 150 332 150 332 154 338 c 0,135,136
 156 341 156 341 160 346.5 c 128,-1,137
 164 352 164 352 165 354 c 0,138,139
 177 370 177 370 178 371 c 0,140,141
 186 381 186 381 192 387 c 1,142,143
 196 390 196 390 211 405 c 0,144,145
 222 415 222 415 230 417 c 0,146,147
 237 419 237 419 240 424 c 2,148,149
 242 425 242 425 252 438 c 0,150,151
 260 448 260 448 263 455 c 0,152,153
 265 462 265 462 273 466 c 0,154,155
 282 470 282 470 284 478 c 0,156,157
 285 483 285 483 292 492 c 1,158,159
 292 493 292 493 295 498 c 128,-1,160
 298 503 298 503 299 505 c 1,161,162
 300 510 300 510 303 513 c 2,163,-1
 308 518 l 1,164,165
 311 526 311 526 312 534 c 0,166,167
 312 542 312 542 315 551 c 1,168,169
 318 556 318 556 318 566 c 0,170,171
 318 575 318 575 316 577 c 0,172,173
 315 578 315 578 313 592 c 0,174,175
 311 603 311 603 306 615 c 0,176,177
 304 619 304 619 300 626 c 128,-1,178
 296 633 296 633 296 634 c 1,179,180
 287 643 287 643 282 646 c 0,181,182
 273 652 273 652 257 660 c 0,183,184
 242 668 242 668 235 666 c 0,185,186
 231 664 231 664 220 664 c 0,187,188
 218 664 218 664 211.5 665 c 128,-1,189
 205 666 205 666 203 667 c 1,190,191
 192 667 192 667 187 665 c 0,192,193
 179 662 179 662 167 662 c 1,194,195
 160 663 160 663 143 663 c 1,196,197
 137 662 137 662 117 662 c 0,198,199
 103 661 103 661 93 666 c 0,200,201
 84 671 84 671 80 676 c 1,202,203
 76 683 76 683 75 692 c 0,204,205
 73 702 73 702 73 712 c 2,206,207
 72 718 72 718 72 720 c 0,208,209
 72 725 72 725 77 735 c 0,210,211
 84 747 84 747 95 752 c 0,212,213
 107 758 107 758 126 759 c 0,214,215
 143 759 143 759 153 761 c 1,47,48
EndSplineSet
EndChar

StartChar: uni0040
Encoding: 64 64 35
Width: 1244
GlyphClass: 2
Flags: W
LayerCount: 2
Fore
SplineSet
686 389 m 1,0,-1
 678 390 l 1,1,-1
 668 388 l 2,2,3
 658 385 658 385 646 383 c 1,4,5
 635 383 635 383 625 379 c 2,6,7
 618 378 618 378 613 375 c 0,8,9
 609 373 609 373 605 369 c 1,10,11
 600 366 600 366 591 364 c 1,12,13
 584 364 584 364 571 359 c 0,14,15
 566 357 566 357 558 353 c 1,16,17
 554 350 554 350 553 342 c 1,18,19
 548 330 548 330 546 328 c 0,20,21
 544 325 544 325 540 311 c 2,22,-1
 536 287 l 1,23,24
 536 274 536 274 540 267 c 1,25,26
 544 262 544 262 546 251 c 0,27,28
 549 241 549 241 555 236 c 2,29,-1
 564 227 l 1,30,31
 567 226 567 226 567 223 c 0,32,33
 567 221 567 221 572 219 c 1,34,35
 576 216 576 216 595 216 c 0,36,37
 612 216 612 216 617 213 c 1,38,39
 620 210 620 210 625 210 c 2,40,41
 627 209 627 209 631 209 c 128,-1,42
 635 209 635 209 638 210 c 0,43,44
 643 211 643 211 656 224 c 0,45,46
 664 231 664 231 673 243 c 0,47,48
 678 250 678 250 680 250 c 128,-1,49
 682 250 682 250 688 256 c 0,50,51
 695 263 695 263 698 269 c 0,52,53
 703 281 703 281 703 285 c 1,54,55
 705 293 705 293 707 297 c 0,56,57
 710 302 710 302 709 317 c 0,58,59
 709 333 709 333 712 339 c 1,60,61
 714 347 714 347 714 352 c 0,62,63
 714 359 714 359 709 369 c 0,64,65
 704 380 704 380 699 383 c 0,66,67
 692 387 692 387 686 389 c 1,0,-1
590 822 m 1,68,69
 593 825 593 825 600 825 c 128,-1,70
 607 825 607 825 610 822 c 1,71,72
 616 820 616 820 627 820 c 128,-1,73
 638 820 638 820 646 822 c 1,74,75
 650 825 650 825 656 825 c 0,76,77
 657 825 657 825 673 819 c 0,78,79
 685 813 685 813 705 813 c 0,80,81
 724 813 724 813 731 810 c 0,82,83
 734 808 734 808 748 806 c 0,84,85
 758 804 758 804 762 802 c 0,86,87
 765 800 765 800 775 798 c 0,88,89
 782 797 782 797 788 791 c 0,90,91
 794 786 794 786 804 783 c 0,92,93
 810 782 810 782 822 777 c 1,94,95
 830 771 830 771 838 771 c 1,96,97
 848 769 848 769 852 764 c 0,98,99
 857 759 857 759 864 757 c 0,100,101
 870 756 870 756 883 744 c 0,102,103
 892 735 892 735 901 729 c 0,104,105
 908 724 908 724 909 721 c 0,106,107
 911 715 911 715 915 713 c 2,108,109
 916 712 916 712 920 710 c 128,-1,110
 924 708 924 708 925 707 c 1,111,112
 930 706 930 706 935 701 c 1,113,114
 939 695 939 695 946 688 c 0,115,116
 954 678 954 678 962 675 c 1,117,118
 966 672 966 672 975 666 c 1,119,120
 981 657 981 657 983 653 c 0,121,122
 989 643 989 643 991 641 c 0,123,124
 995 637 995 637 1000 627 c 128,-1,125
 1005 617 1005 617 1011 609 c 0,126,127
 1015 604 1015 604 1019 592 c 1,128,129
 1019 590 1019 590 1025 570 c 1,130,131
 1032 556 1032 556 1033 553 c 0,132,133
 1035 547 1035 547 1039 541 c 0,134,135
 1041 538 1041 538 1046 526 c 1,136,137
 1048 518 1048 518 1051 511 c 1,138,139
 1053 503 1053 503 1053 498 c 1,140,141
 1055.5 491 l 130,-1,142
 1058 484 1058 484 1060 480 c 0,143,144
 1065 470 1065 470 1068 448 c 0,145,146
 1070 426 1070 426 1071 423 c 0,147,148
 1073 417 1073 417 1073 409 c 0,149,150
 1073 406 1073 406 1070 397 c 0,151,152
 1068 393 1068 393 1068 388 c 0,153,154
 1068 384 1068 384 1070 378 c 1,155,156
 1073 372 1073 372 1073 367 c 0,157,158
 1073 359 1073 359 1070 354 c 0,159,160
 1067 348 1067 348 1067 339 c 1,161,162
 1064 324 1064 324 1063 322 c 0,163,164
 1060 314 1060 314 1061 306 c 0,165,166
 1063 298 1063 298 1063 292 c 1,167,168
 1064 285 1064 285 1059 272 c 0,169,170
 1054 261 1054 261 1052 248 c 0,171,172
 1050 236 1050 236 1046 230 c 1,173,174
 1042 226 1042 226 1038 212 c 0,175,176
 1034 200 1034 200 1027 186 c 128,-1,177
 1020 172 1020 172 1018 166 c 1,178,179
 1018 162 1018 162 1011 150 c 1,180,181
 1006 144 1006 144 997 128 c 1,182,183
 987 116 987 116 984 114 c 1,184,185
 981 113 981 113 976 106 c 0,186,187
 974 102 974 102 961 88 c 0,188,189
 948 75 948 75 940 73 c 1,190,191
 928 68 928 68 925 65 c 0,192,193
 917 59 917 59 911 59 c 2,194,195
 907 58 907 58 857 58 c 0,196,197
 810 59 810 59 804 63 c 0,198,199
 797 68 797 68 787 68 c 0,200,201
 775 69 775 69 767 77 c 2,202,-1
 752 92 l 2,203,204
 744 100 744 100 742 100 c 256,205,206
 740 100 740 100 736 103 c 1,207,208
 732 108 732 108 727 115 c 1,209,210
 723 127 723 127 723 137 c 0,211,212
 722 150 722 150 716 155 c 1,213,214
 710 162 710 162 708 166 c 0,215,216
 706 172 706 172 704 172 c 0,217,218
 697 172 697 172 693 171 c 1,219,220
 685 167 685 167 682 165 c 1,221,222
 678 159 678 159 672 153 c 0,223,224
 665 144 665 144 658 143 c 0,225,226
 655 142 655 142 649 140 c 0,227,228
 647 139 647 139 646 139 c 1,229,230
 645 138 645 138 635 135 c 0,231,232
 628 133 628 133 623 130 c 0,233,234
 619 127 619 127 582 127 c 0,235,236
 548 127 548 127 528 132 c 0,237,238
 523 133 523 133 514 136 c 128,-1,239
 505 139 505 139 504 139 c 1,240,241
 502 140 502 140 487 146 c 1,242,243
 477 148 477 148 472 156 c 0,244,245
 469 162 469 162 465 166 c 128,-1,246
 461 170 461 170 459 178 c 0,247,248
 457 188 457 188 452 191 c 1,249,250
 447 197 447 197 445 209 c 0,251,252
 444 219 444 219 439 226 c 0,253,254
 436 229 436 229 432 237 c 0,255,256
 429 243 429 243 427 257 c 256,257,258
 425 271 425 271 428 281 c 0,259,260
 430 293 430 293 430 301 c 128,-1,261
 430 309 430 309 434 319 c 0,262,263
 435 322 435 322 436.5 328.5 c 128,-1,264
 438 335 438 335 438 337 c 1,265,266
 441 348 441 348 442 350 c 2,267,268
 443 354 443 354 448 364 c 0,269,270
 451 372 451 372 458 375 c 1,271,272
 462 378 462 378 467 385 c 1,273,274
 468 390 468 390 475 396 c 0,275,276
 488 405 488 405 492 407 c 0,277,278
 500 411 500 411 510 417 c 1,279,280
 516 423 516 423 526 426 c 1,281,282
 538 432 538 432 547 438 c 0,283,284
 558 445 558 445 565 445 c 128,-1,285
 572 445 572 445 584 443 c 0,286,287
 592 442 592 442 605 445 c 0,288,289
 621 450 621 450 635 451 c 0,290,291
 657 453 657 453 668 453 c 0,292,293
 683 453 683 453 689 457 c 0,294,295
 698 463 698 463 702 466 c 1,296,297
 709 469 709 469 712 474 c 1,298,299
 714 476 714 476 716 494 c 0,300,301
 716 514 716 514 714 518 c 0,302,303
 712 524 712 524 710 536 c 0,304,305
 709 539 709 539 707 545.5 c 128,-1,306
 705 552 705 552 705 553 c 1,307,308
 702 560 702 560 697 563 c 0,309,310
 694 565 694 565 687 572 c 1,311,312
 684 577 684 577 675 581 c 0,313,314
 666 584 666 584 652 584 c 0,315,316
 639 584 639 584 631 582 c 1,317,318
 626 578 626 578 619 580 c 1,319,320
 614 580 614 580 608 582 c 0,321,322
 603 584 603 584 599 582 c 0,323,324
 597 581 597 581 585 573 c 0,325,326
 576 567 576 567 569 555 c 1,327,328
 565 545 565 545 558 536 c 0,329,330
 557 534 557 534 554.5 531 c 128,-1,331
 552 528 552 528 548.5 524 c 128,-1,332
 545 520 545 520 543 518 c 0,333,334
 536 511 536 511 531.5 510 c 128,-1,335
 527 509 527 509 505 509 c 0,336,337
 477 509 477 509 471 512 c 0,338,339
 466 514 466 514 462 520 c 0,340,341
 458 525 458 525 458 547 c 0,342,343
 458 567 458 567 461 573 c 0,344,345
 467 582 467 582 470 587 c 0,346,347
 475 596 475 596 484 601 c 128,-1,348
 493 606 493 606 498 615 c 0,349,350
 502 621 502 621 504.5 623 c 128,-1,351
 507 625 507 625 517 628 c 0,352,353
 533 633 533 633 554 633 c 0,354,355
 570 633 570 633 574 634 c 128,-1,356
 578 635 578 635 582 639 c 0,357,358
 587 645 587 645 598 646 c 0,359,360
 611 649 611 649 616 651 c 0,361,362
 625 654 625 654 635 650 c 0,363,364
 646 647 646 647 656 650 c 0,365,366
 664 653 664 653 667 653 c 128,-1,367
 670 653 670 653 678 650 c 0,368,369
 692 646 692 646 706 646 c 0,370,371
 722 645 722 645 732 641 c 2,372,-1
 746 634 l 2,373,374
 754 630 754 630 759 627 c 0,375,376
 768 622 768 622 769 619 c 1,377,378
 769 616 769 616 783 602 c 0,379,380
 796 588 796 588 797 580 c 0,381,382
 797 576 797 576 802 556 c 0,383,384
 806 540 806 540 811 529 c 0,385,386
 817 517 817 517 817 513 c 2,387,388
 818 509 818 509 816 499 c 1,389,390
 813 493 813 493 813 487 c 0,391,392
 813 484 813 484 815 476 c 0,393,394
 817 471 817 471 817 436 c 0,395,396
 817 405 817 405 814 394.5 c 128,-1,397
 811 384 811 384 811 364 c 0,398,399
 811 342 811 342 814 333 c 1,400,401
 816 321 816 321 816 318 c 0,402,403
 816 313 816 313 814 307 c 1,404,405
 811 304 811 304 811 285 c 0,406,407
 811 275 811 275 812 246 c 0,408,409
 812 204 812 204 812.5 195.5 c 128,-1,410
 813 187 813 187 817 179 c 0,411,412
 822 169 822 169 824 161 c 2,413,-1
 827 149 l 2,414,415
 829 144 829 144 836 141 c 0,416,417
 844 137 844 137 847 134 c 1,418,419
 852 131 852 131 857 131 c 0,420,421
 864 131 864 131 880 139 c 128,-1,422
 896 147 896 147 899 150 c 0,423,424
 900 151 900 151 902 158 c 0,425,426
 904 164 904 164 912 168 c 128,-1,427
 920 172 920 172 924 184 c 0,428,429
 926 189 926 189 930 203 c 1,430,431
 931 211 931 211 937 217 c 128,-1,432
 943 223 943 223 944 229 c 1,433,434
 944 236 944 236 951 250 c 1,435,436
 957 271 957 271 958 279 c 0,437,438
 958 292 958 292 962 304 c 0,439,440
 963 307 963 307 965.5 313.5 c 128,-1,441
 968 320 968 320 968 321 c 2,442,443
 970 325 970 325 970 352 c 0,444,445
 970 380 970 380 968 385 c 0,446,447
 966 393 966 393 968 403 c 0,448,449
 971 413 971 413 967 424 c 0,450,451
 964 433 964 433 964 438 c 0,452,453
 964 440 964 440 958 452 c 0,454,455
 953 463 953 463 950 481 c 0,456,457
 949 494 949 494 947.5 499 c 128,-1,458
 946 504 946 504 937 523 c 0,459,460
 923 549 923 549 923 554 c 1,461,462
 922 560 922 560 913 570 c 0,463,464
 910 573 910 573 904.5 579 c 128,-1,465
 899 585 899 585 897 587 c 2,466,467
 885 603 l 2,468,469
 884 605 884 605 880 610.5 c 128,-1,470
 876 616 876 616 875 618 c 1,471,472
 871 623 871 623 866 627 c 1,473,474
 860 630 860 630 855 638 c 0,475,476
 850 645 850 645 843 648 c 1,477,478
 837 649 837 649 832 657 c 1,479,480
 826 664 826 664 813 671 c 0,481,482
 793 681 793 681 786 684 c 0,483,484
 776 690 776 690 768 695 c 1,485,486
 762 702 762 702 757 703 c 0,487,488
 754 704 754 704 745 710 c 0,489,490
 737 716 737 716 735 716 c 0,491,492
 730 716 730 716 726 719 c 1,493,494
 717 721 717 721 705 723 c 0,495,496
 692 725 692 725 681 729 c 0,497,498
 669 734 669 734 662 734 c 0,499,500
 654 735 654 735 641 732 c 0,501,502
 630 730 630 730 623 732 c 0,503,504
 613 736 613 736 607 736 c 0,505,506
 598 737 598 737 588 733 c 0,507,508
 578 730 578 730 566 730 c 0,509,510
 551 730 551 730 546 731 c 0,511,512
 540 733 540 733 534 729 c 0,513,514
 527 724 527 724 522 723 c 0,515,516
 514 721 514 721 510 717 c 1,517,518
 507 712 507 712 497 710 c 0,519,520
 487 707 487 707 478 699 c 0,521,522
 470 691 470 691 462 688 c 0,523,524
 454 686 454 686 452 682 c 1,525,526
 448 678 448 678 440 673 c 1,527,528
 427 668 427 668 423 667 c 0,529,530
 415 666 415 666 409 658 c 1,531,532
 398 649 398 649 394 648 c 1,533,534
 381 641 381 641 376 635 c 0,535,536
 368 627 368 627 358 615 c 0,537,538
 347 600 347 600 346 596 c 1,539,540
 341 587 341 587 336 580 c 0,541,542
 328 570 328 570 325 560 c 0,543,544
 320 547 320 547 314 544 c 0,545,546
 309 542 309 542 299 529 c 1,547,548
 292 515 292 515 292 511 c 0,549,550
 292 504 292 504 289 499 c 1,551,552
 286 488 286 488 285 479 c 0,553,554
 283 468 283 468 281 463 c 1,555,556
 277 457 277 457 275 455 c 1,557,558
 272 450 272 450 269 438 c 0,559,560
 267 428 267 428 265 405 c 0,561,562
 265 387 265 387 268 379.5 c 128,-1,563
 271 372 271 372 271 352 c 256,564,565
 271 332 271 332 273 328 c 0,566,567
 276 322 276 322 276 308 c 0,568,569
 278 291 278 291 281 286 c 0,570,571
 283 283 283 283 283 271 c 1,572,573
 282 264 282 264 283 262 c 128,-1,574
 284 260 284 260 289 258 c 0,575,576
 296 255 296 255 298 245 c 0,577,578
 300 238 300 238 304 224 c 0,579,580
 307 213 307 213 312 210 c 0,581,582
 316 207 316 207 323 195 c 0,583,584
 331 181 331 181 333 179 c 0,585,586
 338 174 338 174 341 166 c 0,587,588
 346 153 346 153 347 150 c 0,589,590
 348 143 348 143 351 140 c 0,591,592
 352 139 352 139 359 134 c 1,593,594
 364 132 364 132 369 125 c 1,595,596
 372 118 372 118 381 113 c 0,597,598
 389 109 389 109 393 105 c 0,599,600
 395 103 395 103 409 95 c 1,601,602
 421 91 421 91 423 86 c 1,603,604
 423 83 423 83 429 79 c 256,605,606
 435 75 435 75 437 70 c 1,607,608
 440 66 440 66 453 62 c 0,609,610
 457 60 457 60 464.5 58 c 128,-1,611
 472 56 472 56 474 55 c 2,612,613
 484 53 484 53 489 50 c 1,614,615
 491 50 491 50 495 48.5 c 128,-1,616
 499 47 499 47 504.5 45 c 128,-1,617
 510 43 510 43 513 42 c 0,618,619
 530 36 530 36 534 33 c 0,620,621
 537 31 537 31 556 29 c 0,622,623
 574 27 574 27 578 25 c 1,624,625
 586 23 586 23 592 24 c 1,626,627
 598 26 598 26 609 31 c 0,628,629
 616 35 616 35 625 42 c 128,-1,630
 634 49 634 49 642 52 c 0,631,632
 652 57 652 57 666 58 c 0,633,634
 684 58 684 58 689 55 c 2,635,636
 697 53 697 53 697 51 c 1,637,638
 700 48 700 48 703 47 c 0,639,640
 707 45 707 45 716 34 c 1,641,642
 724 20 724 20 725 19 c 0,643,644
 729 14 729 14 727 9 c 2,645,646
 727 5 727 5 721 -5 c 0,647,648
 716 -15 716 -15 716 -18 c 128,-1,649
 716 -21 716 -21 714 -27 c 1,650,651
 713 -28 713 -28 709.5 -32 c 128,-1,652
 706 -36 706 -36 704 -38 c 0,653,654
 695 -45 695 -45 691 -46 c 256,655,656
 687 -47 687 -47 669 -56 c 0,657,658
 653 -65 653 -65 649 -65 c 0,659,660
 643 -65 643 -65 637 -62 c 1,661,662
 630 -60 630 -60 629 -61 c 1,663,664
 625.5 -61.5 l 130,-1,665
 622 -62 622 -62 616.5 -62.5 c 128,-1,666
 611 -63 611 -63 606 -63 c 0,667,668
 585 -65 585 -65 577 -63 c 0,669,670
 569 -60 569 -60 559 -64 c 0,671,672
 552 -66 552 -66 548 -66 c 0,673,674
 545 -66 545 -66 542 -65 c 0,675,676
 536 -63 536 -63 530 -59 c 1,677,678
 525 -54 525 -54 520 -55 c 0,679,680
 514 -57 514 -57 506 -57 c 0,681,682
 496 -58 496 -58 490 -53 c 0,683,684
 480 -45 480 -45 469 -40 c 0,685,686
 457 -33 457 -33 449 -31 c 0,687,688
 442 -29 442 -29 434 -23 c 0,689,690
 426 -18 426 -18 420 -18 c 0,691,692
 416 -18 416 -18 410 -16 c 1,693,694
 405 -16 405 -16 396 -7 c 0,695,696
 384 3 384 3 382 4 c 1,697,698
 378 5 378 5 368 13 c 0,699,700
 362 19 362 19 348 27 c 0,701,702
 339 31 339 31 326 42 c 0,703,704
 321 47 321 47 309 53 c 1,705,706
 301 55 301 55 300 62 c 0,707,708
 298 70 298 70 290 78 c 0,709,710
 280 90 280 90 279 92 c 0,711,712
 274 99 274 99 272 100 c 0,713,714
 268 102 268 102 260 118 c 0,715,716
 255 126 255 126 246 144 c 0,717,718
 245 146 245 146 240.5 151.5 c 128,-1,719
 236 157 236 157 235 158 c 0,720,721
 229 164 229 164 227 164 c 1,722,723
 224 170 224 170 223 176 c 0,724,725
 222 185 222 185 216 191 c 1,726,727
 211 194 211 194 211 202 c 0,728,729
 211 208 211 208 209 216 c 0,730,731
 207 223 207 223 203 225 c 0,732,733
 198 228 198 228 198 233 c 2,734,735
 197 235 197 235 195 258 c 0,736,737
 193 274 193 274 191 286 c 1,738,-1
 182 307 l 2,739,740
 176 321 176 321 176 325 c 0,741,742
 176 332 176 332 179 335 c 1,743,744
 181 341 181 341 181 356 c 0,745,746
 181 372 181 372 178 382 c 1,747,748
 175 388 175 388 173 403 c 0,749,750
 173 409 l 0,751,752
 173 415 173 415 176 424 c 0,753,754
 179 434 179 434 181 451 c 0,755,756
 183 466 183 466 185 473 c 2,757,-1
 191 488 l 1,758,759
 191 491 191 491 192.5 497 c 128,-1,760
 194 503 194 503 195 506 c 0,761,762
 196 514 196 514 199 522 c 1,763,764
 202 526 202 526 204 537 c 2,765,766
 205 539 205 539 207 545.5 c 128,-1,767
 209 552 209 552 210 554 c 0,768,769
 212 560 212 560 216 567 c 1,770,771
 220 570 220 570 235 600 c 0,772,773
 249 628 249 628 258 637 c 0,774,775
 270 647 270 647 271 654 c 0,776,777
 272 657 272 657 283 670 c 0,778,779
 294 681 294 681 298 689 c 0,780,781
 304 700 304 700 310 701 c 0,782,783
 318 702 318 702 329 714 c 0,784,785
 340 725 340 725 348 729 c 0,786,787
 354 732 354 732 365 743 c 1,788,789
 373 754 373 754 378 754 c 1,790,791
 384 756 384 756 393 762 c 0,792,793
 407 769 407 769 411 770 c 2,794,795
 413 771 413 771 419 773 c 128,-1,796
 425 775 425 775 427 776 c 0,797,798
 431 778 431 778 440 784 c 0,799,800
 447 789 447 789 452 790 c 0,801,802
 455 791 455 791 468 796 c 0,803,804
 482 800 482 800 492 805 c 0,805,806
 508 811 508 811 510 811 c 0,807,808
 514 811 514 811 520 808 c 1,809,810
 526 806 526 806 532 806 c 0,811,812
 533 806 533 806 538.5 807.5 c 128,-1,813
 544 809 544 809 547 810 c 2,814,-1
 562 816 l 2,815,816
 571 819 571 819 576 819 c 1,817,818
 588 822 588 822 590 822 c 1,68,69
EndSplineSet
EndChar

StartChar: uni0041
Encoding: 65 65 36
Width: 739
GlyphClass: 2
Flags: W
LayerCount: 2
Fore
SplineSet
368 611 m 1,0,1
 359 614 359 614 357 614 c 0,2,3
 353 614 353 614 348 609 c 1,4,5
 343 602 343 602 342 598 c 0,6,7
 338 586 338 586 336 578 c 0,8,9
 331 562 331 562 327 553 c 0,10,11
 323 543 323 543 321 535 c 128,-1,12
 319 527 319 527 319 521 c 128,-1,13
 319 515 319 515 315 503 c 1,14,15
 309 493 309 493 305 489 c 1,16,17
 300 482 300 482 299 477 c 0,18,19
 299 474 299 474 294 462 c 0,20,21
 293 459 293 459 290 452.5 c 128,-1,22
 287 446 287 446 286 444 c 1,23,24
 284 433 284 433 279 428 c 1,25,26
 276 422 276 422 276 418 c 0,27,28
 276 416 276 416 271 404 c 0,29,30
 270 402 270 402 261 381 c 0,31,32
 253 362 253 362 251 359 c 0,33,34
 247 354 247 354 244 342 c 0,35,36
 242 333 242 333 237 321 c 0,37,38
 231 309 231 309 231 301 c 0,39,40
 231 294 231 294 234 291 c 1,41,-1
 248 284 l 1,42,43
 263 279 263 279 268 279 c 0,44,45
 270 279 270 279 274 279 c 0,46,47
 282 279 282 279 293 280 c 0,48,49
 309 282 309 282 321 282 c 0,50,51
 337 284 337 284 344 284 c 2,52,53
 354 286 354 286 393 286 c 0,54,55
 431 286 431 286 449 284 c 0,56,57
 466 283 466 283 475 288 c 0,58,59
 485 293 485 293 486 298 c 1,60,61
 489 303 489 303 489 317 c 0,62,63
 489 330 489 330 485 335 c 0,64,65
 481 341 481 341 481 348 c 1,66,67
 479 359 479 359 477 361 c 2,68,69
 475 366 475 366 472 368 c 0,70,71
 468 372 468 372 467 379 c 0,72,73
 464 390 464 390 460 393 c 1,74,75
 455 401 455 401 445 422 c 0,76,77
 437 438 437 438 427 463 c 2,78,-1
 418 494 l 2,79,80
 417 499 417 499 413 512 c 1,81,82
 408 517 408 517 407 519 c 1,83,84
 407 520 407 520 404 527 c 128,-1,85
 401 534 401 534 399 539 c 0,86,87
 392 555 392 555 390 567 c 0,88,89
 389 577 389 577 383 585 c 0,90,91
 378 592 378 592 378 594 c 0,92,93
 378 598 378 598 375 602 c 2,94,95
 374 605 374 605 368 611 c 1,0,1
360 739 m 256,96,97
 362 739 362 739 367 740 c 128,-1,98
 372 741 372 741 374 742 c 1,99,100
 382 742 382 742 387 739 c 1,101,102
 397 737 397 737 411 737 c 0,103,104
 426 737 426 737 431 734 c 0,105,106
 434 732 434 732 436 725 c 1,107,108
 436 720 436 720 440 710 c 0,109,110
 442 702 442 702 449 695 c 1,111,112
 455 691 455 691 457 684 c 0,113,114
 459 678 459 678 459 672 c 256,115,116
 459 666 459 666 465 656 c 1,117,118
 472 649 472 649 472 643 c 0,119,120
 472 641 472 641 475 632.5 c 128,-1,121
 478 624 478 624 479 619 c 1,122,123
 488 598 488 598 488 597 c 1,124,125
 492 590 492 590 493 583 c 0,126,127
 494 575 494 575 503 558 c 0,128,129
 510 546 510 546 512 535 c 1,130,131
 512 527 512 527 517 520 c 0,132,133
 522 514 522 514 526 503 c 0,134,135
 532 490 532 490 536 488 c 1,136,137
 541 480 541 480 541 477 c 1,138,139
 544 465 544 465 545 459 c 0,140,141
 549 445 549 445 555 440 c 0,142,143
 562 433 562 433 565 427 c 2,144,145
 570 414.5 l 130,-1,146
 575 402 575 402 578 393 c 0,147,148
 588 365 588 365 598 346 c 0,149,150
 601 340 601 340 604 332 c 2,151,-1
 608 324 l 1,152,153
 610 322 610 322 614 303 c 0,154,155
 619 286 619 286 625 271 c 1,156,157
 628 266 628 266 635 248 c 0,158,159
 637 242 637 242 640 230 c 0,160,161
 641 222 641 222 647 219 c 0,162,163
 649 218 649 218 651.5 216 c 128,-1,164
 654 214 654 214 655 214 c 1,165,166
 657 212 657 212 659 202 c 0,167,168
 662 189 662 189 663 186 c 0,169,170
 665 180 665 180 667 170 c 256,171,172
 669 160 669 160 672 155 c 1,173,174
 676 151 676 151 680 143 c 0,175,176
 687 125 687 125 688 122 c 0,177,178
 692 108 692 108 694 107 c 1,179,180
 697 100 697 100 700 91 c 0,181,182
 701 89 701 89 704 82.5 c 128,-1,183
 707 76 707 76 708 74 c 1,184,185
 709 73 709 73 718 61 c 0,186,187
 726 48 726 48 726 47 c 2,188,189
 729 43 729 43 729 31 c 1,190,191
 726 16 726 16 725 12 c 0,192,193
 724 9 724 9 720 0 c 1,194,195
 717 -3 717 -3 692 -5 c 0,196,197
 658 -10 658 -10 657 -10 c 0,198,199
 652 -11 652 -11 650 -11 c 0,200,201
 645 -11 645 -11 641 -9 c 0,202,203
 632 -6 632 -6 629 -3 c 2,204,205
 622 1 622 1 618 8 c 0,206,207
 614 16 614 16 608 22 c 0,208,209
 600 32 600 32 600 33 c 2,210,211
 598 37 598 37 598 43 c 0,212,213
 598 50 598 50 593 58 c 2,214,215
 590 66 590 66 583 73 c 0,216,217
 578 79 578 79 577 97 c 128,-1,218
 576 115 576 115 572 123 c 0,219,220
 569 129 569 129 563 139 c 0,221,222
 559 144 559 144 555 161 c 0,223,224
 549 177 549 177 548 178 c 2,225,226
 546 183 546 183 533 188 c 0,227,228
 519 195 519 195 512 195 c 0,229,230
 502 195 502 195 494 198 c 1,231,232
 481 200 481 200 474 199 c 2,233,234
 464 199 464 199 452 197 c 0,235,236
 442 196 442 196 431 200 c 0,237,238
 420 203 420 203 408 203 c 0,239,240
 397 203 397 203 377 201 c 0,241,242
 360 199 360 199 350 199 c 0,243,244
 340 199 l 0,245,246
 330 200 330 200 316 200 c 1,247,248
 312 201 312 201 302 197 c 0,249,250
 293 192 293 192 288 194 c 2,251,-1
 280 198 l 2,252,253
 274 202 274 202 270 202 c 0,254,255
 265 202 265 202 261 200 c 0,256,257
 255 198 255 198 227 198 c 0,258,259
 198 196 198 196 194 195 c 1,260,261
 190 193 190 193 184 185 c 0,262,263
 179 178 179 178 174 164 c 0,264,265
 168 148 168 148 168 145 c 1,266,267
 165 136 165 136 160 126 c 0,268,269
 156 118 156 118 149 95 c 0,270,271
 145 79 145 79 141 68 c 1,272,273
 136 60 136 60 134 49 c 1,274,275
 132 43 132 43 128 36 c 0,276,277
 126 33 126 33 116 15 c 0,278,279
 109 0 109 0 103 -3 c 0,280,281
 98 -5 98 -5 63 -5 c 0,282,283
 37 -4 37 -4 32 -3 c 128,-1,284
 27 -2 27 -2 21 2 c 0,285,286
 17 4 17 4 14.5 7 c 128,-1,287
 12 10 12 10 11 12 c 0,288,289
 9 18 9 18 9 23 c 0,290,291
 9 25 9 25 10.5 30.5 c 128,-1,292
 12 36 12 36 12 37 c 2,293,294
 15 42 15 42 17 56 c 0,295,296
 18 67 18 67 23 73 c 0,297,298
 28 78 28 78 30 86 c 2,299,-1
 32 93 l 1,300,301
 32 95 32 95 37 100 c 1,302,303
 41 106 41 106 45 114 c 1,304,305
 48 123 48 123 52 128 c 0,306,307
 56 134 56 134 59 143 c 0,308,309
 61 153 61 153 66 160 c 1,310,311
 71 172 71 172 72 179 c 1,312,313
 77 193 77 193 82 201 c 0,314,315
 84 204 84 204 86 208.5 c 128,-1,316
 88 213 88 213 90.5 218 c 128,-1,317
 93 223 93 223 94 225 c 0,318,319
 99 238 99 238 101 249 c 0,320,321
 102 257 102 257 107 271 c 1,322,323
 111 277 111 277 113 291 c 0,324,325
 115 303 115 303 120 310 c 0,326,327
 126 318 126 318 127 318 c 0,328,329
 129 318 129 318 131 323 c 2,330,331
 134 328 134 328 134 335 c 0,332,333
 134 337 134 337 134.5 342.5 c 128,-1,334
 135 348 135 348 135 350 c 1,335,336
 137 358 137 358 145 371 c 0,337,338
 154 387 154 387 155 391 c 0,339,340
 157 401 157 401 162 410 c 0,341,342
 169 426 169 426 169 428 c 0,343,344
 170 434 170 434 176 445 c 2,345,346
 179 456 179 456 185 461 c 1,347,348
 189 469 189 469 192 472 c 1,349,350
 195 477 195 477 197 489 c 0,351,352
 198 502 198 502 203 508 c 0,353,354
 209 515 209 515 212 524 c 2,355,356
 215 530 215 530 218 543 c 1,357,358
 219 555 219 555 224 558 c 1,359,360
 227 563 227 563 232 565 c 1,361,362
 235 567 235 567 238 580 c 0,363,364
 240 593 240 593 245 601 c 256,365,366
 250 609 250 609 252 619 c 1,367,368
 252 625 252 625 259 639 c 0,369,370
 264 651 264 651 266 660 c 0,371,372
 267 670 267 670 272 675 c 256,373,374
 277 680 277 680 279 689 c 0,375,376
 282 697 282 697 287 705 c 0,377,378
 288 707 288 707 290 710.5 c 128,-1,379
 292 714 292 714 293 716 c 0,380,381
 295 719 295 719 310 725.5 c 128,-1,382
 325 732 325 732 338 734 c 0,383,384
 342 735 342 735 350 737 c 128,-1,385
 358 739 358 739 360 739 c 256,96,97
EndSplineSet
EndChar

StartChar: uni0042
Encoding: 66 66 37
Width: 684
GlyphClass: 2
Flags: W
LayerCount: 2
Fore
SplineSet
276 347 m 0,0,1
 270 349 270 349 253 349 c 0,2,3
 235 349 235 349 229 347 c 2,4,5
 227 347 227 347 221 344 c 0,6,7
 217 342 217 342 215 338 c 1,8,9
 215 337 215 337 213 333 c 128,-1,10
 211 329 211 329 210 327 c 0,11,12
 208 322 208 322 208 269 c 128,-1,13
 208 216 208 216 211 212 c 1,14,15
 214 200 214 200 214 191 c 0,16,17
 214 183 l 0,18,19
 214 172 214 172 211 155 c 0,20,21
 208 137 208 137 208 126 c 0,22,23
 208 116 208 116 211 108 c 2,24,25
 212 103 212 103 216 95 c 1,26,27
 218 93 218 93 224 93 c 0,28,29
 231 93 231 93 237 96 c 1,30,31
 246 98 246 98 257 96 c 0,32,33
 263 95 263 95 275 95 c 0,34,35
 284 96 284 96 292 92 c 0,36,37
 301 88 301 88 306 88 c 0,38,39
 307 88 307 88 310 88 c 0,40,41
 311 88 311 88 320 89.5 c 128,-1,42
 329 91 329 91 334 92 c 0,43,44
 350 94 350 94 357 94 c 1,45,46
 364 92 364 92 384 94 c 0,47,48
 406 97 406 97 423 103 c 0,49,50
 445 111 445 111 451 116 c 256,51,52
 457 121 457 121 469 128 c 1,53,54
 478 131 478 131 489 142 c 256,55,56
 500 153 500 153 502 162 c 0,57,58
 504 172 504 172 504 174 c 128,-1,59
 504 176 504 176 508 194 c 0,60,61
 512 209 512 209 512 225 c 0,62,63
 512 240 512 240 510 244 c 0,64,65
 507 250 507 250 504 252 c 1,66,67
 501 256 501 256 499 265 c 1,68,69
 499 271 499 271 494 281 c 0,70,71
 491 287 491 287 474 304 c 0,72,73
 458 320 458 320 437 331 c 0,74,75
 415 342 415 342 402 342 c 0,76,77
 391 343 391 343 377 346 c 0,78,79
 368 349 368 349 355 349 c 0,80,81
 348 349 348 349 324 348 c 0,82,83
 300 346 300 346 286 346 c 0,84,85
 278 346 278 346 276 347 c 0,0,1
370 659 m 0,86,87
 364 662 364 662 355 662 c 0,88,89
 348 662 348 662 346 660 c 1,90,91
 345 658 345 658 338 656 c 0,92,93
 334 655 334 655 320 658 c 0,94,95
 308 661 308 661 290 657 c 0,96,97
 278 654 278 654 266 654 c 1,98,99
 260 656 260 656 256 658 c 0,100,101
 250 660 250 660 239 660 c 0,102,103
 226 660 226 660 217 651 c 0,104,105
 207 640 207 640 209 635 c 0,106,107
 210 631 210 631 210 615 c 0,108,109
 210 611 210 611 210.5 603 c 128,-1,110
 211 595 211 595 212 592 c 1,111,112
 213 582 213 582 210 576 c 1,113,114
 208 566 208 566 208 556 c 0,115,116
 208 542 208 542 211 535 c 1,117,118
 213 527 213 527 211 520 c 0,119,120
 211 519 211 519 210 514 c 128,-1,121
 209 509 209 509 208 507 c 1,122,123
 208 501 208 501 210 493 c 0,124,125
 214 483 214 483 212 478 c 1,126,127
 212 472 212 472 209 464 c 1,128,129
 208 459 208 459 208 457 c 0,130,131
 208 454 208 454 212 446 c 0,132,133
 218 435 218 435 222 433 c 0,134,135
 228 429 228 429 234 427 c 0,136,137
 242 425 242 425 253 425 c 0,138,139
 266 425 266 425 275 428 c 0,140,141
 284 432 284 432 295 432 c 0,142,143
 300 432 300 432 316 431 c 0,144,145
 330 430 330 430 344 430 c 128,-1,146
 358 430 358 430 369 431 c 0,147,148
 391 433 391 433 398 435 c 0,149,150
 399 435 399 435 405.5 437.5 c 128,-1,151
 412 440 412 440 415 441 c 1,152,153
 430 450 430 450 437 456 c 0,154,155
 449 466 449 466 459 476 c 0,156,157
 462 479 462 479 468 485.5 c 128,-1,158
 474 492 474 492 475 493 c 0,159,160
 481 504 481 504 482 514 c 2,161,162
 485 524 485 524 485 553 c 0,163,164
 485 579 485 579 481 584 c 0,165,166
 475 592 475 592 469 601 c 0,167,168
 457 616 457 616 456 617 c 0,169,170
 449 624 449 624 443 627 c 2,171,-1
 434 632 l 2,172,173
 433 633 433 633 421 641 c 0,174,175
 411 647 411 647 393 652 c 0,176,177
 375 656 375 656 370 659 c 0,86,87
369 746 m 0,178,179
 379 748 379 748 380 749 c 1,180,181
 381 749 381 749 393 745 c 0,182,183
 407 742 407 742 418 741 c 0,184,185
 433 741 433 741 456 733 c 0,186,187
 480 725 480 725 490 720 c 0,188,189
 504 714 504 714 505 714 c 128,-1,190
 506 714 506 714 522 706 c 0,191,192
 538 697 538 697 547 685 c 0,193,194
 553 678 553 678 565 660 c 2,195,-1
 580 640 l 1,196,197
 586 635 586 635 587 631.5 c 128,-1,198
 588 628 588 628 588 614 c 0,199,200
 589 595 589 595 594 588 c 0,201,202
 597 585 597 585 600 576 c 1,203,204
 600 566 600 566 598 561 c 1,205,206
 595 543 595 543 595 537 c 0,207,208
 595 525 595 525 593 517 c 0,209,210
 591 511 591 511 589 499 c 0,211,212
 584 481 584 481 578 469 c 0,213,214
 569 450 569 450 560 443 c 0,215,216
 545 431 545 431 537 426 c 0,217,218
 535 425 535 425 514 412 c 1,219,220
 506 409 506 409 501 404 c 128,-1,221
 496 399 496 399 495 394 c 0,222,223
 494 390 494 390 494 384 c 1,224,225
 496 380 496 380 498 379 c 1,226,-1
 518 377 l 2,227,228
 523 376 523 376 531 375 c 128,-1,229
 539 374 539 374 540 374 c 1,230,231
 543 372 543 372 546 366 c 0,232,233
 550 359 550 359 558 355 c 0,234,235
 566 352 566 352 572 346 c 0,236,237
 581 337 581 337 585 331 c 0,238,239
 591 322 591 322 595 320 c 1,240,241
 597 318 597 318 602 310 c 0,242,243
 608 300 608 300 608 297 c 1,244,245
 610 293 610 293 612 287 c 1,246,247
 616 279 616 279 616 263 c 0,248,249
 618 245 618 245 621 237 c 0,250,251
 624 230 624 230 624 198 c 0,252,253
 624 169 624 169 620 161 c 0,254,255
 616 152 616 152 614 144 c 0,256,257
 606 120 606 120 604 115 c 0,258,259
 600 102 600 102 590 87 c 0,260,261
 584 78 584 78 574 70 c 0,262,263
 569 67 569 67 557 55 c 0,264,265
 548 46 548 46 541 43 c 0,266,267
 531 38 531 38 525 38 c 1,268,269
 514 35 514 35 511 32 c 1,270,271
 502 28 502 28 487 23 c 0,272,273
 469 18 469 18 451 16 c 0,274,275
 429 14 429 14 416 14 c 0,276,277
 401 14 401 14 392 9 c 0,278,279
 382 4 382 4 366 5 c 0,280,281
 362 5 362 5 357 4.5 c 128,-1,282
 352 4 352 4 349 4 c 130,-1,283
 346 4 l 1,284,285
 344 4 l 2,286,287
 340 4 340 4 330 6 c 0,288,289
 316 8 316 8 295 8 c 0,290,291
 286 8 286 8 271 8 c 0,292,293
 257 8 257 8 232 7.5 c 128,-1,294
 207 7 207 7 201 7 c 0,295,296
 187 6 187 6 154 6 c 0,297,298
 132 5 132 5 127 9 c 0,299,300
 121 13 121 13 115 16 c 0,301,302
 108 20 108 20 106 23 c 1,303,304
 104 28 104 28 102 40 c 0,305,306
 100 54 100 54 100 61 c 0,307,308
 100 64 100 64 100.5 70 c 128,-1,309
 101 76 101 76 101 78 c 0,310,311
 102 83 102 83 100 108 c 0,312,313
 98 123 98 123 98 127.5 c 128,-1,314
 98 132 98 132 100 139 c 0,315,316
 104 150 104 150 102 169 c 0,317,318
 100 191 100 191 100 199 c 0,319,320
 100 202 100 202 100.5 212.5 c 128,-1,321
 101 223 101 223 101 228 c 0,322,323
 103 248 103 248 103 319 c 0,324,325
 103 344 103 344 102 376 c 2,326,-1
 102 407 l 2,327,328
 102 431 102 431 103 444 c 0,329,330
 104 468 104 468 101 473 c 1,331,332
 99 481 99 481 99 491 c 0,333,334
 99 502 99 502 101 512 c 0,335,336
 104 526 104 526 104 616 c 0,337,338
 104 710 104 710 107 715 c 0,339,340
 112 722 112 722 116 725 c 0,341,342
 122 730 122 730 129 733 c 0,343,344
 138 736 138 736 189 737 c 0,345,346
 242 737 242 737 246 740 c 1,347,348
 252 742 252 742 270 742 c 0,349,350
 292 742 292 742 303 739 c 0,351,352
 317 736 317 736 330 740 c 0,353,354
 346 744 346 744 352 744 c 0,355,356
 357 744 357 744 369 746 c 0,178,179
EndSplineSet
EndChar

StartChar: uni0043
Encoding: 67 67 38
Width: 695
GlyphClass: 2
Flags: W
LayerCount: 2
Fore
SplineSet
361 759 m 0,0,1
 370 762 370 762 377 762 c 0,2,3
 380 762 380 762 398 760 c 0,4,5
 417 757 417 757 428 759 c 0,6,7
 440 762 440 762 448 759 c 1,8,9
 454 758 454 758 467 751 c 0,10,11
 479 744 479 744 491 743 c 0,12,13
 497 742 497 742 520 737 c 0,14,15
 535 733 535 733 543 726 c 0,16,17
 550 720 550 720 559 717 c 1,18,19
 571 708 571 708 574 705 c 0,20,21
 578 700 578 700 590 690 c 0,22,23
 599 684 599 684 603 678 c 0,24,25
 604 677 604 677 609 671 c 128,-1,26
 614 665 614 665 617 661 c 0,27,28
 628 648 628 648 635 634 c 0,29,30
 641 621 641 621 643 609 c 0,31,32
 647 591 647 591 647 590 c 2,33,34
 649 585 649 585 652 572 c 0,35,36
 654 562 654 562 653 552 c 1,37,38
 652 550 652 550 650 544.5 c 128,-1,39
 648 539 648 539 648 538 c 1,40,41
 643 533 643 533 640 531 c 0,42,43
 635 528 635 528 607 527 c 0,44,45
 592 526 592 526 577 526 c 0,46,47
 576 526 576 526 570.5 528.5 c 128,-1,48
 565 531 565 531 562 533 c 0,49,50
 550 539 550 539 547 546 c 0,51,52
 545 550 545 550 539 559 c 1,53,54
 534 564 534 564 534 569 c 1,55,56
 532 576.5 l 130,-1,57
 530 584 530 584 528 589 c 0,58,59
 524 603 524 603 519 607 c 0,60,61
 515 610 515 610 513 616 c 0,62,63
 512 619 512 619 507 629 c 1,64,65
 504 633 504 633 498 639 c 1,66,67
 494 641 494 641 480 651 c 0,68,69
 464 660 464 660 457 661 c 0,70,71
 447 663 447 663 438 666 c 0,72,73
 427 670 427 670 405 670 c 256,74,75
 383 670 383 670 369 672 c 0,76,77
 357 673 357 673 349 668 c 0,78,79
 340 662 340 662 329 661 c 0,80,81
 317 659 317 659 307 654 c 256,82,83
 297 649 297 649 289 647 c 1,84,85
 282 647 282 647 270 639 c 0,86,87
 267 637 267 637 263.5 634.5 c 128,-1,88
 260 632 260 632 256.5 629 c 128,-1,89
 253 626 253 626 252 625 c 0,90,91
 241 610 241 610 237 604 c 0,92,93
 235 602 235 602 224 585 c 0,94,95
 221 581 221 581 217 570 c 0,96,97
 213 557 213 557 208 551 c 0,98,99
 202 542 202 542 198 528 c 0,100,101
 197 523 197 523 194.5 514 c 128,-1,102
 192 506 192 506 192 505 c 2,103,104
 191 502 191 502 189 494.5 c 128,-1,105
 187 487 187 487 186 485 c 0,106,107
 185 482 185 482 184 472.5 c 128,-1,108
 183 463 183 463 183 459 c 0,109,110
 182 453 182 453 180 410 c 0,111,112
 179 391 179 391 179 356 c 0,113,114
 179 337 179 337 183 327 c 1,115,116
 185 318 185 318 183 306 c 128,-1,117
 181 294 181 294 185 286 c 0,118,119
 188 279 188 279 188 272 c 256,120,121
 188 265 188 265 191 259 c 1,122,123
 194 244 194 244 194 243 c 0,124,125
 196 234 196 234 200 230 c 1,126,127
 204 224 204 224 205 215 c 0,128,129
 207 203 207 203 212 194 c 0,130,131
 218 182 218 182 220 182 c 1,132,133
 223 179 223 179 224 174 c 0,134,135
 226 168 226 168 238 158 c 0,136,137
 251 149 251 149 256 142 c 2,138,139
 266 132 266 132 271 126 c 1,140,141
 275 119 275 119 283 111 c 0,142,143
 285 109 285 109 309 99 c 0,144,145
 329 92 329 92 337 92 c 0,146,147
 340 92 340 92 345 92 c 0,148,149
 356 93 356 93 368 89 c 0,150,151
 377 86 377 86 400 86 c 0,152,153
 422 87 422 87 432 92 c 0,154,155
 442 98 442 98 453 100 c 1,156,157
 464 104 464 104 469 107 c 1,158,159
 474 112 474 112 476 112 c 256,160,161
 478 112 478 112 483 118 c 1,162,163
 489.5 123.5 l 130,-1,164
 496 129 496 129 500 131 c 0,165,166
 511 139 511 139 513 145 c 0,167,168
 514 149 514 149 521 160 c 0,169,170
 528 169 528 169 533 186 c 0,171,172
 535 191 535 191 538 200.5 c 128,-1,173
 541 210 541 210 542 212 c 2,174,175
 544 220 544 220 551 227 c 0,176,177
 557 234 557 234 564 236 c 0,178,179
 568 238 568 238 601 238 c 0,180,181
 633 237 633 237 639 234 c 0,182,183
 643 232 643 232 651 224 c 0,184,185
 656 218 656 218 657 208 c 0,186,187
 657 206 657 206 657 203 c 0,188,189
 657 195 657 195 655 188 c 0,190,191
 652 176 652 176 651 165 c 0,192,193
 651 161 651 161 650 154.5 c 128,-1,194
 649 148 649 148 649 147 c 1,195,196
 646 140 646 140 639 135 c 0,197,198
 632 129 632 129 629 120 c 0,199,200
 627 110 627 110 618 103 c 2,201,-1
 606 91 l 2,202,203
 603 88 603 88 601 82 c 128,-1,204
 599 76 599 76 586 67 c 0,205,206
 571 56 571 56 568 51 c 0,207,208
 566 48 566 48 556 44 c 1,209,210
 550 43 550 43 542 34 c 0,211,212
 535 25 535 25 529 21 c 0,213,214
 521 17 521 17 514 17 c 128,-1,215
 507 17 507 17 495 13 c 0,216,217
 492 12 492 12 485.5 9.5 c 128,-1,218
 479 7 479 7 478 7 c 0,219,220
 476 7 476 7 472.5 5.5 c 128,-1,221
 469 4 469 4 468 3 c 1,222,-1
 456 0 l 2,223,224
 448 -3 448 -3 437 -2 c 0,225,226
 432 -1 432 -1 422.5 -1 c 128,-1,227
 413 -1 413 -1 405 -2 c 0,228,229
 388 -4 388 -4 383 -6 c 1,230,231
 382 -7 382 -7 374 -9 c 0,232,233
 370 -10 370 -10 367 -10 c 256,234,235
 364 -10 364 -10 357 -8 c 0,236,237
 346 -4 346 -4 325 -4 c 0,238,239
 301 -4 301 -4 292 -1 c 0,240,241
 289 0 289 0 282.5 2.5 c 128,-1,242
 276 5 276 5 275 5 c 0,243,244
 268 7 268 7 264 10 c 1,245,246
 260 14 260 14 254 16 c 2,247,248
 253 17 253 17 243 21.5 c 128,-1,249
 233 26 233 26 227 29 c 0,250,251
 207 39 207 39 191 51 c 0,252,253
 179 60 179 60 164 77 c 0,254,255
 160 81 160 81 150.5 91 c 128,-1,256
 141 101 141 101 138 105 c 2,257,258
 123 120 123 120 122 123 c 0,259,260
 119 132 119 132 117 136 c 2,261,262
 115 145 115 145 111 149 c 1,263,-1
 104 160 l 1,264,265
 104 161 104 161 97 171 c 1,266,267
 92 176 92 176 91 187 c 0,268,269
 90 199 90 199 83 207 c 1,270,271
 77 217 77 217 76 225 c 0,272,273
 76 234 76 234 72 248 c 2,274,-1
 63 276 l 2,275,276
 58 292 58 292 58 314 c 0,277,278
 57 326 57 326 57 331 c 0,279,280
 57 339 57 339 59 342 c 0,281,282
 62 348 62 348 62 396 c 0,283,284
 62 446 62 446 65 454 c 1,285,286
 68 469 68 469 69 488 c 0,287,288
 70 511 70 511 75 518 c 0,289,290
 79 525 79 525 79 535 c 0,291,292
 79 543 79 543 83 555 c 1,293,294
 85 557 85 557 87.5 562.5 c 128,-1,295
 90 568 90 568 91 570 c 1,296,297
 92 571 92 571 98 583 c 1,298,299
 99 588 99 588 103 596 c 0,300,301
 108 604 108 604 114 614 c 0,302,303
 121 627 121 627 128 632 c 0,304,305
 136 638 136 638 140 650 c 0,306,307
 145 663 145 663 151 669 c 2,308,-1
 156 673 l 2,309,310
 162 677 162 677 164 678 c 0,311,312
 168 681 168 681 174 687 c 1,313,314
 175 691 175 691 189 701 c 0,315,316
 203 713 203 713 209 719 c 0,317,318
 219 727 219 727 224 727 c 1,319,320
 236 730 236 730 243 732 c 0,321,322
 255 737 255 737 259 737 c 128,-1,323
 263 737 263 737 269 740 c 1,324,325
 281 743 281 743 294 743 c 0,326,327
 312 744 312 744 319 750 c 128,-1,328
 326 756 326 756 337 756 c 0,329,330
 350 756 350 756 361 759 c 0,0,1
EndSplineSet
EndChar

StartChar: uni0044
Encoding: 68 68 39
Width: 747
GlyphClass: 2
Flags: W
LayerCount: 2
Fore
SplineSet
280 637 m 0,0,1
 265 640 265 640 256 640 c 0,2,3
 248 640 l 0,4,5
 240 640 240 640 232 639 c 0,6,7
 218 636 218 636 217 636 c 0,8,9
 210 636 210 636 206 632 c 0,10,11
 200 626 200 626 199 619 c 1,12,13
 199 612 199 612 197 600 c 0,14,15
 196 593 196 593 196 590 c 0,16,17
 196 584 196 584 199 572 c 0,18,19
 200 569 200 569 205 549 c 1,20,21
 205 544 205 544 203 534 c 1,22,23
 200 527 200 527 200 518 c 0,24,25
 200 513 200 513 201 501 c 0,26,27
 201 480 201 480 205 466 c 0,28,29
 207 454 207 454 204 441 c 0,30,31
 200 429 200 429 200 406 c 0,32,33
 200 394 200 394 201 356 c 0,34,35
 202 317 202 317 202 273 c 2,36,-1
 202 242 l 1,37,-1
 202 208 l 1,38,-1
 202 177 l 1,39,-1
 202 149 l 1,40,-1
 202 125 l 2,41,42
 201 117 201 117 203 101 c 0,43,44
 204 98 204 98 205.5 91.5 c 128,-1,45
 207 85 207 85 208 83 c 0,46,47
 212 76 212 76 215 75 c 2,48,49
 217 73 217 73 232 69 c 0,50,51
 242 67 242 67 246 67 c 128,-1,52
 250 67 250 67 264 69 c 0,53,54
 279 72 279 72 289 72 c 0,55,56
 294 72 294 72 316 76 c 0,57,58
 330 78 330 78 334 78 c 128,-1,59
 338 78 338 78 349 76 c 0,60,61
 362 72 362 72 373 75 c 0,62,63
 387 79 387 79 398 79 c 0,64,65
 410 79 410 79 421 84 c 0,66,67
 424 85 424 85 429 88 c 128,-1,68
 434 91 434 91 436 92 c 0,69,70
 442 95 442 95 452 95 c 0,71,72
 468 97 468 97 471 98 c 0,73,74
 480 101 480 101 488 111 c 0,75,76
 491 114 491 114 495 118 c 2,77,-1
 499 123 l 2,78,79
 500 124 500 124 504 130 c 1,80,81
 507 137 507 137 518 142 c 1,82,83
 531 151 531 151 532 153 c 0,84,85
 536 159 536 159 541 164 c 128,-1,86
 546 169 546 169 548 177 c 128,-1,87
 550 185 550 185 550 187 c 0,88,89
 550 192 550 192 555 199 c 0,90,91
 559 204 559 204 563 212 c 0,92,93
 567 219 567 219 573 240 c 0,94,95
 581 264 581 264 581 275 c 0,96,97
 581 285 581 285 585 299 c 0,98,99
 588 312 588 312 588 362 c 0,100,101
 587 413 587 413 584 420 c 0,102,103
 581 429 581 429 581 442 c 0,104,105
 581 454 581 454 573 473 c 0,106,107
 565 489 565 489 557 513 c 0,108,109
 551 533 551 533 544 540 c 1,110,111
 534 547 534 547 529 554 c 2,112,113
 522 561 522 561 520 567 c 0,114,115
 518 574 518 574 512 580 c 1,116,117
 498 590 498 590 495 592 c 0,118,119
 485 597 485 597 477 603 c 1,120,121
 473 607 473 607 467 610 c 0,122,123
 463 612 463 612 454 612 c 0,124,125
 444 612 444 612 438 615 c 1,126,127
 436 615 436 615 428 617.5 c 128,-1,128
 420 620 420 620 416 621 c 0,129,130
 401 624 401 624 392 628 c 128,-1,131
 383 632 383 632 337 633 c 0,132,133
 289 634 289 634 280 637 c 0,0,1
146 721 m 2,134,135
 148 722 148 722 153 722.5 c 128,-1,136
 158 723 158 723 160 723 c 256,137,138
 162 723 162 723 170.5 721.5 c 128,-1,139
 179 720 179 720 180 720 c 0,140,141
 188 718 188 718 196 718 c 0,142,143
 202 718 202 718 217 719 c 0,144,145
 245 721 245 721 253 721 c 0,146,147
 266 721 266 721 277 718 c 2,148,149
 280 718 280 718 289 716.5 c 128,-1,150
 298 715 298 715 302 714 c 0,151,152
 313 713 313 713 321 716 c 0,153,154
 327 718 327 718 338 718 c 0,155,156
 346 718 346 718 368 716 c 128,-1,157
 390 714 390 714 393 713 c 1,158,159
 396 711 396 711 404 711 c 0,160,161
 413 711 413 711 422 714 c 1,162,163
 434 716 434 716 442 715 c 1,164,165
 450 712 450 712 461 710 c 2,166,167
 472 706 472 706 482 704 c 0,168,169
 493 701 493 701 501 695 c 1,170,171
 502 695 502 695 509 691.5 c 128,-1,172
 516 688 516 688 520 687 c 2,173,174
 525 684 525 684 537 681 c 2,175,176
 539 680 539 680 543 678.5 c 128,-1,177
 547 677 547 677 548 677 c 1,178,179
 551 674 551 674 560 672 c 0,180,181
 569 671 569 671 572 665 c 1,182,183
 581 656 581 656 587 652 c 0,184,185
 598 644 598 644 602 636 c 128,-1,186
 606 628 606 628 620 616 c 0,187,188
 631 607 631 607 636 599 c 0,189,190
 639 595 639 595 641 586 c 1,191,192
 641 578 641 578 645 574 c 1,193,194
 648 569 648 569 651 567 c 0,195,196
 655 563 655 563 658 552 c 0,197,198
 660 545 660 545 668 532 c 0,199,200
 673 523 673 523 677 514 c 0,201,202
 678 511 678 511 680 506 c 128,-1,203
 682 501 682 501 682 499 c 1,204,205
 685 495 685 495 685 486 c 256,206,207
 685 477 685 477 688 468 c 0,208,209
 692 454 692 454 695 448 c 1,210,211
 697 441 697 441 699 408 c 0,212,213
 701 369 701 369 701 342 c 0,214,215
 701 307 701 307 696 297 c 0,216,217
 692 286 692 286 691 265 c 0,218,219
 689 241 689 241 687 237 c 1,220,221
 685 227 685 227 685 221 c 0,222,223
 685 218 685 218 682 206 c 2,224,225
 682 204 682 204 680 198.5 c 128,-1,226
 678 193 678 193 677 190 c 0,227,228
 673 180 673 180 669 175 c 0,229,230
 663 166 663 166 659 155 c 0,231,232
 652 138 652 138 647 132 c 0,233,234
 641 123 641 123 639 113 c 0,235,236
 637 104 637 104 634 101 c 0,237,238
 631 97 631 97 625 95 c 1,239,240
 618 94 618 94 596 71 c 0,241,242
 570 47 570 47 561 41 c 0,243,244
 549 34 549 34 541 32 c 0,245,246
 530 30 530 30 520 24 c 0,247,248
 506 17 506 17 494 14 c 0,249,250
 480 10 480 10 475 10 c 256,251,252
 470 10 470 10 463 5 c 0,253,254
 457 1 457 1 451 -2 c 0,255,256
 447 -4 447 -4 420 -4 c 0,257,258
 394 -4 394 -4 384 -7 c 0,259,260
 374 -11 374 -11 291 -11 c 0,261,262
 210 -11 210 -11 186 -13 c 2,263,-1
 164 -14 l 1,264,265
 163 -13 163 -13 139 -11 c 0,266,267
 116 -10 116 -10 113 -6 c 0,268,269
 110 -3 110 -3 104 5 c 2,270,271
 99 10 99 10 97 17 c 0,272,273
 97 18 97 18 96.5 26 c 128,-1,274
 96 34 96 34 96 39 c 0,275,276
 95 47 95 47 95 60 c 128,-1,277
 95 73 95 73 96 84 c 0,278,279
 98 111 98 111 101 119 c 0,280,281
 103 127 103 127 103 137 c 128,-1,282
 103 147 103 147 101 155 c 0,283,284
 99 162 99 162 97 234 c 0,285,286
 96 281 96 281 96 345 c 0,287,288
 96 358 96 358 96 366 c 0,289,290
 96 384 96 384 94 391 c 1,291,292
 91 396 91 396 91 407 c 256,293,294
 91 418 91 418 94 424 c 1,295,296
 96 430 96 430 96 441 c 0,297,298
 96 451 96 451 98 459 c 0,299,300
 99 466 99 466 98 478 c 0,301,302
 96 490 96 490 96 586 c 128,-1,303
 96 682 96 682 99 690 c 1,304,305
 101 692 101 692 103.5 697.5 c 128,-1,306
 106 703 106 703 107 704 c 0,307,308
 113 712 113 712 114 714 c 1,309,310
 116 716 116 716 128 718 c 0,311,312
 145 721 145 721 146 721 c 2,134,135
EndSplineSet
EndChar
